<?xml version="1.0" standalone="no"?>
<!DOCTYPE svg PUBLIC "-//W3C//DTD SVG 1.1//EN" "http://www.w3.org/Graphics/SVG/1.1/DTD/svg11.dtd" >
<svg xmlns="http://www.w3.org/2000/svg">
<metadata></metadata>
<defs>
<font id="concourse_c2bold" horiz-adv-x="1085" >
<font-face units-per-em="2048" ascent="1520" descent="-528" />
<missing-glyph horiz-adv-x="573" />
<glyph unicode="&#xfb01;" horiz-adv-x="1638" d="M164 0v1034h723v-229h-457v-193h385v-221h-385v-391h-266zM1188 0v1034h266v-1034h-266z" />
<glyph unicode="&#xfb02;" horiz-adv-x="1945" d="M164 0v1034h723v-229h-457v-193h385v-221h-385v-391h-266zM1167 0v1034h267v-805h403v-229h-670z" />
<glyph horiz-adv-x="2048" />
<glyph horiz-adv-x="2048" />
<glyph unicode="&#xd;" horiz-adv-x="573" />
<glyph unicode=" "  horiz-adv-x="573" />
<glyph unicode="&#x09;" horiz-adv-x="573" />
<glyph unicode="&#xa0;" horiz-adv-x="573" />
<glyph unicode="!" horiz-adv-x="819" d="M252 143q0 66 46 112t112 46t111.5 -46t45.5 -112t-46 -111.5t-111 -45.5q-66 0 -112 45.5t-46 111.5zM260 1393h301l-31 -482l-26 -471h-180l-27 469z" />
<glyph unicode="&#x22;" horiz-adv-x="860" d="M152 1393h249l-49 -562h-153zM459 1393h250l-50 -562h-153z" />
<glyph unicode="#" horiz-adv-x="1146" d="M68 492l26 159l223 -39l64 277l-193 35l29 159l201 -36l102 440l148 -33l-101 -434l158 -27l115 475l147 -32l-115 -469l207 -35l-28 -160l-215 37l-68 -277l188 -32l-26 -160l-199 35l-121 -504l-147 33l119 495l-152 27l-123 -535l-147 33l121 529zM467 586l154 -27 l65 277l-156 26z" />
<glyph unicode="$" horiz-adv-x="1064" d="M111 166l39 229q59 -35 132.5 -63.5t159.5 -40.5l35 348l-35 18q-55 29 -110.5 62t-98.5 77t-69.5 102t-26.5 136q0 66 25.5 125.5t77 103.5t129 71.5t182.5 27.5l16 172l125 -12l-18 -170q72 -10 132 -33t109 -49l-28 -228q-61 29 -117.5 50.5t-118.5 31.5l-30 -305 l22 -10q92 -47 152.5 -95t95.5 -97.5t49 -101.5t14 -105q0 -92 -35.5 -157t-93 -107t-131 -63.5t-149.5 -23.5l-19 -198l-125 12l19 193q-96 14 -182 42.5t-127 57.5zM369 1034q0 -45 26.5 -75.5t106.5 -75.5l26 254q-82 -2 -120.5 -30t-38.5 -73zM567 285q82 6 118 40.5 t36 73.5q0 53 -24.5 89t-100.5 83z" />
<glyph unicode="%" horiz-adv-x="1495" d="M143 1081q0 72 21.5 133.5t59.5 105.5t89.5 69.5t112.5 25.5q68 0 122 -25.5t93 -69.5t59.5 -105.5t20.5 -133.5t-22.5 -130t-61.5 -101t-92 -66.5t-113 -23.5q-61 0 -114.5 23.5t-91.5 66.5t-60.5 101.5t-22.5 129.5zM178 49l537 682l475 680l115 -63l-510 -662 l-502 -704zM313 1083q0 -78 34 -126t91 -48q47 0 80 46t33 128t-32 132.5t-87 50.5q-53 0 -86 -52.5t-33 -130.5zM774 299q0 72 21.5 133.5t59.5 105.5t89 69.5t113 25.5q68 0 122 -25.5t93 -69.5t59.5 -105.5t20.5 -133.5t-22.5 -130t-61.5 -101t-92.5 -67t-112.5 -24 q-61 0 -114.5 24t-91.5 67t-60.5 101t-22.5 130zM944 301q0 -78 34 -126t91 -48q47 0 80 46t33 128t-32 132t-87 50q-53 0 -86 -52t-33 -130z" />
<glyph unicode="&#x26;" horiz-adv-x="1515" d="M156 397q0 86 21.5 151.5t56 117t79.5 88.5t95 63v14q-84 53 -117 117t-33 131q0 74 37 137.5t98.5 109.5t143 71.5t172.5 25.5q129 0 220 -28.5t163 -73.5l-105 -225h-12q-57 41 -124 60.5t-126 19.5q-84 0 -134 -35t-50 -103q0 -57 38.5 -99t125.5 -58v-129 q-117 -25 -192 -104t-75 -195q0 -113 81 -174.5t210 -61.5q70 0 129.5 17.5t102.5 48t66.5 72.5t23.5 91q0 25 -5.5 50.5t-17.5 48.5l-162 -31l-43 207l516 100l41 -207l-125 -24q16 -39 26.5 -82t10.5 -96q0 -88 -37.5 -168t-110.5 -141.5t-179.5 -97.5t-243.5 -36 q-133 0 -237.5 35t-177.5 93.5t-111.5 136t-38.5 163.5z" />
<glyph unicode="'" horiz-adv-x="552" d="M152 1393h249l-49 -562h-153z" />
<glyph unicode="(" horiz-adv-x="901" d="M154 575q0 166 44 311.5t115.5 265.5t165.5 213t195 153l125 -144q-166 -121 -267.5 -320.5t-101.5 -469.5q0 -262 99.5 -465t269.5 -350l-125 -144q-115 80 -210 188.5t-165 232.5t-107.5 259t-37.5 270z" />
<glyph unicode=")" horiz-adv-x="901" d="M102 -231q170 147 269.5 350t99.5 465q0 270 -101.5 469.5t-267.5 320.5l125 144q100 -59 194.5 -152.5t166 -213.5t116 -265.5t44.5 -311.5q0 -135 -38 -270t-108 -259t-165 -232.5t-210 -188.5z" />
<glyph unicode="*" horiz-adv-x="1269" d="M236 944l63 221l283 -145l-64 373h250l-86 -379l291 172l61 -232l-329 -32l280 -269l-166 -145l-186 332l-180 -344l-177 163l275 250z" />
<glyph unicode="+" d="M68 535v163h393v394h164v-394h393v-163h-393v-394h-164v394h-393z" />
<glyph unicode="," horiz-adv-x="696" d="M111 -303l170 534h292v-14l-292 -536h-170v16z" />
<glyph unicode="-" horiz-adv-x="880" d="M184 371v239h512v-239h-512z" />
<glyph unicode="." horiz-adv-x="737" d="M211 143q0 66 46 112t112 46t111.5 -46t45.5 -112t-46 -111.5t-111 -45.5q-66 0 -112 45.5t-46 111.5z" />
<glyph unicode="/" horiz-adv-x="1126" d="M113 -328l696 1762h205l-697 -1762h-204z" />
<glyph unicode="0" horiz-adv-x="1310" d="M133 711q0 184 41 319t112.5 222t168 129t204.5 42q113 0 208.5 -49t164 -141t107.5 -224t39 -298q0 -186 -40 -325.5t-108.5 -232t-164 -138.5t-206.5 -46t-207 42t-166.5 132t-111.5 230.5t-41 337.5zM422 715q0 -133 19.5 -225.5t51 -150.5t73.5 -84t89 -26 q51 0 94.5 28t74 86t48 150.5t17.5 221.5q0 229 -68.5 338.5t-163.5 109.5q-100 0 -167.5 -111.5t-67.5 -336.5z" />
<glyph unicode="1" horiz-adv-x="1024" d="M160 1348l534 61l21 -16v-1393h-277v1120l-256 -30z" />
<glyph unicode="2" horiz-adv-x="1208" d="M74 92q188 168 322 299t220 238.5t126 198t40 173.5q0 43 -15 73t-42 50.5t-60.5 29.5t-72.5 9q-109 0 -209 -35.5t-186 -95.5l-33 258q29 20 69.5 43t96 43.5t125 33.5t155.5 13q217 0 339 -103t122 -292q0 -174 -139 -368.5t-400 -393.5l7 -16l532 29v-279h-977z" />
<glyph unicode="3" horiz-adv-x="1167" d="M123 307h10q182 -82 354 -82q117 0 192 48.5t75 140.5q0 78 -59.5 125t-170.5 43l-268 -13l16 267l244 -13q92 -4 152.5 42t60.5 136q0 84 -61.5 125t-151.5 41q-96 0 -179 -26.5t-130 -53.5h-12l18 273q47 20 137 41.5t219 21.5q96 0 178 -22.5t142.5 -68.5t94.5 -114.5 t34 -160.5q0 -129 -63.5 -215t-157.5 -117v-16q117 -35 181 -122t64 -198q0 -92 -36.5 -170t-104 -133t-163 -86t-214.5 -31q-131 0 -223 20.5t-170 55.5z" />
<glyph unicode="4" horiz-adv-x="1228" d="M96 504l594 889h277v-793l149 4v-237h-149v-367h-273v367h-565zM399 594l2 -8l293 8v440h-10z" />
<glyph unicode="5" horiz-adv-x="1208" d="M135 -12l33 252q39 -10 98.5 -11.5t95.5 -1.5q113 0 192 21.5t128 56.5t71.5 80t22.5 94q0 104 -111.5 163.5t-304.5 59.5q-53 0 -96 -4t-96 -16l-12 6l86 705h792l-20 -269l-568 21l-28 -232q29 2 50 3.5t50 1.5q143 0 246.5 -36t170 -94.5t98.5 -134t32 -155.5 q0 -127 -51 -225.5t-145.5 -166t-226.5 -102.5t-292 -35q-123 0 -215 19z" />
<glyph unicode="6" horiz-adv-x="1208" d="M115 535q0 215 76.5 378.5t203.5 274t294 170t349 65.5l-28 -237q-117 -8 -214.5 -42t-171 -86t-121.5 -118t-67 -135l13 -8q41 23 94 40t133 17q76 0 152.5 -25.5t138 -81t99.5 -139.5t38 -200q0 -109 -38 -191t-102.5 -137t-151.5 -83t-185 -28q-131 0 -227.5 46 t-160 124t-94 180.5t-30.5 215.5zM403 518q0 -66 16.5 -123t46.5 -98t74 -64.5t99 -23.5q82 0 129 53t47 131q0 63 -21.5 109.5t-55 77t-75.5 45t-85 14.5q-90 0 -166 -47q-6 -20 -7.5 -37.5t-1.5 -36.5z" />
<glyph unicode="7" horiz-adv-x="1126" d="M121 1124l20 269h928l16 -23q-229 -344 -349 -692t-124 -678h-336q25 162 66 316.5t97.5 298t126 272.5t149.5 237l-10 13z" />
<glyph unicode="8" horiz-adv-x="1187" d="M113 338q0 66 24.5 125t61.5 107t82 84t86 55v8q-123 88 -168 173t-45 183q0 74 32.5 137.5t93 110.5t145.5 74.5t187 27.5q86 0 162 -23.5t134.5 -67.5t92 -106.5t33.5 -140.5q0 -123 -61.5 -205.5t-169.5 -142.5v-10q145 -96 208.5 -182t63.5 -197q0 -82 -34.5 -151.5 t-98 -119.5t-154 -79t-198.5 -29q-109 0 -196 28t-150.5 77t-97 116.5t-33.5 147.5zM391 362q0 -33 13.5 -63.5t39 -54t61.5 -37.5t83 -14q35 0 69.5 9t62.5 29.5t44 51t16 73.5q0 61 -58 129t-179 127q-84 -41 -118 -109.5t-34 -140.5zM449 1049q0 -68 46 -114t138 -104 q59 37 96 91.5t37 128.5q0 68 -47 108.5t-111 40.5q-80 0 -119.5 -46t-39.5 -105z" />
<glyph unicode="9" horiz-adv-x="1208" d="M92 967q0 96 34 179t96.5 144.5t150.5 97t198 35.5q129 0 225.5 -47t160 -128t94 -191.5t30.5 -235.5q0 -172 -50 -309t-144 -243.5t-226.5 -182.5t-298.5 -127l-94 219v17q102 27 189.5 66.5t153 89.5t106.5 108.5t49 122.5l-14 12q-41 -27 -94.5 -41t-125.5 -14 q-76 0 -153.5 26.5t-141 80.5t-104.5 134t-41 187zM381 993q0 -63 19.5 -108t53 -75t77.5 -43t94 -13q82 0 159 61q6 29 7.5 47.5t1.5 44.5q0 45 -15.5 94.5t-45.5 90.5t-73 66.5t-98 25.5q-78 0 -129 -51.5t-51 -139.5z" />
<glyph unicode=":" horiz-adv-x="737" d="M227 143q0 66 46 112t112 46t112 -46t46 -112t-46 -111.5t-112 -45.5t-112 45.5t-46 111.5zM227 727q0 66 46 112t112 46t112 -46t46 -112t-46 -112t-112 -46t-112 46t-46 112z" />
<glyph unicode=";" horiz-adv-x="778" d="M117 -303l170 534h293v-14l-293 -536h-170v16zM250 727q0 66 46 112t112 46t111.5 -46t45.5 -112t-46 -112t-111 -46q-66 0 -112 46t-46 112z" />
<glyph unicode="&#x3c;" d="M102 594v127l828 389l61 -164l-651 -289l651 -288l-61 -164z" />
<glyph unicode="=" d="M88 309v164h909v-164h-909zM88 743v164h909v-164h-909z" />
<glyph unicode="&#x3e;" d="M94 369l651 288l-651 289l62 164l827 -389v-127l-827 -389z" />
<glyph unicode="?" horiz-adv-x="1105" d="M193 1153l18 223q35 14 102.5 30.5t159.5 16.5q113 0 200 -27.5t146.5 -78.5t91 -121t31.5 -152q0 -102 -43 -176.5t-108.5 -127t-146.5 -83t-157 -43.5v-182h-225v348q74 6 145.5 20.5t128 43t91.5 76t35 118.5q0 78 -57.5 122t-155.5 44q-123 0 -238 -51h-18zM219 143 q0 66 46 112t112 46t112 -46t46 -112t-46.5 -111.5t-111.5 -45.5q-66 0 -112 45.5t-46 111.5z" />
<glyph unicode="@" horiz-adv-x="1597" d="M205 594q0 172 52 325.5t147.5 267t228.5 180.5t293 67q100 0 186 -22.5t145.5 -69t90 -117t24.5 -168.5l-39 -568q-4 -51 12.5 -87.5t40.5 -59.5l-2 -20l-200 -60l-54 111h-14q-96 -84 -231 -84q-53 0 -102.5 19.5t-86.5 56t-58.5 93t-21.5 130.5q0 78 28 143.5 t77 113.5t114.5 74.5t141.5 26.5q41 0 87 -4t81 -12l10 110q10 109 -55.5 151t-177.5 42q-109 0 -200 -51.5t-158.5 -137.5t-105.5 -200.5t-38 -241.5q0 -150 37 -257t98 -176t143 -101.5t174 -32.5q94 0 154.5 20.5t103.5 53.5h11l78 -172q-72 -59 -167.5 -84t-166.5 -25 q-139 0 -262 45t-216.5 139t-147.5 238.5t-54 343.5zM829 588q0 -61 37 -86t88 -25q37 0 81 13.5t81 35.5l21 224q-29 4 -66 9t-70 5q-72 0 -122 -44t-50 -132z" />
<glyph unicode="A" horiz-adv-x="1495" d="M90 0l572 1393h163l580 -1393h-297l-107 272h-507l-107 -272h-297zM582 510h329l-157 428h-15z" />
<glyph unicode="B" horiz-adv-x="1290" d="M217 0v1393h414q123 0 211 -28t143 -76t82 -113.5t27 -141.5q0 -39 -10.5 -85t-35 -89t-66.5 -76.5t-103 -48.5v-10q72 -12 126 -44t89.5 -77t53 -97t17.5 -106q0 -193 -138 -297t-388 -104h-422zM494 246h188q86 0 141.5 47t55.5 135q0 45 -17.5 78t-46.5 53.5 t-65.5 29.5t-73.5 9h-182v-352zM494 825h147q72 0 119 43t47 121q0 82 -51 120t-119 38h-143v-322z" />
<glyph unicode="C" horiz-adv-x="1474" d="M145 664q0 172 56.5 311t155 239.5t229.5 154.5t282 54q145 0 261 -38.5t206 -94.5l-71 -252h-13q-59 49 -160.5 87t-224.5 38q-96 0 -176 -31.5t-136 -94t-88 -154.5t-32 -211q0 -102 37 -184t97.5 -139.5t139 -88.5t164.5 -31q119 0 213.5 32t174.5 95h12l82 -227 q-41 -35 -98.5 -64.5t-123 -51t-134 -33t-130.5 -11.5q-162 0 -295 55.5t-228 149.5t-147.5 220t-52.5 270z" />
<glyph unicode="D" horiz-adv-x="1515" d="M217 0v1393h418q160 0 295 -46.5t232.5 -136.5t152.5 -222t55 -304q0 -154 -56.5 -279.5t-154.5 -216t-230 -139.5t-282 -49h-430zM494 254h145q94 0 175 30.5t141.5 88t94 137.5t33.5 178q0 119 -39.5 204t-101 140t-137.5 81t-148 26h-163v-885z" />
<glyph unicode="E" horiz-adv-x="1228" d="M217 0v1393h823v-254h-546v-301h491v-254h-491v-330h569v-254h-846z" />
<glyph unicode="F" horiz-adv-x="1167" d="M217 0v1393h803v-254h-526v-301h471v-254h-471v-584h-277z" />
<glyph unicode="G" horiz-adv-x="1576" d="M145 664q0 178 58.5 319t158 238.5t230.5 149.5t276 52q147 0 262 -44t197 -91l-70 -252h-18q-66 53 -158 90t-217 37q-82 0 -159.5 -27.5t-137 -87t-96.5 -152.5t-37 -224q0 -104 37 -186.5t97.5 -139.5t139 -87t162.5 -30q86 0 147.5 18.5t98.5 51.5v236h-313v253h588 v-628q-102 -84 -230.5 -137.5t-300.5 -53.5q-156 0 -287 54.5t-226 148.5t-148.5 221t-53.5 271z" />
<glyph unicode="H" horiz-adv-x="1576" d="M217 0v1393h277v-555h589v555h277v-1393h-277v584h-589v-584h-277z" />
<glyph unicode="I" horiz-adv-x="716" d="M221 0v1393h277v-1393h-277z" />
<glyph unicode="J" horiz-adv-x="1024" d="M115 16l51 238q25 -18 65.5 -31.5t92.5 -13.5q35 0 71.5 13.5t66.5 40t49 67.5t19 96v967h277v-992q0 -127 -42 -211t-107.5 -136t-145.5 -73.5t-158 -21.5q-86 0 -142 14.5t-97 42.5z" />
<glyph unicode="K" horiz-adv-x="1372" d="M217 0v1393h277v-541h8l428 541h340v-11l-539 -657l580 -717v-8h-359l-450 571h-8v-571h-277z" />
<glyph unicode="L" horiz-adv-x="1146" d="M217 0v1393h277v-1139h540v-254h-817z" />
<glyph unicode="M" horiz-adv-x="1925" d="M154 0l233 1407h182l392 -967h12l385 967h182l232 -1407h-293l-103 786h-10l-336 -790h-133l-338 790h-10l-105 -786h-290z" />
<glyph unicode="N" horiz-adv-x="1699" d="M217 0v1393h178l801 -885h12v885h275v-1393h-172l-807 895h-10v-895h-277z" />
<glyph unicode="O" horiz-adv-x="1699" d="M145 686q0 166 59.5 301t158 232.5t226.5 150.5t263 53q139 0 266 -52t224.5 -148.5t154.5 -232.5t57 -304q0 -160 -55 -291t-151.5 -226t-224.5 -147.5t-271 -52.5q-141 0 -270 49.5t-225.5 142.5t-154 226t-57.5 299zM434 690q0 -115 37 -202t95.5 -144t133 -86 t152.5 -29q92 0 169 34t132 94.5t85 145.5t30 187q0 109 -32 196t-88 148.5t-133 95t-165 33.5q-86 0 -162 -33.5t-132 -95t-89 -148.5t-33 -196z" />
<glyph unicode="P" horiz-adv-x="1187" d="M217 0v1393h375q233 0 367.5 -115t134.5 -328q0 -102 -36 -186t-100.5 -143.5t-152.5 -93t-195 -33.5h-116v-494h-277zM494 743h104q37 0 75 10.5t66.5 35t47 63.5t18.5 94q0 100 -60.5 150.5t-146.5 50.5h-104v-404z" />
<glyph unicode="Q" horiz-adv-x="1699" d="M145 715q0 137 52.5 265t146.5 226.5t222 157.5t282 59q150 0 278.5 -54t224 -149.5t149.5 -225.5t54 -279q0 -139 -53 -262t-145 -216.5t-216 -148.5t-268 -59h-43l-4 -9q47 -25 95.5 -51t109 -48.5t140 -37t190.5 -14.5l-68 -248q-129 0 -225 23.5t-172 59.5t-139.5 79 t-127 82t-134 68.5t-162.5 37.5l96 179q-147 117 -215 260t-68 305zM434 719q0 -96 31 -177t86 -139.5t131 -91t168 -32.5q88 0 164 30.5t132 87t89 138.5t33 184q0 82 -29 162t-83 143t-132 101t-176 38q-90 0 -166 -33.5t-131 -94t-86 -141.5t-31 -175z" />
<glyph unicode="R" horiz-adv-x="1331" d="M217 0v1393h395q131 0 227.5 -37t159 -96.5t92 -137.5t29.5 -159q0 -147 -74.5 -248t-224.5 -144l428 -555v-16h-309l-403 535h-43v-535h-277zM494 768h143q98 0 147.5 53t49.5 133q0 90 -55.5 141.5t-139.5 51.5h-145v-379z" />
<glyph unicode="S" horiz-adv-x="1208" d="M135 106l98 244q68 -53 155 -89t185 -36q96 0 143.5 46t47.5 96q0 37 -13.5 66.5t-43 58t-77.5 59.5t-120 72q-96 53 -161.5 101t-106.5 98t-59.5 106.5t-18.5 130.5q0 63 27.5 127.5t83 117t139.5 86t196 33.5q63 0 125 -13t116 -32.5t99 -44t78 -49.5l-78 -229 q-78 49 -156.5 80.5t-168.5 31.5q-31 0 -62 -6t-55.5 -19.5t-39.5 -35t-15 -51.5q0 -31 14 -57.5t48 -55.5t88 -63.5t136 -81.5q170 -100 245 -202.5t75 -223.5q0 -109 -42 -184.5t-110.5 -124t-154.5 -71t-172 -22.5q-59 0 -125 11.5t-125.5 30t-110.5 43t-84 52.5z" />
<glyph unicode="T" horiz-adv-x="1290" d="M111 1139v254h1069v-254h-398v-1139h-274v1139h-397z" />
<glyph unicode="U" horiz-adv-x="1576" d="M217 485v908h277v-854q0 -63 16 -118.5t51 -97.5t91.5 -67t135.5 -25q59 0 113.5 16.5t95.5 54.5t64.5 98.5t23.5 148.5v844h275v-879q0 -106 -35 -204.5t-105.5 -174.5t-178 -121t-253.5 -45q-180 0 -291.5 50.5t-174 126t-84 166.5t-21.5 173z" />
<glyph unicode="V" horiz-adv-x="1454" d="M117 1393h297l309 -844h10l307 844h297l-538 -1393h-144z" />
<glyph unicode="W" horiz-adv-x="1986" d="M117 1393h297l258 -858h8l223 858h176l226 -858h8l260 858h297l-455 -1393h-190l-230 793h-8l-227 -793h-191z" />
<glyph unicode="X" horiz-adv-x="1433" d="M117 0l440 707l-426 686h307l279 -451l278 451h308l-429 -686l443 -707h-307l-293 473l-293 -473h-307z" />
<glyph unicode="Y" horiz-adv-x="1372" d="M86 1393h307l291 -529h4l291 529h307l-461 -799v-594h-276v594z" />
<glyph unicode="Z" horiz-adv-x="1413" d="M137 14l684 1112l-6 9h-612v258h1085l6 -9l-692 -1116l6 -10h649v-258h-1112z" />
<glyph unicode="[" horiz-adv-x="942" d="M256 -336l16 930l-16 889l541 -8v-201l-275 8l-12 -694l12 -723l287 8v-201z" />
<glyph unicode="\" horiz-adv-x="1126" d="M113 1434h204l697 -1762h-205z" />
<glyph unicode="]" horiz-adv-x="942" d="M133 -127l287 -8l12 723l-12 694l-275 -8v201l541 8l-16 -889l16 -930l-553 8v201z" />
<glyph unicode="^" d="M61 643l455 772h55l453 -772l-119 -68l-352 615h-16l-359 -615z" />
<glyph unicode="_" d="M-51 -266h1188v-185h-1188v185z" />
<glyph unicode="`" horiz-adv-x="1024" d="M199 1260v20h274l197 -336v-16h-166z" />
<glyph unicode="a" horiz-adv-x="1167" d="M47 0l449 1034h172l452 -1034h-282l-70 182h-371l-67 -182h-283zM469 377h227l-108 297h-13z" />
<glyph unicode="b" horiz-adv-x="1064" d="M164 0v1034h397q102 0 172 -23.5t113 -61.5t62.5 -87t19.5 -98q0 -72 -36 -126t-130 -87v-8q94 -16 151.5 -88t57.5 -164q0 -135 -104.5 -213t-291.5 -78h-411zM424 213h141q57 0 89 29.5t32 76.5q0 49 -36 78t-93 29h-133v-213zM424 616h113q53 0 84.5 30t31.5 73 q0 47 -32.5 74.5t-75.5 27.5h-121v-205z" />
<glyph unicode="c" horiz-adv-x="1167" d="M113 506q0 131 47 232.5t126 172t179 107.5t207 37q125 0 224 -38t161 -91l-80 -205h-8q-47 41 -124 71q-72 29 -159 29h-12q-55 0 -106.5 -19.5t-91.5 -58t-64.5 -97t-24.5 -136.5q0 -72 22.5 -126t61.5 -93t93 -58.5t118 -19.5q86 0 152.5 21.5t134.5 68.5h10l78 -199 q-80 -61 -182.5 -92.5t-217.5 -31.5q-123 0 -224 41.5t-172 113.5t-109.5 167t-38.5 204z" />
<glyph unicode="d" horiz-adv-x="1187" d="M164 0v1034h366q115 0 214.5 -36.5t173 -105.5t115.5 -164t42 -212q0 -123 -41 -219t-112.5 -162.5t-171 -100.5t-218.5 -34h-368zM430 229h121q111 0 181.5 76t70.5 215q0 68 -23.5 120t-60.5 89t-82 56.5t-88 19.5h-119v-576z" />
<glyph unicode="e" horiz-adv-x="1064" d="M164 0v1034h733v-229h-467v-172h406v-221h-406v-183h481v-229h-747z" />
<glyph unicode="f" horiz-adv-x="1003" d="M164 0v1034h723v-229h-457v-193h385v-221h-385v-391h-266z" />
<glyph unicode="g" horiz-adv-x="1249" d="M113 506q0 131 47 232.5t126 172t179 107.5t207 37q63 0 122.5 -12.5t110.5 -31t92 -42t70 -43.5l-72 -217h-10q-59 47 -135 81q-72 31 -170 31h-12q-53 0 -104.5 -18.5t-90.5 -57t-62.5 -97t-23.5 -138.5q0 -63 21.5 -117.5t59.5 -94.5t90 -62.5t114 -22.5 q55 0 104 14.5t84 40.5v129h-227v209h452v-471q-72 -68 -184.5 -111.5t-232.5 -43.5q-115 0 -215.5 37.5t-176 106.5t-119.5 166t-44 216z" />
<glyph unicode="h" horiz-adv-x="1249" d="M164 0v1034h266v-399h389v399h266v-1034h-266v406h-389v-406h-266z" />
<glyph unicode="i" horiz-adv-x="634" d="M184 0v1034h267v-1034h-267z" />
<glyph unicode="j" horiz-adv-x="921" d="M61 53l66 219h6q27 -25 72 -42t98 -17q86 0 137.5 52t51.5 169v600h266v-653q0 -98 -33 -173t-90 -126t-137 -76.5t-174 -25.5q-76 0 -145.5 20t-117.5 53z" />
<glyph unicode="k" horiz-adv-x="1146" d="M164 0v1034h266v-418h6l340 418h301v-10l-426 -504l461 -510v-10h-326l-350 389h-6v-389h-266z" />
<glyph unicode="l" horiz-adv-x="942" d="M164 0v1034h266v-805h404v-229h-670z" />
<glyph unicode="m" horiz-adv-x="1515" d="M129 0l184 1044h133l314 -628h10l299 628h133l184 -1044h-262l-77 516h-15l-233 -516h-82l-234 516h-14l-78 -516h-262z" />
<glyph unicode="n" horiz-adv-x="1331" d="M164 0v1034h170l557 -585h10v585h266v-1034h-170l-557 588h-10v-588h-266z" />
<glyph unicode="o" horiz-adv-x="1331" d="M113 512q0 123 46 223.5t122.5 171t177 109.5t209.5 39q106 0 205.5 -38t176 -107.5t123 -171t46.5 -226.5q0 -109 -39 -206t-112 -170t-174 -114.5t-226 -41.5q-121 0 -223.5 40.5t-176 112.5t-114.5 169t-41 210zM387 516q0 -59 18.5 -113.5t53.5 -96.5t88 -67.5 t125 -25.5q57 0 107 20.5t87 59.5t58.5 95t21.5 128q0 68 -22.5 124t-61.5 96t-89 62.5t-107 22.5q-53 0 -103.5 -20.5t-89.5 -59.5t-62.5 -95t-23.5 -130z" />
<glyph unicode="p" horiz-adv-x="1044" d="M164 0v1034h381q88 0 161.5 -24.5t127 -70.5t83 -112.5t29.5 -150.5q0 -53 -20.5 -109.5t-68.5 -103.5t-126 -78t-194 -31h-107v-354h-266zM430 559h92q61 0 100.5 32t39.5 91q0 55 -39 94t-107 39h-86v-256z" />
<glyph unicode="q" horiz-adv-x="1331" d="M113 512q0 123 46 223.5t122.5 171t177 109.5t209.5 39q106 0 205.5 -38t176 -107.5t123 -171t46.5 -226.5q0 -98 -36 -188.5t-101.5 -161t-159 -116.5t-207.5 -54l-8 -12q68 -55 166 -78q78 -18 163 -18q22 0 45 1l-65 -227q-94 0 -164 16.5t-127 43t-108.5 60.5 t-108.5 66.5t-129 63.5t-168 49l82 158q-86 72 -133 173t-47 224zM387 516q0 -59 18.5 -113.5t53.5 -96.5t88 -67.5t125 -25.5q57 0 107 20.5t87 59.5t58.5 95t21.5 128q0 68 -22.5 124t-61.5 96t-89 62.5t-107 22.5q-53 0 -103.5 -19.5t-89.5 -57t-62.5 -95t-23.5 -133.5z " />
<glyph unicode="r" horiz-adv-x="1146" d="M164 0v1034h411q86 0 158 -23.5t124 -68.5t81 -107.5t29 -138.5q0 -98 -58.5 -168.5t-169.5 -101.5v-8l316 -408v-10h-316l-282 399h-27v-399h-266zM430 580h123q55 0 92 29.5t37 86.5t-38 88t-97 31h-117v-235z" />
<glyph unicode="s" horiz-adv-x="1064" d="M119 98l74 215q68 -43 153.5 -75.5t175.5 -32.5q72 0 103.5 26.5t31.5 57.5q0 47 -50 73.5t-150 73.5q-78 37 -134.5 71t-92 71.5t-53 80.5t-17.5 99q0 55 23.5 108.5t70.5 95.5t118.5 67.5t168.5 25.5q109 0 201 -27t163 -72l-61 -213q-78 41 -154 63.5t-147 22.5 q-59 0 -86 -21.5t-27 -49.5q0 -16 9.5 -29.5t32 -29t62 -36t99.5 -47.5q84 -39 141 -76.5t93 -78.5t51.5 -86t15.5 -99q0 -74 -32 -129t-88 -92t-134 -56t-170 -19q-135 0 -239.5 37.5t-151.5 80.5z" />
<glyph unicode="t" horiz-adv-x="1126" d="M119 805v229h889v-229h-312v-805h-266v805h-311z" />
<glyph unicode="u" horiz-adv-x="1290" d="M164 434v600h266v-565q0 -131 59.5 -187.5t155.5 -56.5q45 0 85 13.5t68.5 43t45 75.5t16.5 112v565h266v-590q0 -90 -28.5 -174t-89 -148.5t-150.5 -103t-213 -38.5q-141 0 -234.5 38.5t-148.5 103t-76.5 145.5t-21.5 167z" />
<glyph unicode="v" horiz-adv-x="1126" d="M57 1034h289l215 -567h8l211 567h289l-440 -1034h-131z" />
<glyph unicode="w" horiz-adv-x="1617" d="M68 1034h288l189 -598h10l166 598h176l180 -598h10l175 598h288l-389 -1034h-174l-170 580h-8l-178 -580h-174z" />
<glyph unicode="x" horiz-adv-x="1126" d="M57 0l349 524l-336 510h309l186 -311l189 311h303l-336 -506l348 -528h-309l-199 328l-201 -328h-303z" />
<glyph unicode="y" d="M37 1034h293l213 -377h8l205 377h293l-373 -628v-406h-266v406z" />
<glyph unicode="z" horiz-adv-x="1146" d="M115 20l481 768l-8 13h-430v233h864l10 -10l-493 -782l8 -9h477v-233h-897z" />
<glyph unicode="{" horiz-adv-x="942" d="M133 500v174q45 0 85 13t68.5 35.5t45 52.5t16.5 63q0 51 -10 97t-21.5 91t-21.5 90t-10 96q0 72 24.5 122t85 81t161.5 45.5t253 14.5v-164q-135 0 -201.5 -28t-66.5 -114q0 -53 11 -102t24.5 -94t24.5 -87t11 -79q0 -41 -20.5 -75t-54 -59.5t-78.5 -45t-97 -27.5v-20 q49 -4 95.5 -20.5t80 -44.5t54 -63.5t20.5 -78.5q0 -39 -11 -82t-24.5 -89t-24.5 -95.5t-11 -100.5q0 -39 8 -70.5t35.5 -53t81 -34t143.5 -12.5v-164q-172 0 -276.5 19.5t-160 56.5t-73.5 91.5t-18 125.5q0 47 10 93t23.5 91.5t23.5 89.5t10 89q0 86 -61.5 129t-153.5 43z " />
<glyph unicode="|" d="M442 -471v2007h201v-2007h-201z" />
<glyph unicode="}" horiz-adv-x="942" d="M133 -164q90 0 143.5 12.5t81 34t35.5 53t8 70.5q0 51 -11 100.5t-24.5 95.5t-24.5 89t-11 82q0 43 20.5 78.5t54 63.5t79.5 44t96 21v20q-51 8 -96.5 27.5t-79 45t-54 59.5t-20.5 75q0 37 11 79t24.5 87t24.5 94t11 102q0 86 -66.5 114t-201.5 28v164q152 0 253 -14.5 t161.5 -45.5t85 -81t24.5 -122q0 -51 -10 -96t-21.5 -90t-21.5 -91t-10 -97q0 -33 16.5 -63t45 -52.5t67.5 -35.5t86 -13v-174q-92 0 -153.5 -43t-61.5 -129q0 -45 10 -89t23.5 -89.5t24 -91.5t10.5 -93q0 -72 -18.5 -126t-74 -91t-160 -56.5t-276.5 -19.5v164z" />
<glyph unicode="~" d="M66 416q0 82 23.5 146.5t62 108.5t91 66.5t107.5 22.5q70 0 123 -32t99 -69.5t87 -69.5t89 -32q66 0 103.5 59.5t37.5 139.5h139q0 -74 -20.5 -137.5t-57.5 -109.5t-89 -71.5t-116 -25.5q-72 0 -124 31.5t-96 68.5t-85 68.5t-90 31.5q-68 0 -110.5 -56t-42.5 -140h-131z " />
<glyph unicode="&#xa1;" horiz-adv-x="819" d="M252 1010q0 66 46 111.5t112 45.5t111.5 -45.5t45.5 -111.5t-46 -112t-111 -46q-66 0 -112 46t-46 112zM258 -240l31 482l26 471h181l26 -469l37 -484h-301z" />
<glyph unicode="&#xa2;" horiz-adv-x="983" d="M115 655q0 109 35.5 202t96 160.5t141.5 108.5t171 45l23 207l125 -10l-23 -207q53 -10 96 -32.5t88 -55.5l-71 -192q-31 27 -64 46t-69 29l-60 -550q61 4 110.5 28.5t88.5 54.5l51 -194q-47 -39 -119.5 -67.5t-150.5 -30.5l-23 -213l-125 10l23 213q-158 35 -251 153.5 t-93 294.5zM360 659q0 -96 33 -152t88 -81l56 530q-78 -23 -127.5 -101.5t-49.5 -195.5z" />
<glyph unicode="&#xa3;" horiz-adv-x="1126" d="M129 123q115 94 160 202.5t45 217.5q0 27 -3 53.5t-7 54.5h-154v133h123q-20 74 -38.5 145.5t-18.5 139.5q0 94 35.5 161.5t94 110.5t134 62.5t157.5 19.5q72 0 130.5 -13t100.5 -29.5t68.5 -34t36.5 -25.5l-53 -215q-37 31 -105.5 58.5t-150.5 27.5q-70 0 -123 -37 t-53 -119q0 -61 15.5 -124.5t35.5 -127.5h264v-133h-229q12 -53 12 -102q0 -70 -39 -137.5t-139 -126.5l16 -21q16 12 45 24.5t64 12.5q49 0 82 -13.5t62.5 -28.5t60 -28.5t78.5 -13.5q47 0 88 11.5t90 43.5l12 -4l33 -217q-23 -18 -51.5 -31.5t-59 -22.5t-59.5 -13t-53 -4 q-53 0 -92 13t-76 29.5t-78 30t-98 13.5q-78 0 -153 -29t-128 -57z" />
<glyph unicode="&#xa4;" horiz-adv-x="1372" d="M213 951q8 26 27.5 46.5t45 29.5t42.5 -7l94 -96q55 41 122.5 63.5t141.5 22.5t139.5 -20.5t118.5 -59.5l88 92q16 18 44 7t50.5 -34.5t32.5 -51.5t-6 -44l-92 -88q37 -53 57.5 -117.5t20.5 -136.5q0 -76 -22.5 -142.5t-63.5 -123.5l98 -94q18 -18 10 -44t-27.5 -47.5 t-45 -30.5t-41.5 9l-103 102q-113 -82 -258 -82q-72 0 -136.5 19.5t-117.5 54.5l-86 -90q-18 -18 -46 -10t-51.5 29.5t-32.5 48t9 45.5l90 88q-82 112 -82 268q0 72 21.5 138.5t60.5 121.5l-92 90q-18 18 -10 44zM377 555q0 -72 22.5 -131t62.5 -104.5t97 -70t129 -24.5 q63 0 119.5 24.5t96.5 70t63.5 104.5t23.5 131q0 74 -23.5 135.5t-64.5 104.5t-96 67.5t-121 24.5q-74 0 -131 -25.5t-97 -71t-60.5 -105.5t-20.5 -130z" />
<glyph unicode="&#xa5;" horiz-adv-x="1290" d="M66 1393h307l270 -529h4l271 529h307l-441 -799v-6h191v-133h-191v-80h191v-133h-191v-242h-276v242h-193v133h193v80h-193v133h193v6z" />
<glyph unicode="&#xa6;" d="M442 246h201v-717h-201v717zM442 819v717h201v-717h-201z" />
<glyph unicode="&#xa7;" horiz-adv-x="1351" d="M227 -221l49 229q78 -53 182.5 -90t233.5 -37q86 0 132 32t46 91q0 55 -69.5 104.5t-216.5 102.5q-166 63 -261.5 163.5t-95.5 241.5q0 68 34 137.5t99 127.5q-70 47 -101.5 101t-31.5 128q0 57 26 113.5t80 101.5t136 71.5t195 26.5q121 0 223 -30.5t166 -65.5l-45 -219 q-74 47 -168.5 76.5t-192.5 29.5q-88 0 -127 -24.5t-39 -65.5q0 -23 11.5 -42t40 -40.5t77.5 -45t123 -54.5q119 -45 196 -97t123 -109.5t64.5 -118t18.5 -123.5q0 -72 -33 -133.5t-92 -110.5q59 -53 86.5 -114.5t27.5 -125.5q0 -86 -33.5 -150.5t-94 -106.5t-143.5 -62.5 t-183 -20.5q-74 0 -142.5 9.5t-126 24.5t-102.5 34.5t-72 40.5zM481 631q0 -29 12.5 -58.5t45 -60.5t90 -63.5t147.5 -67.5l62 -25q20 29 28 61t8 66q0 76 -48 135.5t-179 114.5l-106 47q-29 -31 -44.5 -69.5t-15.5 -79.5z" />
<glyph unicode="&#xa8;" horiz-adv-x="1024" d="M201 1073q0 53 40 92t91 39q53 0 91 -39t38 -92q0 -51 -38 -89t-91 -38q-51 0 -91 38t-40 89zM563 1073q0 53 39 92t92 39q25 0 47.5 -10t41 -28.5t29.5 -42t11 -50.5q0 -25 -11 -48.5t-29.5 -40.5t-41 -27.5t-47.5 -10.5q-53 0 -92 38t-39 89z" />
<glyph unicode="&#xa9;" horiz-adv-x="1802" d="M262 662q0 131 50 247.5t138.5 203.5t204 137t248.5 50q137 0 255 -50t202 -137t132 -203.5t48 -247.5q0 -133 -46 -249t-130 -204t-202 -138.5t-259 -50.5q-133 0 -248.5 47.5t-204 132.5t-138.5 203t-50 259zM383 657q0 -115 40 -211t109.5 -165.5t165 -108.5 t207.5 -39q111 0 205 39t162.5 108.5t107.5 166t39 210.5q0 119 -40 217.5t-109.5 169t-163.5 109.5t-203 39t-203 -40t-164.5 -111.5t-111.5 -169t-41 -214.5zM559 655q0 88 29.5 158t79 118t115 73.5t139.5 25.5q78 0 143 -23.5t100 -45.5l-32 -125q-12 6 -33 17 t-48.5 22.5t-61.5 18.5t-70 7q-41 0 -81 -14.5t-71 -44t-49.5 -74.5t-18.5 -109q0 -98 61.5 -162.5t160.5 -64.5q68 0 121 21.5t100 50.5l37 -123q-45 -33 -115 -55.5t-145 -22.5q-80 0 -146.5 27.5t-115 76t-74 112t-25.5 136.5z" />
<glyph unicode="&#xaa;" horiz-adv-x="962" d="M68 631l366 782h92l369 -782h-203l-57 127h-311l-54 -127h-202zM389 907h180l-86 195h-10z" />
<glyph unicode="&#xab;" horiz-adv-x="1310" d="M172 459v18l416 463l119 -92l-261 -377l254 -377l-122 -102zM602 459v18l416 463l119 -92l-260 -377l253 -377l-122 -102z" />
<glyph unicode="&#xac;" d="M68 502v139h936v-535h-140v396h-796z" />
<glyph unicode="&#xad;" horiz-adv-x="880" d="M184 371v239h512v-239h-512z" />
<glyph unicode="&#xae;" horiz-adv-x="1331" d="M207 965q0 98 36 182t98 145.5t146 96t179 34.5q98 0 182 -34.5t145.5 -96t96 -145.5t34.5 -182t-35.5 -182.5t-98 -146t-146.5 -96t-178 -34.5t-178.5 32.5t-146.5 93t-98 145t-36 188.5zM313 963q0 -80 27 -145.5t74 -113t111.5 -73t142.5 -25.5q72 0 135 25.5 t111.5 73t76 113t27.5 145.5t-27.5 146.5t-76 113.5t-113 73.5t-135.5 26.5q-82 0 -146.5 -28.5t-111 -78t-71 -114.5t-24.5 -139zM496 725v510h170q86 0 132 -38t46 -110q0 -53 -32 -93t-93 -50l178 -211v-8h-111l-174 213h-16v-213h-100zM596 1026h82q29 0 47 14t18 47 q0 31 -20.5 45.5t-50.5 14.5h-76v-121z" />
<glyph unicode="&#xaf;" horiz-adv-x="1024" d="M262 928v133h500v-133h-500z" />
<glyph unicode="&#xb0;" horiz-adv-x="860" d="M137 1128q0 61 23.5 114.5t63.5 93.5t93.5 63.5t112.5 23.5q61 0 114.5 -23.5t93.5 -63.5t63.5 -93t23.5 -115q0 -59 -23.5 -112t-63.5 -93t-93 -63.5t-115 -23.5q-59 0 -112.5 23.5t-93.5 63.5t-63.5 93t-23.5 112zM276 1128q0 -68 42 -117.5t110 -49.5q70 0 113 50 t43 117q0 70 -43 121t-113 51q-68 0 -110 -51t-42 -121z" />
<glyph unicode="&#xb1;" d="M88 57v164h909v-164h-909zM88 719v164h373v393h164v-393h372v-164h-372v-393h-164v393h-373z" />
<glyph unicode="&#xb2;" horiz-adv-x="696" d="M61 928q98 86 168 151.5t113 117.5t63.5 96t20.5 87q0 45 -27.5 66.5t-74.5 21.5q-49 0 -104.5 -20.5t-94.5 -42.5l-27 154q33 23 101.5 48t152.5 25q106 0 180 -49t74 -162q0 -92 -69.5 -199.5t-198.5 -211.5l6 -9l262 15v-166h-536z" />
<glyph unicode="&#xb3;" horiz-adv-x="696" d="M98 1044h4q100 -47 197 -47q59 0 97 20.5t38 72.5q0 35 -28.5 58t-81.5 19l-154 -6l10 162l137 -6q43 -4 73 19.5t30 58.5q0 41 -31 57t-76 16q-53 0 -97 -15t-71 -30h-8l10 174q27 10 76 22.5t121 12.5q111 0 183.5 -50t72.5 -150q0 -68 -37 -112t-94 -65v-10 q68 -23 106.5 -71t38.5 -109q0 -68 -28.5 -113t-73.5 -71.5t-97.5 -36.5t-97.5 -10q-72 0 -123 10t-92 30z" />
<glyph unicode="&#xb4;" horiz-adv-x="1024" d="M354 928v16l197 336h274v-20l-305 -332h-166z" />
<glyph unicode="&#xb6;" horiz-adv-x="1495" d="M199 940q0 104 36.5 188t103.5 142.5t157 90.5t196 32h664v-168h-121v-1547h-205v1547h-112v-1547h-205v820q-119 0 -214.5 30.5t-162 88t-102 139.5t-35.5 184zM496 942q0 -119 56 -192.5t161 -73.5v549q-96 0 -156.5 -78t-60.5 -205z" />
<glyph unicode="&#xb7;" horiz-adv-x="737" d="M211 567q0 66 46 112t112 46t111.5 -46t45.5 -112t-46 -111.5t-111 -45.5q-66 0 -112 45.5t-46 111.5z" />
<glyph unicode="&#xb8;" horiz-adv-x="1024" d="M338 -195l119 236h133l-78 -154q92 0 158.5 -33.5t66.5 -109.5q0 -78 -93 -132t-251 -71l-16 82q72 10 120 37t48 70q0 35 -34 50t-81 15q-16 0 -42 -1t-40 -3z" />
<glyph unicode="&#xb9;" horiz-adv-x="696" d="M141 1593l301 31l19 -14v-760h-174v604l-140 -16z" />
<glyph unicode="&#xba;" horiz-adv-x="1024" d="M100 1014q0 92 34 167.5t91.5 130t132 83t156.5 28.5q80 0 153.5 -28.5t131 -81.5t91.5 -129t34 -170q0 -78 -31 -148.5t-85 -124t-130 -86t-164 -32.5t-164 29.5t-131 82.5t-87 124t-32 155zM297 1016q0 -41 14.5 -81t42 -70.5t68.5 -50t94 -19.5q49 0 88 19.5t66.5 50 t42 70.5t14.5 81q0 51 -17.5 94t-46 75t-68.5 49t-83 17q-41 0 -80 -15t-68.5 -46t-48 -75t-18.5 -99z" />
<glyph unicode="&#xbb;" horiz-adv-x="1310" d="M174 848l119 92l416 -463v-18l-406 -467l-123 102l254 377zM604 848l119 92l416 -463v-18l-406 -467l-123 102l254 377z" />
<glyph unicode="&#xbc;" horiz-adv-x="1617" d="M203 1389l301 30l18 -14v-760h-174v604l-139 -16zM276 -39l500 746l461 733l104 -64l-485 -714l-475 -768zM918 197l307 487h186v-420l82 2v-149h-82v-199h-176v199h-299zM1098 268l6 -12l131 4l4 229h-8z" />
<glyph unicode="&#xbd;" horiz-adv-x="1617" d="M203 1389l301 30l18 -14v-760h-174v604l-139 -16zM276 -39l500 746l461 733l104 -64l-485 -714l-475 -768zM973 -4q98 86 167.5 151.5t112.5 117.5t63.5 96.5t20.5 87.5q0 45 -27.5 66.5t-74.5 21.5q-49 0 -104.5 -20.5t-94.5 -43.5l-26 154q33 23 101.5 48t152.5 25 q106 0 180 -49t74 -162q0 -92 -70 -199.5t-199 -211.5l6 -8l263 14v-166h-537z" />
<glyph unicode="&#xbe;" horiz-adv-x="1617" d="M160 840h4q100 -47 196 -47q59 0 97.5 20.5t38.5 71.5q0 35 -29 58.5t-82 19.5l-154 -7l11 162l137 -6q43 -4 72.5 19.5t29.5 58.5q0 41 -30.5 57.5t-75.5 16.5q-53 0 -97.5 -15.5t-70.5 -29.5h-8l10 174q27 10 76 22t121 12q111 0 183.5 -50t72.5 -150q0 -68 -37 -112 t-95 -64v-11q68 -23 107 -70.5t39 -109.5q0 -68 -29 -113t-74 -71.5t-97 -36.5t-97 -10q-72 0 -123 10t-92 31zM276 -39l500 746l461 733l104 -64l-485 -714l-475 -768zM918 197l307 487h186v-420l82 2v-149h-82v-199h-176v199h-299zM1098 268l6 -12l131 4l4 229h-8z" />
<glyph unicode="&#xbf;" horiz-adv-x="1105" d="M164 139q0 100 43 176t108.5 128.5t146.5 83t156 42.5v183h226v-349q-74 -6 -145.5 -20t-128 -43t-91.5 -77t-35 -118q0 -78 57.5 -121.5t155.5 -43.5q123 0 238 51h18l-18 -224q-35 -14 -102.5 -30.5t-159.5 -16.5q-113 0 -200 28t-147.5 79t-91 119.5t-30.5 152.5z M571 1040q0 66 46.5 112t111.5 46q66 0 112 -46t46 -112t-46 -111.5t-112 -45.5t-112 46t-46 111z" />
<glyph unicode="&#xc0;" horiz-adv-x="1495" d="M90 0l572 1393h163l580 -1393h-297l-107 272h-507l-107 -272h-297zM414 1765v21h295l196 -254v-16h-186zM582 510h329l-157 428h-15z" />
<glyph unicode="&#xc1;" horiz-adv-x="1495" d="M90 0l572 1393h163l580 -1393h-297l-107 272h-507l-107 -272h-297zM582 510h329l-157 428h-15zM590 1516v16l196 254h295v-21l-305 -249h-186z" />
<glyph unicode="&#xc2;" horiz-adv-x="1495" d="M90 0l572 1393h163l580 -1393h-297l-107 272h-507l-107 -272h-297zM410 1516v16l268 254h145l269 -254v-16h-187l-155 118l-154 -118h-186zM582 510h329l-157 428h-15z" />
<glyph unicode="&#xc3;" horiz-adv-x="1495" d="M90 0l572 1393h163l580 -1393h-297l-107 272h-507l-107 -272h-297zM432 1530q0 129 59.5 197.5t143.5 68.5q41 0 73.5 -17.5t59.5 -38t50.5 -37.5t47.5 -17q35 0 53.5 32.5t18.5 73.5h143q0 -53 -14 -101.5t-41 -85t-63.5 -58t-81.5 -21.5q-43 0 -75 17.5t-56.5 36.5 t-47 36.5t-49.5 17.5q-39 0 -60.5 -30.5t-21.5 -73.5h-139zM582 510h329l-157 428h-15z" />
<glyph unicode="&#xc4;" horiz-adv-x="1495" d="M90 0l572 1393h163l580 -1393h-297l-107 272h-507l-107 -272h-297zM436 1640q0 53 40 92.5t91 39.5q53 0 91 -39.5t38 -92.5q0 -51 -37.5 -89t-91.5 -38q-51 0 -91 38t-40 89zM582 510h329l-157 428h-15zM799 1640q0 53 39 92.5t92 39.5q25 0 47 -10.5t40.5 -29t30 -42 t11.5 -50.5q0 -25 -11.5 -48t-30 -40.5t-41 -28t-46.5 -10.5q-53 0 -92 38t-39 89z" />
<glyph unicode="&#xc5;" horiz-adv-x="1495" d="M90 0l572 1393h163l580 -1393h-297l-107 272h-507l-107 -272h-297zM516 1708q0 49 18.5 91t49 73t72.5 49t92 18q49 0 91 -18t72.5 -49t49 -73t18.5 -91t-18.5 -91t-49 -73t-72.5 -49t-91 -18t-91.5 18t-73 49t-49 73t-18.5 91zM582 510h329l-157 428h-15zM651 1708 q0 -43 25.5 -72.5t68.5 -29.5q41 0 69 29.5t28 72.5q0 41 -28 74t-69 33q-43 0 -68.5 -33t-25.5 -74z" />
<glyph unicode="&#xc6;" horiz-adv-x="2007" d="M70 0l915 1393h834v-254h-547v-301h491v-254h-491v-330h569v-254h-846v272h-454l-174 -272h-297zM694 510h301v444h-14z" />
<glyph unicode="&#xc7;" horiz-adv-x="1474" d="M145 664q0 172 56.5 311t155 239.5t229.5 154.5t282 54q145 0 261 -38.5t206 -94.5l-71 -252h-13q-59 49 -160.5 87t-224.5 38q-96 0 -176 -31.5t-136 -94t-88 -154.5t-32 -211q0 -102 37 -184t97.5 -139.5t139 -88.5t164.5 -31q119 0 213.5 32t174.5 95h12l82 -227 q-41 -35 -98.5 -64.5t-123 -51t-134 -33t-130.5 -11.5h-4l-41 -82q92 0 159 -33.5t67 -109.5q0 -78 -93.5 -132t-250.5 -71l-17 82q72 10 120 37t48 70q0 35 -34 50t-81 15q-16 0 -41.5 -1t-40.5 -3l-10 14l88 175q-135 20 -243.5 81.5t-186.5 152.5t-120 206t-42 244z" />
<glyph unicode="&#xc8;" horiz-adv-x="1228" d="M217 0v1393h823v-254h-546v-301h491v-254h-491v-330h569v-254h-846zM293 1765v21h295l196 -254v-16h-186z" />
<glyph unicode="&#xc9;" horiz-adv-x="1228" d="M217 0v1393h823v-254h-546v-301h491v-254h-491v-330h569v-254h-846zM469 1516v16l197 254h295v-21l-306 -249h-186z" />
<glyph unicode="&#xca;" horiz-adv-x="1228" d="M217 0v1393h823v-254h-546v-301h491v-254h-491v-330h569v-254h-846zM289 1516v16l268 254h145l269 -254v-16h-187l-155 118l-154 -118h-186z" />
<glyph unicode="&#xcb;" horiz-adv-x="1228" d="M217 0v1393h823v-254h-546v-301h491v-254h-491v-330h569v-254h-846zM315 1640q0 53 40 92.5t91 39.5q53 0 91 -39.5t38 -92.5q0 -51 -37.5 -89t-91.5 -38q-51 0 -91 38t-40 89zM678 1640q0 53 39 92.5t92 39.5q25 0 47.5 -10.5t40.5 -29t29.5 -42t11.5 -50.5 q0 -25 -11.5 -48t-29.5 -40.5t-40.5 -28t-47.5 -10.5q-53 0 -92 38t-39 89z" />
<glyph unicode="&#xcc;" horiz-adv-x="716" d="M25 1765v21h294l197 -254v-16h-186zM221 0v1393h277v-1393h-277z" />
<glyph unicode="&#xcd;" horiz-adv-x="716" d="M201 1516v16l196 254h295v-21l-305 -249h-186zM221 0v1393h277v-1393h-277z" />
<glyph unicode="&#xce;" horiz-adv-x="716" d="M20 1516v16l269 254h145l268 -254v-16h-186l-156 118l-153 -118h-187zM221 0v1393h277v-1393h-277z" />
<glyph unicode="&#xcf;" horiz-adv-x="716" d="M47 1640q0 53 40 92.5t91 39.5q53 0 91 -39.5t38 -92.5q0 -51 -38 -89t-91 -38q-51 0 -91 38t-40 89zM221 0v1393h277v-1393h-277zM410 1640q0 53 38.5 92.5t92.5 39.5q25 0 47 -10.5t40.5 -29t30 -42t11.5 -50.5q0 -25 -11.5 -48t-30 -40.5t-41 -28t-46.5 -10.5 q-53 0 -92 38t-39 89z" />
<glyph unicode="&#xd0;" horiz-adv-x="1515" d="M96 618v146h121v629h418q160 0 295 -46.5t232.5 -136.5t152.5 -222t55 -304q0 -154 -56.5 -279.5t-154.5 -216t-230 -139.5t-282 -49h-430v618h-121zM494 254h145q94 0 175 30.5t141.5 88t94 137.5t33.5 178q0 119 -39.5 204t-101 140t-137.5 81t-148 26h-163v-375h274 v-146h-274v-364z" />
<glyph unicode="&#xd1;" horiz-adv-x="1699" d="M217 0v1393h178l801 -885h12v885h275v-1393h-172l-807 895h-10v-895h-277zM535 1530q0 129 59 197.5t143 68.5q41 0 74 -17.5t59.5 -38t50 -37.5t48.5 -17q35 0 53 32.5t18 73.5h144q0 -53 -14.5 -101.5t-41 -85t-63.5 -58t-82 -21.5q-43 0 -74.5 17.5t-56.5 36.5 t-47.5 36.5t-48.5 17.5q-39 0 -60.5 -30.5t-21.5 -73.5h-139z" />
<glyph unicode="&#xd2;" horiz-adv-x="1699" d="M145 686q0 166 59.5 301t158 232.5t226.5 150.5t263 53q139 0 266 -52t224.5 -148.5t154.5 -232.5t57 -304q0 -160 -55 -291t-151.5 -226t-224.5 -147.5t-271 -52.5q-141 0 -270 49.5t-225.5 142.5t-154 226t-57.5 299zM434 690q0 -115 37 -202t95.5 -144t133 -86 t152.5 -29q92 0 169 34t132 94.5t85 145.5t30 187q0 109 -32 196t-88 148.5t-133 95t-165 33.5q-86 0 -162 -33.5t-132 -95t-89 -148.5t-33 -196zM516 1765v21h295l197 -254v-16h-187z" />
<glyph unicode="&#xd3;" horiz-adv-x="1699" d="M145 686q0 166 59.5 301t158 232.5t226.5 150.5t263 53q139 0 266 -52t224.5 -148.5t154.5 -232.5t57 -304q0 -160 -55 -291t-151.5 -226t-224.5 -147.5t-271 -52.5q-141 0 -270 49.5t-225.5 142.5t-154 226t-57.5 299zM434 690q0 -115 37 -202t95.5 -144t133 -86 t152.5 -29q92 0 169 34t132 94.5t85 145.5t30 187q0 109 -32 196t-88 148.5t-133 95t-165 33.5q-86 0 -162 -33.5t-132 -95t-89 -148.5t-33 -196zM692 1516v16l197 254h295v-21l-305 -249h-187z" />
<glyph unicode="&#xd4;" horiz-adv-x="1699" d="M145 686q0 166 59.5 301t158 232.5t226.5 150.5t263 53q139 0 266 -52t224.5 -148.5t154.5 -232.5t57 -304q0 -160 -55 -291t-151.5 -226t-224.5 -147.5t-271 -52.5q-141 0 -270 49.5t-225.5 142.5t-154 226t-57.5 299zM434 690q0 -115 37 -202t95.5 -144t133 -86 t152.5 -29q92 0 169 34t132 94.5t85 145.5t30 187q0 109 -32 196t-88 148.5t-133 95t-165 33.5q-86 0 -162 -33.5t-132 -95t-89 -148.5t-33 -196zM512 1516v16l268 254h146l268 -254v-16h-186l-156 118l-154 -118h-186z" />
<glyph unicode="&#xd5;" horiz-adv-x="1699" d="M145 686q0 166 59.5 301t158 232.5t226.5 150.5t263 53q139 0 266 -52t224.5 -148.5t154.5 -232.5t57 -304q0 -160 -55 -291t-151.5 -226t-224.5 -147.5t-271 -52.5q-141 0 -270 49.5t-225.5 142.5t-154 226t-57.5 299zM434 690q0 -115 37 -202t95.5 -144t133 -86 t152.5 -29q92 0 169 34t132 94.5t85 145.5t30 187q0 109 -32 196t-88 148.5t-133 95t-165 33.5q-86 0 -162 -33.5t-132 -95t-89 -148.5t-33 -196zM535 1530q0 129 59 197.5t143 68.5q41 0 74 -17.5t59.5 -38t50 -37.5t48.5 -17q35 0 53 32.5t18 73.5h144q0 -53 -14.5 -101.5 t-41 -85t-63.5 -58t-82 -21.5q-43 0 -74.5 17.5t-56.5 36.5t-47.5 36.5t-48.5 17.5q-39 0 -60.5 -30.5t-21.5 -73.5h-139z" />
<glyph unicode="&#xd6;" horiz-adv-x="1699" d="M145 686q0 166 59.5 301t158 232.5t226.5 150.5t263 53q139 0 266 -52t224.5 -148.5t154.5 -232.5t57 -304q0 -160 -55 -291t-151.5 -226t-224.5 -147.5t-271 -52.5q-141 0 -270 49.5t-225.5 142.5t-154 226t-57.5 299zM434 690q0 -115 37 -202t95.5 -144t133 -86 t152.5 -29q92 0 169 34t132 94.5t85 145.5t30 187q0 109 -32 196t-88 148.5t-133 95t-165 33.5q-86 0 -162 -33.5t-132 -95t-89 -148.5t-33 -196zM539 1640q0 53 39.5 92.5t91.5 39.5q53 0 91 -39.5t38 -92.5q0 -51 -38 -89t-91 -38q-51 0 -91 38t-40 89zM901 1640 q0 53 39 92.5t92 39.5q25 0 47.5 -10.5t41 -29t29.5 -42t11 -50.5q0 -25 -11 -48t-29.5 -40.5t-41 -28t-47.5 -10.5q-53 0 -92 38t-39 89z" />
<glyph unicode="&#xd7;" d="M100 279l326 327l-326 328l115 115l328 -326l327 326l115 -115l-326 -328l326 -327l-115 -115l-327 325l-328 -325z" />
<glyph unicode="&#xd8;" horiz-adv-x="1699" d="M145 686q0 166 59.5 301t158 232.5t226.5 150.5t263 53q106 0 205.5 -30.5t185.5 -87.5l115 155l90 -57l-123 -166q104 -98 166.5 -237.5t62.5 -313.5q0 -160 -55 -291t-151.5 -226t-224.5 -147.5t-271 -52.5q-215 0 -385 107l-117 -158l-90 57l121 164 q-109 92 -172.5 230.5t-63.5 316.5zM434 690q0 -106 31 -187t82 -138l536 725q-102 74 -233 73q-86 0 -162 -33.5t-132 -95t-89 -148.5t-33 -196zM629 295q51 -35 107.5 -50.5t115.5 -15.5q92 0 169 34t132 94.5t85 145.5t30 187q0 100 -29 183t-78 143z" />
<glyph unicode="&#xd9;" horiz-adv-x="1576" d="M217 485v908h277v-854q0 -63 16 -118.5t51 -97.5t91.5 -67t135.5 -25q59 0 113.5 16.5t95.5 54.5t64.5 98.5t23.5 148.5v844h275v-879q0 -106 -35 -204.5t-105.5 -174.5t-178 -121t-253.5 -45q-180 0 -291.5 50.5t-174 126t-84 166.5t-21.5 173zM455 1765v21h295 l196 -254v-16h-186z" />
<glyph unicode="&#xda;" horiz-adv-x="1576" d="M217 485v908h277v-854q0 -63 16 -118.5t51 -97.5t91.5 -67t135.5 -25q59 0 113.5 16.5t95.5 54.5t64.5 98.5t23.5 148.5v844h275v-879q0 -106 -35 -204.5t-105.5 -174.5t-178 -121t-253.5 -45q-180 0 -291.5 50.5t-174 126t-84 166.5t-21.5 173zM631 1516v16l196 254h295 v-21l-305 -249h-186z" />
<glyph unicode="&#xdb;" horiz-adv-x="1576" d="M217 485v908h277v-854q0 -63 16 -118.5t51 -97.5t91.5 -67t135.5 -25q59 0 113.5 16.5t95.5 54.5t64.5 98.5t23.5 148.5v844h275v-879q0 -106 -35 -204.5t-105.5 -174.5t-178 -121t-253.5 -45q-180 0 -291.5 50.5t-174 126t-84 166.5t-21.5 173zM451 1516v16l268 254h145 l269 -254v-16h-187l-155 118l-154 -118h-186z" />
<glyph unicode="&#xdc;" horiz-adv-x="1576" d="M217 485v908h277v-854q0 -63 16 -118.5t51 -97.5t91.5 -67t135.5 -25q59 0 113.5 16.5t95.5 54.5t64.5 98.5t23.5 148.5v844h275v-879q0 -106 -35 -204.5t-105.5 -174.5t-178 -121t-253.5 -45q-180 0 -291.5 50.5t-174 126t-84 166.5t-21.5 173zM477 1640q0 53 40 92.5 t91 39.5q53 0 91 -39.5t38 -92.5q0 -51 -37.5 -89t-91.5 -38q-51 0 -91 38t-40 89zM840 1640q0 53 39 92.5t92 39.5q25 0 47 -10.5t40.5 -29t30 -42t11.5 -50.5q0 -25 -11.5 -48t-30 -40.5t-41 -28t-46.5 -10.5q-53 0 -92 38t-39 89z" />
<glyph unicode="&#xdd;" horiz-adv-x="1372" d="M86 1393h307l291 -529h4l291 529h307l-461 -799v-594h-276v594zM528 1516v16l197 254h295v-21l-305 -249h-187z" />
<glyph unicode="&#xde;" horiz-adv-x="1187" d="M217 0v1393h277v-236h98q233 0 367.5 -114.5t134.5 -327.5q0 -102 -36 -186.5t-100.5 -143.5t-152.5 -93t-195 -34h-116v-258h-277zM494 508h104q41 0 78 10t65.5 35t46 64t17.5 94q0 100 -60.5 148t-146.5 48h-104v-399z" />
<glyph unicode="&#xdf;" horiz-adv-x="1269" d="M164 0v854q25 31 63.5 64.5t94 61.5t127 46t157.5 18q109 0 190 -23.5t135 -62t80.5 -90t26.5 -104.5q0 -47 -21.5 -72.5t-47 -45t-47 -39t-21.5 -54.5q0 -31 43 -56.5t94.5 -57t94.5 -80t43 -123.5q0 -68 -32 -116t-83 -79t-115.5 -46t-132.5 -15q-104 0 -181 20 t-108 47l49 221q47 -29 92.5 -44t108.5 -15q70 0 103.5 17.5t33.5 39.5q0 29 -44 51.5t-98 50t-98 64.5t-44 94q0 45 20.5 71t46 45.5t46 38.5t20.5 50q0 55 -46 79t-100 24q-70 0 -120 -28t-64 -61v-745h-266z" />
<glyph unicode="&#xe0;" horiz-adv-x="1167" d="M47 0l449 1034h172l452 -1034h-282l-70 182h-371l-67 -182h-283zM270 1458v21h275l196 -336v-17h-166zM469 377h227l-108 297h-13z" />
<glyph unicode="&#xe1;" horiz-adv-x="1167" d="M47 0l449 1034h172l452 -1034h-282l-70 182h-371l-67 -182h-283zM426 1126v17l197 336h274v-21l-305 -332h-166zM469 377h227l-108 297h-13z" />
<glyph unicode="&#xe2;" horiz-adv-x="1167" d="M47 0l449 1034h172l452 -1034h-282l-70 182h-371l-67 -182h-283zM297 1126v17l227 336h125l228 -336v-17h-166l-125 160l-123 -160h-166zM469 377h227l-108 297h-13z" />
<glyph unicode="&#xe3;" horiz-adv-x="1167" d="M47 0l449 1034h172l452 -1034h-282l-70 182h-371l-67 -182h-283zM268 1161q0 129 59.5 197.5t143.5 68.5q41 0 74 -17t59.5 -37.5t50 -38t47.5 -17.5q35 0 53.5 32.5t18.5 73.5h144q0 -53 -14.5 -101t-41 -85t-63.5 -58.5t-82 -21.5q-43 0 -75 17.5t-56.5 37t-47 37 t-49.5 17.5q-39 0 -60 -31t-21 -74h-140zM469 377h227l-108 297h-13z" />
<glyph unicode="&#xe4;" horiz-adv-x="1167" d="M47 0l449 1034h172l452 -1034h-282l-70 182h-371l-67 -182h-283zM272 1272q0 53 40 92t91 39q53 0 91 -39t38 -92q0 -51 -37.5 -89t-91.5 -38q-51 0 -91 38t-40 89zM469 377h227l-108 297h-13zM635 1272q0 53 39 92t92 39q25 0 47.5 -10.5t40.5 -28.5t29.5 -41.5 t11.5 -50.5q0 -25 -11.5 -48.5t-29.5 -41t-40.5 -27.5t-47.5 -10q-53 0 -92 38t-39 89z" />
<glyph unicode="&#xe5;" horiz-adv-x="1167" d="M47 0l449 1034h172l452 -1034h-282l-70 182h-371l-67 -182h-283zM352 1339q0 49 18.5 91.5t49.5 73t73 49t91 18.5t91 -18.5t72.5 -49t49 -72.5t18.5 -92q0 -49 -18.5 -91t-49 -72.5t-72.5 -49t-91 -18.5t-91 18.5t-73 49t-49.5 72.5t-18.5 91zM469 377h227l-108 297h-13 zM487 1339q0 -43 26 -72.5t69 -29.5q41 0 68.5 29.5t27.5 72.5q0 41 -27.5 74t-68.5 33q-43 0 -69 -33t-26 -74z" />
<glyph unicode="&#xe6;" horiz-adv-x="1638" d="M27 0l729 1034h714v-229h-446v-172h385v-221h-385v-183h461v-229h-727v182h-324l-125 -182h-282zM565 377h193v276h-8z" />
<glyph unicode="&#xe7;" horiz-adv-x="1167" d="M113 506q0 131 47 232.5t126 172t179 107.5t207 37q125 0 224 -38t161 -91l-80 -205h-8q-47 41 -124 71.5t-171 28.5q-55 0 -106.5 -19.5t-91.5 -58t-64.5 -97t-24.5 -136.5q0 -72 22.5 -126t61.5 -93t93 -58.5t118 -19.5q86 0 152.5 21.5t134.5 68.5h10l78 -199 q-76 -59 -172.5 -89.5t-202.5 -34.5l-47 -93q92 0 158.5 -33.5t66.5 -109.5q0 -78 -93 -132t-251 -71l-16 82q72 10 120 37t48 70q0 35 -34 50t-81 15q-16 0 -42 -1t-40 -3l-10 14l92 185q-102 16 -183 62t-138.5 116t-88 156t-30.5 182z" />
<glyph unicode="&#xe8;" horiz-adv-x="1064" d="M164 0v1034h733v-229h-467v-172h406v-221h-406v-183h481v-229h-747zM215 1458v21h274l197 -336v-17h-166z" />
<glyph unicode="&#xe9;" horiz-adv-x="1064" d="M164 0v1034h733v-229h-467v-172h406v-221h-406v-183h481v-229h-747zM371 1126v17l196 336h275v-21l-305 -332h-166z" />
<glyph unicode="&#xea;" horiz-adv-x="1064" d="M164 0v1034h733v-229h-467v-172h406v-221h-406v-183h481v-229h-747zM242 1126v17l227 336h125l227 -336v-17h-166l-125 160l-122 -160h-166z" />
<glyph unicode="&#xeb;" horiz-adv-x="1064" d="M164 0v1034h733v-229h-467v-172h406v-221h-406v-183h481v-229h-747zM217 1272q0 53 40 92t91 39q53 0 91 -39t38 -92q0 -51 -38 -89t-91 -38q-51 0 -91 38t-40 89zM580 1272q0 53 38.5 92t92.5 39q25 0 47 -10.5t40.5 -28.5t30 -41.5t11.5 -50.5q0 -25 -11.5 -48.5 t-30 -41t-41 -27.5t-46.5 -10q-53 0 -92 38t-39 89z" />
<glyph unicode="&#xec;" horiz-adv-x="634" d="M-6 1468v21h274l197 -336v-16h-166zM184 0v1034h267v-1034h-267z" />
<glyph unicode="&#xed;" horiz-adv-x="634" d="M150 1137v16l196 336h275v-21l-306 -331h-165zM184 0v1034h267v-1034h-267z" />
<glyph unicode="&#xee;" horiz-adv-x="634" d="M20 1137v16l228 336h125l227 -336v-16h-166l-125 159l-123 -159h-166zM184 0v1034h267v-1034h-267z" />
<glyph unicode="&#xef;" horiz-adv-x="634" d="M-4 1282q0 53 40 92t91 39q53 0 91 -39t38 -92q0 -51 -38 -89t-91 -38q-51 0 -91 38t-40 89zM184 0v1034h267v-1034h-267zM358 1282q0 53 39 92t92 39q25 0 47.5 -10t41 -28.5t29.5 -42t11 -50.5q0 -25 -11 -48.5t-29.5 -40.5t-41 -27.5t-47.5 -10.5q-53 0 -92 38t-39 89 z" />
<glyph unicode="&#xf0;" horiz-adv-x="1187" d="M51 444v146h113v444h366q115 0 214.5 -36.5t173 -105.5t115.5 -164t42 -212q0 -123 -41 -219t-112.5 -162.5t-171 -100.5t-218.5 -34h-368v444h-113zM430 229h121q111 0 181.5 76t70.5 215q0 68 -23.5 120t-60.5 89t-82 56.5t-88 19.5h-119v-215h158v-146h-158v-215z" />
<glyph unicode="&#xf1;" horiz-adv-x="1331" d="M164 0v1034h170l557 -585h10v585h266v-1034h-170l-557 588h-10v-588h-266zM350 1161q0 129 59.5 197.5t143.5 68.5q41 0 73.5 -17t59.5 -37.5t50.5 -38t47.5 -17.5q35 0 53.5 32.5t18.5 73.5h143q0 -53 -14 -101t-40.5 -85t-63.5 -58.5t-82 -21.5q-43 0 -75 17.5 t-56.5 37t-47 37t-49.5 17.5q-39 0 -60.5 -31t-21.5 -74h-139z" />
<glyph unicode="&#xf2;" horiz-adv-x="1331" d="M113 512q0 123 46 223.5t122.5 171t177 109.5t209.5 39q106 0 205.5 -38t176 -107.5t123 -171t46.5 -226.5q0 -109 -39 -206t-112 -170t-174 -114.5t-226 -41.5q-121 0 -223.5 40.5t-176 112.5t-114.5 169t-41 210zM352 1458v21h275l196 -336v-17h-166zM387 516 q0 -59 18.5 -113.5t53.5 -96.5t88 -67.5t125 -25.5q57 0 107 20.5t87 59.5t58.5 95t21.5 128q0 68 -22.5 124t-61.5 96t-89 62.5t-107 22.5q-53 0 -103.5 -20.5t-89.5 -59.5t-62.5 -95t-23.5 -130z" />
<glyph unicode="&#xf3;" horiz-adv-x="1331" d="M113 512q0 123 46 223.5t122.5 171t177 109.5t209.5 39q106 0 205.5 -38t176 -107.5t123 -171t46.5 -226.5q0 -109 -39 -206t-112 -170t-174 -114.5t-226 -41.5q-121 0 -223.5 40.5t-176 112.5t-114.5 169t-41 210zM387 516q0 -59 18.5 -113.5t53.5 -96.5t88 -67.5 t125 -25.5q57 0 107 20.5t87 59.5t58.5 95t21.5 128q0 68 -22.5 124t-61.5 96t-89 62.5t-107 22.5q-53 0 -103.5 -20.5t-89.5 -59.5t-62.5 -95t-23.5 -130zM508 1126v17l197 336h274v-21l-305 -332h-166z" />
<glyph unicode="&#xf4;" horiz-adv-x="1331" d="M113 512q0 123 46 223.5t122.5 171t177 109.5t209.5 39q106 0 205.5 -38t176 -107.5t123 -171t46.5 -226.5q0 -109 -39 -206t-112 -170t-174 -114.5t-226 -41.5q-121 0 -223.5 40.5t-176 112.5t-114.5 169t-41 210zM379 1126v17l227 336h125l227 -336v-17h-165l-125 160 l-123 -160h-166zM387 516q0 -59 18.5 -113.5t53.5 -96.5t88 -67.5t125 -25.5q57 0 107 20.5t87 59.5t58.5 95t21.5 128q0 68 -22.5 124t-61.5 96t-89 62.5t-107 22.5q-53 0 -103.5 -20.5t-89.5 -59.5t-62.5 -95t-23.5 -130z" />
<glyph unicode="&#xf5;" horiz-adv-x="1331" d="M113 512q0 123 46 223.5t122.5 171t177 109.5t209.5 39q106 0 205.5 -38t176 -107.5t123 -171t46.5 -226.5q0 -109 -39 -206t-112 -170t-174 -114.5t-226 -41.5q-121 0 -223.5 40.5t-176 112.5t-114.5 169t-41 210zM350 1161q0 129 59.5 197.5t143.5 68.5q41 0 73.5 -17 t59.5 -37.5t50.5 -38t47.5 -17.5q35 0 53.5 32.5t18.5 73.5h143q0 -53 -14 -101t-40.5 -85t-63.5 -58.5t-82 -21.5q-43 0 -75 17.5t-56.5 37t-47 37t-49.5 17.5q-39 0 -60.5 -31t-21.5 -74h-139zM387 516q0 -59 18.5 -113.5t53.5 -96.5t88 -67.5t125 -25.5q57 0 107 20.5 t87 59.5t58.5 95t21.5 128q0 68 -22.5 124t-61.5 96t-89 62.5t-107 22.5q-53 0 -103.5 -20.5t-89.5 -59.5t-62.5 -95t-23.5 -130z" />
<glyph unicode="&#xf6;" horiz-adv-x="1331" d="M113 512q0 123 46 223.5t122.5 171t177 109.5t209.5 39q106 0 205.5 -38t176 -107.5t123 -171t46.5 -226.5q0 -109 -39 -206t-112 -170t-174 -114.5t-226 -41.5q-121 0 -223.5 40.5t-176 112.5t-114.5 169t-41 210zM354 1272q0 53 40 92t91 39q53 0 91 -39t38 -92 q0 -51 -37.5 -89t-91.5 -38q-51 0 -91 38t-40 89zM387 516q0 -59 18.5 -113.5t53.5 -96.5t88 -67.5t125 -25.5q57 0 107 20.5t87 59.5t58.5 95t21.5 128q0 68 -22.5 124t-61.5 96t-89 62.5t-107 22.5q-53 0 -103.5 -20.5t-89.5 -59.5t-62.5 -95t-23.5 -130zM717 1272 q0 53 39 92t92 39q25 0 47.5 -10.5t40.5 -28.5t29.5 -41.5t11.5 -50.5q0 -25 -11.5 -48.5t-29.5 -41t-41 -27.5t-47 -10q-53 0 -92 38t-39 89z" />
<glyph unicode="&#xf7;" d="M68 535v163h950v-163h-950zM414 281q0 53 37.5 91t91.5 38q53 0 91 -38t38 -91t-38 -91t-91 -38t-91 38t-38 91zM414 952q0 53 37.5 91t91.5 38q53 0 91 -37.5t38 -91.5q0 -53 -38 -91t-91 -38t-91 38t-38 91z" />
<glyph unicode="&#xf8;" horiz-adv-x="1331" d="M113 512q0 123 46 223.5t122.5 171t177 109.5t209.5 39q92 0 177 -28t156 -81l86 96l70 -61l-86 -96q68 -70 108 -163t40 -210q0 -109 -39 -206t-112 -170t-174 -114.5t-226 -41.5q-94 0 -177 24.5t-149 69.5l-102 -113l-64 62l96 106q-76 72 -117.5 170t-41.5 213z M387 516q0 -111 57 -192l392 438q-35 29 -79 44t-91 15q-53 0 -103.5 -20.5t-89.5 -59.5t-62.5 -95t-23.5 -130zM508 260q66 -47 164 -47q57 0 107 20.5t87 59.5t58.5 95t21.5 128q0 98 -49 176z" />
<glyph unicode="&#xf9;" horiz-adv-x="1290" d="M164 434v600h266v-565q0 -131 59.5 -187.5t155.5 -56.5q45 0 85 13.5t68.5 43t45 75.5t16.5 112v565h266v-590q0 -90 -28.5 -174t-89 -148.5t-150.5 -103t-213 -38.5q-141 0 -234.5 38.5t-148.5 103t-76.5 145.5t-21.5 167zM332 1458v21h274l197 -336v-17h-166z" />
<glyph unicode="&#xfa;" horiz-adv-x="1290" d="M164 434v600h266v-565q0 -131 59.5 -187.5t155.5 -56.5q45 0 85 13.5t68.5 43t45 75.5t16.5 112v565h266v-590q0 -90 -28.5 -174t-89 -148.5t-150.5 -103t-213 -38.5q-141 0 -234.5 38.5t-148.5 103t-76.5 145.5t-21.5 167zM487 1126v17l197 336h274v-21l-305 -332h-166z " />
<glyph unicode="&#xfb;" horiz-adv-x="1290" d="M164 434v600h266v-565q0 -131 59.5 -187.5t155.5 -56.5q45 0 85 13.5t68.5 43t45 75.5t16.5 112v565h266v-590q0 -90 -28.5 -174t-89 -148.5t-150.5 -103t-213 -38.5q-141 0 -234.5 38.5t-148.5 103t-76.5 145.5t-21.5 167zM358 1126v17l228 336h125l227 -336v-17h-166 l-125 160l-123 -160h-166z" />
<glyph unicode="&#xfc;" horiz-adv-x="1290" d="M164 434v600h266v-565q0 -131 59.5 -187.5t155.5 -56.5q45 0 85 13.5t68.5 43t45 75.5t16.5 112v565h266v-590q0 -90 -28.5 -174t-89 -148.5t-150.5 -103t-213 -38.5q-141 0 -234.5 38.5t-148.5 103t-76.5 145.5t-21.5 167zM334 1272q0 53 40 92t91 39q53 0 91 -39 t38 -92q0 -51 -38 -89t-91 -38q-51 0 -91 38t-40 89zM696 1272q0 53 39 92t92 39q25 0 47.5 -10.5t41 -28.5t29.5 -41.5t11 -50.5q0 -25 -11 -48.5t-29.5 -41t-41 -27.5t-47.5 -10q-53 0 -92 38t-39 89z" />
<glyph unicode="&#xfd;" d="M37 1034h293l213 -377h8l205 377h293l-373 -628v-406h-266v406zM385 1126v17l197 336h274v-21l-305 -332h-166z" />
<glyph unicode="&#xfe;" horiz-adv-x="1024" d="M164 0v1034h266v-160h115q88 0 161.5 -24.5t127 -70.5t83 -112.5t29.5 -150.5q0 -53 -20.5 -111.5t-68.5 -107.5t-126 -81t-194 -32h-107v-184h-266zM430 399h92q61 0 100.5 32t39.5 91q0 55 -39 94t-107 39h-86v-256z" />
<glyph unicode="&#xff;" d="M37 1034h293l213 -377h8l205 377h293l-373 -628v-406h-266v406zM231 1272q0 53 40 92t91 39q53 0 91.5 -39t38.5 -92q0 -51 -38 -89t-92 -38q-51 0 -91 38t-40 89zM594 1272q0 53 39 92t92 39q25 0 47.5 -10.5t40.5 -28.5t29.5 -41.5t11.5 -50.5q0 -25 -11.5 -48.5 t-29.5 -41t-40.5 -27.5t-47.5 -10q-53 0 -92 38t-39 89z" />
<glyph unicode="&#x152;" horiz-adv-x="2048" d="M145 686q0 166 59.5 301t158 232.5t226.5 150.5t263 53q47 0 94 -8t92 -22h822v-254h-547v-301h491v-254h-491v-330h569v-254h-842q-90 -31 -188 -31q-141 0 -270 49.5t-225.5 142.5t-154 226t-57.5 299zM434 690q0 -115 37 -202t95.5 -144t133 -86t152.5 -29 q96 0 184 39v850q-86 45 -186 45q-86 0 -162 -33.5t-132 -95t-89 -148.5t-33 -196z" />
<glyph unicode="&#x153;" horiz-adv-x="1699" d="M113 512q0 123 46 223.5t122.5 171t177 109.5t209.5 39q39 0 76.5 -5.5t74.5 -15.5h713v-229h-447v-172h385v-221h-385v-183h461v-229h-717q-37 -10 -77.5 -15t-83.5 -5q-121 0 -223.5 40.5t-176 112.5t-114.5 169t-41 210zM387 516q0 -59 18.5 -113.5t53.5 -96.5 t88 -67.5t125 -25.5q82 0 147 41v520q-70 47 -153 47q-53 0 -103.5 -20.5t-89.5 -59.5t-62.5 -95t-23.5 -130z" />
<glyph unicode="&#x178;" horiz-adv-x="1372" d="M86 1393h307l291 -529h4l291 529h307l-461 -799v-594h-276v594zM375 1640q0 53 40 92.5t91 39.5q53 0 91 -39.5t38 -92.5q0 -51 -38 -89t-91 -38q-51 0 -91 38t-40 89zM737 1640q0 53 39 92.5t92 39.5q25 0 47.5 -10.5t41 -29t29.5 -42t11 -50.5q0 -25 -11 -48 t-29.5 -40.5t-41 -28t-47.5 -10.5q-53 0 -92 38t-39 89z" />
<glyph unicode="&#x2c6;" horiz-adv-x="1024" d="M225 928v16l228 336h125l227 -336v-16h-166l-125 159l-123 -159h-166z" />
<glyph unicode="&#x2dc;" horiz-adv-x="1024" d="M197 963q0 129 59 197.5t143 68.5q41 0 74 -17.5t59.5 -38t50 -38t48.5 -17.5q35 0 53 33t18 74h144q0 -53 -14.5 -101.5t-41 -85.5t-63.5 -58.5t-82 -21.5q-43 0 -74.5 17.5t-56.5 37t-47.5 37t-48.5 17.5q-39 0 -60.5 -30.5t-21.5 -73.5h-139z" />
<glyph unicode="&#x2000;" horiz-adv-x="969" />
<glyph unicode="&#x2001;" horiz-adv-x="1939" />
<glyph unicode="&#x2002;" horiz-adv-x="969" />
<glyph unicode="&#x2003;" horiz-adv-x="1939" />
<glyph unicode="&#x2004;" horiz-adv-x="646" />
<glyph unicode="&#x2005;" horiz-adv-x="484" />
<glyph unicode="&#x2006;" horiz-adv-x="323" />
<glyph unicode="&#x2007;" horiz-adv-x="323" />
<glyph unicode="&#x2008;" horiz-adv-x="242" />
<glyph unicode="&#x2009;" horiz-adv-x="387" />
<glyph unicode="&#x200a;" horiz-adv-x="107" />
<glyph unicode="&#x2010;" horiz-adv-x="880" d="M184 371v239h512v-239h-512z" />
<glyph unicode="&#x2011;" horiz-adv-x="880" d="M184 371v239h512v-239h-512z" />
<glyph unicode="&#x2012;" horiz-adv-x="880" d="M184 371v239h512v-239h-512z" />
<glyph unicode="&#x2013;" horiz-adv-x="1167" d="M184 371v239h799v-239h-799z" />
<glyph unicode="&#x2014;" horiz-adv-x="2232" d="M281 393v197h1671v-197h-1671z" />
<glyph unicode="&#x2018;" horiz-adv-x="614" d="M111 868v15l241 510h170v-17l-129 -508h-282z" />
<glyph unicode="&#x2019;" horiz-adv-x="614" d="M92 868v17l129 508h283v-15l-242 -510h-170z" />
<glyph unicode="&#x201a;" horiz-adv-x="614" d="M92 -272l129 508h283v-15l-242 -510h-170v17z" />
<glyph unicode="&#x201c;" horiz-adv-x="1003" d="M111 868v15l241 510h170v-17l-129 -508h-282zM500 868v15l241 510h170v-17l-129 -508h-282z" />
<glyph unicode="&#x201d;" horiz-adv-x="1003" d="M92 868v17l129 508h283v-15l-242 -510h-170zM481 868v17l129 508h283v-15l-242 -510h-170z" />
<glyph unicode="&#x201e;" horiz-adv-x="1003" d="M92 -272l129 508h283v-15l-242 -510h-170v17zM481 -272l129 508h283v-15l-242 -510h-170v17z" />
<glyph unicode="&#x2022;" horiz-adv-x="1167" d="M305 541q0 57 21.5 108t59.5 89t89 59.5t109 21.5q57 0 108 -21.5t89 -59.5t59.5 -89t21.5 -108t-21.5 -108.5t-59.5 -89.5t-89 -59.5t-108 -21.5t-108.5 21.5t-89.5 59.5t-59.5 89.5t-21.5 108.5z" />
<glyph unicode="&#x2026;" horiz-adv-x="2048" d="M211 143q0 66 46 112t112 46t111.5 -46t45.5 -112t-46 -111.5t-111 -45.5q-66 0 -112 45.5t-46 111.5zM866 143q0 66 46 112t112 46t112 -46t46 -112t-46 -111.5t-112 -45.5t-112 45.5t-46 111.5zM1522 143q0 66 46 112t111 46q66 0 112 -46t46 -112t-46 -111.5 t-112 -45.5t-111.5 45.5t-45.5 111.5z" />
<glyph unicode="&#x202f;" horiz-adv-x="387" />
<glyph unicode="&#x2039;" horiz-adv-x="880" d="M172 459v18l416 463l119 -92l-261 -377l254 -377l-122 -102z" />
<glyph unicode="&#x203a;" horiz-adv-x="880" d="M174 848l119 92l416 -463v-18l-406 -467l-123 102l254 377z" />
<glyph unicode="&#x205f;" horiz-adv-x="484" />
<glyph unicode="&#x20ac;" horiz-adv-x="1351" d="M143 516l31 133h68v25v27.5t2 27.5h-101l33 133h82q27 133 87.5 237.5t146.5 176.5t190 109.5t219 37.5q86 0 168 -22.5t148 -65.5l-76 -245q-51 33 -111.5 54t-132.5 19q-55 0 -108.5 -18.5t-99.5 -55t-82 -93t-56 -134.5h528l-32 -133h-517v-47v-33h496l-31 -133h-444 q37 -131 125 -209t215 -78q74 0 134 16.5t116 49.5l86 -232q-154 -94 -340 -94q-125 0 -230.5 41t-186.5 115t-136 174t-78 217h-113z" />
<glyph unicode="&#x2122;" horiz-adv-x="1597" d="M244 1284v109h479v-109h-180v-424h-119v424h-180zM727 860l94 533h72l135 -314h8l133 314h70l94 -533h-121l-41 266h-10l-117 -270h-30l-117 270h-8l-43 -266h-119z" />
<glyph unicode="&#xe000;" horiz-adv-x="1034" d="M0 0v1034h1034v-1034h-1034z" />
</font>
</defs>
</svg>
