<?xml version="1.0" standalone="no"?>
<!DOCTYPE svg PUBLIC "-//W3C//DTD SVG 1.1//EN" "http://www.w3.org/Graphics/SVG/1.1/DTD/svg11.dtd" >
<svg xmlns="http://www.w3.org/2000/svg">
<metadata></metadata>
<defs>
<font id="concourse_t4italic" horiz-adv-x="1003" >
<font-face units-per-em="2048" ascent="1520" descent="-528" />
<missing-glyph horiz-adv-x="450" />
<glyph unicode="&#xfb01;" horiz-adv-x="1126" d="M51 770l15 107l204 38l13 91q12 94 48 164.5t81 118.5t92 75t84 33h196v-99q-141 -20 -221 -89.5t-102 -215.5l-12 -78l202 3l-24 -130l-207 -20l-123 -717l-21 -241l-204 -21l174 981h-195zM686 -10l127 731l10 182l209 25l-125 -713l-14 -205zM862 1274q0 51 36 87 t87 36t87 -36t36 -87t-36 -87t-87 -36t-87 36t-36 87z" />
<glyph unicode="&#xfb02;" horiz-adv-x="1126" d="M51 770l15 107l204 38l13 91q12 94 48 164.5t81 118.5t92 75t84 33h196v-99q-141 -20 -221 -89.5t-102 -215.5l-12 -78l202 3l-24 -130l-207 -20l-123 -717l-21 -241l-204 -21l174 981h-195zM678 -10l139 731l72 469l12 203l221 24l-133 -698l-82 -467l-14 -242z" />
<glyph horiz-adv-x="2048" />
<glyph horiz-adv-x="2048" />
<glyph unicode="&#xd;" horiz-adv-x="450" />
<glyph unicode=" "  horiz-adv-x="450" />
<glyph unicode="&#x09;" horiz-adv-x="450" />
<glyph unicode="&#xa0;" horiz-adv-x="450" />
<glyph unicode="!" horiz-adv-x="634" d="M80 109q0 51 36 86.5t87 35.5t87 -35.5t36 -86.5t-36 -87t-87 -36t-87 36t-36 87zM195 395l133 768l34 219l238 19l8 -15l-153 -475l-152 -505z" />
<glyph unicode="&#x22;" horiz-adv-x="819" d="M205 831l102 562h209l-199 -562h-112zM512 831l102 562h209l-198 -562h-113z" />
<glyph unicode="#" horiz-adv-x="1044" d="M23 530l20 119l246 -43l73 318l-217 39l21 118l225 -41l101 433l106 -25l-98 -426l196 -35l115 467l107 -24l-113 -461l223 -39l-20 -119l-232 39l-78 -318l207 -34l-20 -119l-215 37l-129 -537l-107 25l129 530l-194 35l-131 -569l-107 24l131 563zM397 586l195 -33 l76 317l-197 35z" />
<glyph unicode="$" horiz-adv-x="962" d="M-4 186l84 148q47 -35 104.5 -64.5t128.5 -42.5l129 447l-20 12q-45 27 -89 56.5t-79 67.5t-56.5 86t-21.5 114q0 51 24.5 112.5t77 114.5t132 89t192.5 36h19.5t19.5 -2l49 174l94 -21l-49 -165q63 -16 116.5 -41t96.5 -58l-78 -145q-45 29 -88 50.5t-92 33.5l-115 -400 q143 -86 199.5 -171t56.5 -177q0 -104 -45 -177t-113.5 -118t-150.5 -65.5t-155 -20.5h-2l-60 -206l-94 20l55 197q-88 16 -161.5 50t-108.5 66zM346 1014q0 -45 28.5 -83t114.5 -91l105 358h-2q-111 0 -178.5 -48t-67.5 -136zM412 223q125 8 184 70.5t59 136.5 q0 51 -28.5 94t-100.5 94z" />
<glyph unicode="%" horiz-adv-x="1392" d="M125 1022q0 88 27.5 159.5t73.5 124t105.5 81t123.5 28.5q49 0 92 -19.5t75.5 -54t52 -84t19.5 -108.5q0 -88 -27.5 -159.5t-71.5 -123t-102.5 -79t-119.5 -27.5q-113 0 -180.5 71.5t-67.5 190.5zM137 35l555 706l467 670l117 -51l-522 -662l-502 -716zM274 1028 q0 -59 28 -99t79 -40q66 0 115 69.5t49 184.5q0 66 -28 104.5t-71 38.5q-33 0 -63.5 -20.5t-55 -55t-39 -82t-14.5 -100.5zM725 240q0 88 27.5 159.5t73.5 123.5t105.5 81t123.5 29q49 0 92 -19.5t75.5 -54.5t52 -84t19.5 -108q0 -88 -27.5 -160t-71.5 -123t-102.5 -79 t-119.5 -28q-113 0 -180.5 72t-67.5 191zM874 246q0 -59 28 -99.5t79 -40.5q66 0 115 69.5t49 184.5q0 66 -27.5 105t-70.5 39q-33 0 -64 -20.5t-55.5 -55.5t-39 -82t-14.5 -100z" />
<glyph unicode="&#x26;" horiz-adv-x="1331" d="M47 340q0 100 34 182t89 146.5t123.5 110.5t138.5 75v10q-84 41 -111.5 93.5t-27.5 107.5q0 78 41 143.5t105.5 113.5t144.5 74.5t157 26.5q117 0 195 -26.5t145 -73.5l-96 -162q-51 37 -107.5 62.5t-138.5 25.5q-47 0 -91 -14t-78.5 -39t-56 -59.5t-21.5 -75.5 q0 -63 31.5 -104.5t115.5 -57.5l-23 -129q-94 -16 -163.5 -53t-115.5 -90.5t-68.5 -119t-22.5 -136.5q0 -55 22.5 -97.5t60.5 -71t89 -44t108 -15.5q98 0 179 26t137.5 72t88.5 108.5t32 135.5q0 27 -3.5 50.5t-13.5 44.5l-176 -29l-16 147l495 82l17 -147l-142 -23 q6 -23 9.5 -51.5t3.5 -54.5q0 -127 -52.5 -226.5t-138.5 -168t-197.5 -104.5t-232.5 -36q-106 0 -192 29t-147.5 78t-95.5 116.5t-34 147.5z" />
<glyph unicode="'" horiz-adv-x="512" d="M205 831l102 562h209l-199 -562h-112z" />
<glyph unicode="(" horiz-adv-x="716" d="M78 391q0 184 58.5 353t151.5 312.5t209.5 258.5t233.5 190l82 -125q-113 -74 -210 -181t-169 -239.5t-112.5 -284t-40.5 -313.5q0 -199 56 -350t159 -266l-95 -108q-61 55 -119.5 128.5t-103.5 166t-72.5 206t-27.5 252.5z" />
<glyph unicode=")" horiz-adv-x="716" d="M-137 -238q113 74 210 181.5t168.5 239.5t112.5 283.5t41 313.5q0 199 -56 350.5t-159 266.5l94 108q61 -55 120 -128.5t104 -166t72.5 -207t27.5 -251.5q0 -184 -58.5 -353.5t-151.5 -312.5t-210 -258t-233 -190z" />
<glyph unicode="*" horiz-adv-x="1085" d="M205 719l323 213l-313 115l98 163l256 -198l31 391l203 -43l-154 -369l328 99l20 -199l-348 20l223 -331l-165 -91l-123 388l-269 -314z" />
<glyph unicode="+" horiz-adv-x="1085" d="M68 547v139h405v406h139v-406h406v-139h-406v-406h-139v406h-405z" />
<glyph unicode="," horiz-adv-x="512" d="M-125 -299l156 279l90 200h217v-10l-166 -268l-156 -211h-141v10z" />
<glyph unicode="-" horiz-adv-x="696" d="M39 395l31 172l532 21l-31 -172z" />
<glyph unicode="." horiz-adv-x="552" d="M72 109q0 51 35.5 86.5t87.5 35.5q51 0 86.5 -35.5t35.5 -86.5t-35.5 -87t-86.5 -36t-87 36t-36 87z" />
<glyph unicode="/" horiz-adv-x="942" d="M-156 -328l1043 1762h168l-1045 -1762h-166z" />
<glyph unicode="0" horiz-adv-x="1208" d="M74 483q0 201 48 373t135 298t207 197.5t261 71.5q90 0 168 -32.5t134 -97t88 -163t32 -227.5q0 -195 -47 -365.5t-133 -296.5t-206 -199t-265 -73q-86 0 -162 29t-134.5 91.5t-92 159.5t-33.5 234zM268 485q0 -98 19.5 -164.5t53.5 -106.5t79 -57.5t96 -17.5 q102 0 183 65.5t136.5 173t86 245t30.5 282.5q0 174 -66.5 261t-183.5 87q-102 0 -183 -68.5t-136 -178t-85 -246.5t-30 -275z" />
<glyph unicode="1" horiz-adv-x="921" d="M250 1186l16 168l428 53l29 -25l-217 -1230l-4 -142l-209 -20l215 1231z" />
<glyph unicode="2" horiz-adv-x="1105" d="M-55 66q270 205 445 359.5t277.5 272t142.5 205.5t40 160q0 98 -58.5 144t-156.5 46q-59 0 -113.5 -13t-100.5 -31.5t-82 -38t-54 -29.5l-33 159q14 10 51 31t91.5 41.5t121 35.5t141.5 15q86 0 159 -17t127 -56t85 -98.5t31 -145.5q0 -96 -50.5 -207t-145.5 -228.5 t-233 -241.5t-315 -247l2 -12l605 49l-33 -199l-936 -30z" />
<glyph unicode="3" horiz-adv-x="1064" d="M-27 49l25 168l8 6q78 -41 160 -63.5t174 -22.5q70 0 135.5 18.5t116.5 55.5t82 91t31 126q0 90 -61.5 149.5t-176.5 57.5l-248 -8l49 178l219 -8q57 -2 113.5 16t102 53t73 86.5t27.5 116.5q0 92 -63.5 142.5t-168.5 50.5q-66 0 -141.5 -18.5t-159.5 -53.5l-8 6l-14 143 q66 33 160 58.5t198 25.5q86 0 158 -22.5t125 -64.5t82.5 -103.5t29.5 -138.5q0 -70 -24.5 -131.5t-67.5 -110.5t-100 -83t-125 -46v-14q96 -27 154.5 -106t58.5 -171q0 -119 -52 -206t-134 -144t-181.5 -85t-193.5 -28q-111 0 -201 22.5t-162 57.5z" />
<glyph unicode="4" horiz-adv-x="1126" d="M45 489l762 893l215 21l-143 -830l149 9l-29 -162l-149 -4l-47 -271l-4 -135l-201 -20l72 424l-604 -15zM276 555l5 -12l415 24l105 588l-10 2z" />
<glyph unicode="5" horiz-adv-x="1105" d="M0 -8l51 166q37 -10 90.5 -15.5t100.5 -5.5q131 0 231 30t168 80t102.5 114.5t34.5 136.5q0 76 -32.5 129t-88 85.5t-127 48t-149.5 15.5q-131 0 -217 -12l-8 6l186 612l743 21l-53 -164l-563 -16l-96 -305q31 4 56.5 5t53.5 1q119 0 210 -31t154.5 -85t96.5 -129 t33 -161q0 -139 -63.5 -242.5t-169 -171t-241.5 -101.5t-282 -34q-63 0 -119.5 4t-101.5 19z" />
<glyph unicode="6" horiz-adv-x="1105" d="M66 393q0 209 79.5 389.5t219 316.5t327 221t404.5 103l-56 -182q-135 -8 -248.5 -53t-203.5 -110.5t-153.5 -144.5t-96.5 -157l12 -12q53 27 117.5 41t130.5 14q70 0 138.5 -21.5t123.5 -66.5t89 -115.5t34 -169.5q0 -109 -39 -196.5t-104.5 -150t-153.5 -96.5t-186 -34 q-109 0 -191 33t-136 90.5t-80.5 134t-26.5 166.5zM256 399q0 -125 65.5 -197.5t182.5 -72.5q59 0 112.5 21.5t91 60.5t59 95t19.5 128q-2 63 -24.5 109.5t-58 74t-84 41t-103.5 13.5t-112.5 -14.5t-112.5 -43.5q-16 -53 -25.5 -109t-9.5 -106z" />
<glyph unicode="7" horiz-adv-x="1024" d="M160 1198l28 184l881 21l16 -25q-127 -180 -233.5 -352t-191.5 -341t-147 -336t-101 -339l-234 -20q55 168 126 335t153 325.5t172 304t186 268.5l-6 10z" />
<glyph unicode="8" horiz-adv-x="1085" d="M23 285q0 74 30.5 140.5t80.5 122.5t114.5 101t132.5 76l2 12q-94 68 -136 138.5t-42 144.5q0 80 37 152.5t101.5 128t152.5 89t190 33.5q80 0 147.5 -20.5t116.5 -58t78 -92t29 -124.5q0 -68 -25.5 -127t-71 -109t-105.5 -91t-130 -74l-4 -14q121 -78 177 -157t56 -167 q0 -90 -40 -166t-107.5 -133t-159.5 -89t-196 -32q-98 0 -178 23.5t-135.5 64.5t-85 99.5t-29.5 128.5zM213 309q0 -88 68.5 -137t179.5 -49q66 0 121 20.5t95 54t61.5 76.5t21.5 91q0 45 -18.5 84.5t-50.5 74.5t-75 65.5t-90 59.5q-10 2 -14 8q-150 -59 -224.5 -155 t-74.5 -193zM397 1044q0 -72 49.5 -131t151.5 -125q51 27 99 61t85 74t59.5 86t22.5 99q0 72 -51 120t-149 48q-68 0 -117 -21.5t-83 -54.5t-50.5 -75t-16.5 -81z" />
<glyph unicode="9" horiz-adv-x="1105" d="M119 944q0 90 37 176t102.5 153.5t155.5 108.5t198 41q109 0 189 -34.5t132 -94t77.5 -140.5t25.5 -175q0 -188 -62.5 -351t-174 -292t-268 -222.5t-343.5 -144.5l-49 137l4 11q104 37 201.5 84t179.5 107.5t143.5 136t96.5 171.5l-12 13q-51 -27 -115 -41.5t-123 -14.5 q-78 0 -148.5 21.5t-126 68t-88 116t-32.5 165.5zM313 958q0 -59 21.5 -104t59.5 -75.5t87 -46t105 -15.5q53 0 113.5 14t113.5 43q20 51 25.5 112.5t5.5 106.5q0 125 -65.5 199t-180.5 74q-55 0 -106.5 -22.5t-91.5 -63.5t-63.5 -97.5t-23.5 -124.5z" />
<glyph unicode=":" horiz-adv-x="552" d="M53 109q0 51 36 86.5t87 35.5t87 -35.5t36 -86.5t-36 -87t-87 -36t-87 36t-36 87zM176 764q0 51 36 87t87 36t87 -36t36 -87t-36 -87t-87 -36t-87 36t-36 87z" />
<glyph unicode=";" horiz-adv-x="593" d="M-121 -299l156 279l90 200h217v-10l-166 -268l-156 -211h-141v10zM193 764q0 51 35.5 87t86.5 36t87 -36t36 -87t-35.5 -87t-87.5 -36q-51 0 -86.5 36t-35.5 87z" />
<glyph unicode="&#x3c;" horiz-adv-x="1085" d="M102 594v127l828 389l51 -133l-702 -320l702 -319l-51 -133z" />
<glyph unicode="=" horiz-adv-x="1085" d="M88 334v139h909v-139h-909zM88 743v140h909v-140h-909z" />
<glyph unicode="&#x3e;" horiz-adv-x="1085" d="M104 338l703 319l-703 320l52 133l827 -389v-127l-827 -389z" />
<glyph unicode="?" horiz-adv-x="921" d="M111 109q0 51 35.5 86.5t86.5 35.5t87 -35.5t36 -86.5t-35.5 -87t-87.5 -36q-51 0 -86.5 36t-35.5 87zM150 602q0 80 44 134.5t109.5 93t142 70.5t142 66.5t109.5 79t44 109.5q0 63 -43 91t-102 28q-129 0 -272 -90l-52 127q70 45 157 78.5t187 33.5q141 0 222.5 -70.5 t81.5 -181.5q0 -92 -44.5 -154.5t-110 -108.5t-143 -79.5t-143 -65.5t-109.5 -66.5t-44 -84.5q0 -35 18 -48t51 -13q57 0 111 37l43 -111q-45 -29 -94 -40t-101 -11q-86 0 -145 45t-59 131z" />
<glyph unicode="@" horiz-adv-x="1413" d="M143 604q0 156 42 305.5t125 266t206 187.5t287 71q96 0 178 -21.5t139.5 -68t86 -117t22.5 -170.5l-39 -568q-4 -51 12.5 -87.5t40.5 -59.5l-2 -20l-160 -50l-37 90h-30q-96 -74 -232 -73q-51 0 -98 19.5t-82 56t-56.5 93t-21.5 130.5q0 78 25.5 143.5t71 113.5 t105.5 74.5t128 26.5q49 0 103.5 -4t95.5 -12l10 110q6 72 -11.5 119t-52 75t-86 39t-114.5 11q-104 0 -194.5 -50t-157 -140t-103.5 -216t-37 -276q0 -162 36 -278.5t97.5 -192.5t144.5 -111.5t179 -35.5q82 0 143.5 16t110.5 57h10l57 -120q-70 -59 -162 -84t-161 -25 q-158 0 -273.5 55.5t-192.5 156.5t-115 244.5t-38 319.5zM686 588q0 -86 43 -119t102 -33q47 0 99.5 13.5t93.5 35.5l20 306q-39 8 -81.5 11t-83.5 3q-82 0 -137.5 -55.5t-55.5 -161.5z" />
<glyph unicode="A" horiz-adv-x="1392" d="M-72 6l486 705l465 723h41l159 -748l158 -676l-180 -20l-82 381l-606 -23l-222 -338l-213 -18zM479 516l461 19l-106 512h-15z" />
<glyph unicode="B" horiz-adv-x="1146" d="M41 -10l131 704l80 502l12 186l361 17q16 1 31 0q88 1 156 -19q78 -24 130.5 -68t78.5 -104.5t26 -128.5q0 -59 -20.5 -114.5t-56.5 -101.5t-86 -79.5t-110 -48.5l-2 -10q111 -20 172.5 -99t61.5 -175q0 -109 -44 -190t-120 -136t-177.5 -85t-218.5 -34zM266 156l217 8 q47 2 104.5 13t106.5 41t83 83t34 137q0 51 -19.5 92t-53.5 69q-32 28 -78 42q-35 11 -73 11q-11 0 -22 -1l-219 -16zM375 795l223 16q57 4 103.5 24.5t79 53.5t50 75t17.5 89q0 88 -62 138q-57 46 -148 46h-15l-168 -6z" />
<glyph unicode="C" horiz-adv-x="1351" d="M90 604q0 160 62.5 307.5t171 261t255 182t316.5 68.5q76 0 144.5 -16t127 -41t104.5 -55.5t77 -57.5l-107 -149q-20 18 -54 42.5t-80 47.5t-104.5 39t-125.5 16q-104 0 -208 -44t-188 -127t-136 -201.5t-52 -270.5q0 -102 29.5 -187t84 -146.5t131 -95.5t173.5 -34 q125 0 234.5 41t189.5 105l67 -154q-90 -72 -221 -119t-285 -47q-137 0 -248.5 49.5t-191.5 135.5t-123 201.5t-43 248.5z" />
<glyph unicode="D" horiz-adv-x="1372" d="M41 -10l131 729l72 444l14 219l377 15q12 0 24 1q121 0 230 -37q119 -40 207 -118t139 -188.5t51 -245.5q0 -203 -69.5 -351.5t-181 -247.5t-251 -149.5t-278.5 -56.5zM272 168l199 4q152 4 267.5 55.5t193.5 135t116.5 195.5t38.5 235q0 113 -35.5 197.5t-99 139 t-147.5 80.5q-73 22 -154 22q-13 0 -26 -1l-166 -6l-105 -535z" />
<glyph unicode="E" horiz-adv-x="1044" d="M37 -10l137 739l72 442l14 211l809 21l-39 -168l-581 -14l-82 -422l538 20l-39 -168l-528 -20l-76 -473l623 20l-39 -168z" />
<glyph unicode="F" d="M41 -10l139 733l66 418l18 241l787 21l-39 -168l-553 -10l-84 -426l512 20l-39 -168l-502 -20l-102 -631z" />
<glyph unicode="G" horiz-adv-x="1454" d="M94 573q0 166 58.5 318.5t165 271.5t256 189.5t331.5 70.5q74 0 141.5 -16t124 -42t101.5 -56.5t74 -57.5l-105 -151q-18 23 -53 48.5t-82 48t-104.5 37.5t-120.5 15q-106 0 -211 -44t-188 -128t-134 -203.5t-51 -271.5q0 -104 31.5 -189t88 -145.5t134.5 -92.5t168 -32 q106 0 189 34t139 77l59 332l-379 -17l31 164l569 21l-102 -586q-106 -94 -234.5 -146.5t-302.5 -52.5q-131 0 -239.5 50.5t-187.5 135.5t-123 193.5t-44 224.5z" />
<glyph unicode="H" horiz-adv-x="1413" d="M41 -10l145 760l72 454l6 178l225 21l-114 -604l719 20l59 363l12 200l224 21l-127 -664l-78 -481l-19 -248l-223 -20l123 661l-719 -20l-65 -408l-15 -213z" />
<glyph unicode="I" horiz-adv-x="552" d="M59 -10l142 735l67 438l15 219l225 21l-131 -682l-78 -488l-14 -223z" />
<glyph unicode="J" horiz-adv-x="839" d="M-76 43l82 158q23 -20 59.5 -41t90.5 -21q117 0 190.5 81t106.5 263l129 719l10 180l221 21l-106 -563l-66 -387q-20 -123 -65.5 -214.5t-110 -150.5t-145 -89t-173.5 -30q-66 0 -125 20.5t-98 53.5z" />
<glyph unicode="K" horiz-adv-x="1228" d="M41 -10l135 723l78 477l10 192l223 21l-120 -645h20l633 624l250 17l-2 -21l-703 -673l527 -678l-2 -21l-207 -16l-484 624l-65 -57l-51 -303l-19 -244z" />
<glyph unicode="L" d="M41 -10l133 737l66 410l14 245l227 21l-125 -670l-90 -569l600 24l-39 -168z" />
<glyph unicode="M" horiz-adv-x="1740" d="M-20 -10l534 1423h41l268 -1057h8l748 1057h41l-82 -1210l4 -183l-219 -30l78 868h-15l-628 -878h-21l-225 901h-14l-254 -695l-43 -176z" />
<glyph unicode="N" horiz-adv-x="1536" d="M41 -10l133 698l115 725h61l764 -1036h16l95 526l41 273l12 206l223 21l-112 -586l-136 -837h-61l-766 1034h-16l-66 -383l-63 -404l-15 -217z" />
<glyph unicode="O" horiz-adv-x="1576" d="M90 590q0 176 65.5 328.5t175 264t252 176t294.5 64.5q129 0 240.5 -46t192.5 -129t128 -197.5t47 -249.5q0 -176 -59.5 -329t-165 -264.5t-250 -175t-312.5 -63.5q-127 0 -238.5 46t-193.5 128t-129 196t-47 251zM291 598q0 -84 25.5 -165t77.5 -145.5t130.5 -104.5 t182.5 -40q133 0 239.5 55.5t182 145.5t115.5 208t40 241q0 104 -33.5 188t-91 143.5t-133.5 92t-160 32.5q-104 0 -206.5 -44t-184.5 -128t-133 -204.5t-51 -274.5z" />
<glyph unicode="P" horiz-adv-x="1064" d="M39 -10l135 719l76 469l12 204l344 17q13 1 26 0q75 1 142 -19q78 -24 136.5 -71t92 -120t33.5 -167q0 -109 -45 -191.5t-118.5 -141t-167 -90.5t-191.5 -36l-184 -8l-56 -336l-12 -209zM358 717l174 8q68 4 123.5 30.5t94 66.5t60 89.5t21.5 98.5q0 104 -61 168 q-57 60 -157 59h-13l-143 -6z" />
<glyph unicode="Q" horiz-adv-x="1576" d="M90 590q0 176 65.5 328.5t175 264t252 176t294.5 64.5q129 0 240.5 -46t192.5 -129t128 -197.5t47 -249.5q0 -176 -59.5 -329t-165 -264.5t-250 -175t-312.5 -63.5h-20l-4 -6q39 -35 101.5 -71.5t136 -67.5t152.5 -50q65 -15 128 -15q13 0 27 1l-56 -192 q-100 0 -189 28.5t-170 71.5t-155 94.5t-144.5 97.5t-140 80.5t-139.5 45.5l68 133q-94 84 -148.5 203.5t-54.5 267.5zM291 598q0 -84 25.5 -165t77.5 -145.5t130.5 -104.5t182.5 -40q133 0 239.5 55.5t182 145.5t115.5 208t40 241q0 104 -33.5 188t-91 143.5t-133.5 92 t-160 32.5q-104 0 -206.5 -44t-184.5 -128t-133 -204.5t-51 -274.5z" />
<glyph unicode="R" horiz-adv-x="1167" d="M43 -10l129 710l74 457l20 225l406 15h13q75 1 143 -21q74 -24 128 -71.5t84.5 -117t30.5 -155.5q0 -100 -37 -174t-97 -126t-139 -84t-167 -46l407 -569l-4 -23l-200 -20l-402 588l-96 -11l-60 -364l-10 -193zM365 727l147 14q76 6 141.5 23.5t114.5 50.5t76.5 84 t27.5 127q0 53 -20.5 93t-55 66.5t-81.5 38.5q-41 11 -86 11h-15l-159 -10z" />
<glyph unicode="S" horiz-adv-x="1044" d="M-2 139l121 148q41 -55 116.5 -101.5t174.5 -46.5q129 0 206.5 62.5t77.5 169.5q0 78 -36.5 130t-93 93t-121 78t-121 83t-93 110.5t-36.5 158.5q0 82 33.5 155.5t93 127t139.5 85t170 31.5q129 0 228 -48t159 -120l-115 -137q-23 25 -50.5 48.5t-62 44t-75.5 32.5 t-88 12q-102 0 -169 -61t-67 -154q0 -66 38 -112.5t94.5 -86.5t122 -79t121.5 -89t94 -117t38 -163q0 -102 -39 -181t-106.5 -132t-156.5 -82t-187 -29q-123 0 -227.5 44t-182.5 126z" />
<glyph unicode="T" horiz-adv-x="1146" d="M113 1214l28 168l1088 21l-29 -168l-432 -8l-109 -549l-71 -453l-15 -215l-225 -20l135 702l80 531z" />
<glyph unicode="U" horiz-adv-x="1413" d="M130 297q-7 42 -7 84q0 51 10 104l125 699l14 198l224 21l-174 -883q-12 -62 -12 -113q0 -33 5 -61q13 -72 53 -118t103.5 -67.5t146.5 -21.5q80 0 151 20.5t127 65.5t96 118t57 177l98 643l14 219l223 21l-157 -907q-18 -104 -62.5 -200.5t-120 -168.5t-188.5 -115 t-266 -43q-145 0 -241.5 45t-150 118t-68.5 165z" />
<glyph unicode="V" horiz-adv-x="1249" d="M121 1382l190 21l248 -1006h21l583 985l197 19l8 -15l-848 -1417h-41z" />
<glyph unicode="W" horiz-adv-x="1781" d="M141 1382l197 21l166 -965h16l463 975h53l142 -975h16l483 944l201 19l4 -12l-747 -1420h-62l-131 930h-16l-455 -930h-61z" />
<glyph unicode="X" horiz-adv-x="1208" d="M-80 10l580 690l-353 682l205 21l271 -553l434 532l223 19l8 -21l-561 -669l360 -701l-208 -20l-279 575l-450 -555l-224 -18z" />
<glyph unicode="Y" horiz-adv-x="1208" d="M141 1382l189 21l276 -596h17l456 575l211 19l8 -21l-608 -759l-76 -428l-12 -183l-213 -20l109 631z" />
<glyph unicode="Z" horiz-adv-x="1208" d="M-98 10l1046 1207l-8 12l-745 -35l49 168l1061 41l10 -10l-1053 -1219l8 -12l811 37l-49 -168l-1120 -41z" />
<glyph unicode="[" horiz-adv-x="757" d="M12 -336l181 930l139 889l497 -8l-24 -144l-293 8l-145 -751l-125 -781l309 9l-27 -144z" />
<glyph unicode="\" horiz-adv-x="942" d="M72 1434h161l619 -1762h-160z" />
<glyph unicode="]" horiz-adv-x="757" d="M-113 -328l25 144l293 -9l145 752l125 780l-309 -8l27 144l512 8l-181 -930l-139 -889z" />
<glyph unicode="^" horiz-adv-x="1085" d="M61 643l455 772h55l453 -772l-119 -68l-352 615h-16l-359 -615z" />
<glyph unicode="_" horiz-adv-x="1085" d="M-246 -430l23 143h1186l-23 -143h-1186z" />
<glyph unicode="`" horiz-adv-x="1024" d="M231 1249v21h177l227 -336v-16h-119z" />
<glyph unicode="a" horiz-adv-x="921" d="M18 215q0 68 27 145q49 53 116.5 92.5t143.5 62t155 29.5q33 3 63 2q44 0 85 -5q5 39 5 72q-1 77 -27 121q-38 62 -135 63q-31 0 -66 -9.5t-68.5 -24.5t-64.5 -34.5t-51 -38.5h-6l-60 121q74 61 165 98t189 37q74 0 132.5 -27.5t97.5 -79t55 -123.5q9 -37 9 -79 q0 -38 -7 -80l-55 -354q-3 -16 -2 -34q0 -24 4 -51q8 -48 31 -79l-6 -12l-156 -45q-10 22 -22 62q-10 34 -9 69v12h-8q-53 -55 -132 -98t-167 -58q-98 10 -167 77t-69 169zM184 256q-1 -6 -1 -13q1 -40 23 -74q26 -40 85 -52q78 10 152.5 51t121.5 96l29 150q-42 6 -86 6 h-22q-56 -2 -109 -14.5t-100.5 -38t-83.5 -66.5q-4 -10 -6.5 -22.5t-2.5 -22.5z" />
<glyph unicode="b" d="M16 84l111 594l84 512l14 203l211 24l-117 -626h11q49 55 124.5 102t161.5 55q129 -18 207 -120.5t78 -262.5q0 -129 -44 -237.5t-118.5 -188.5t-176 -124t-218.5 -44q-84 0 -167 27t-161 86zM211 174q27 -25 66.5 -37t89.5 -12q61 0 122.5 27.5t111.5 83t81 139.5 t31 196q0 88 -38 144.5t-97 68.5q-35 0 -74 -14t-78 -38.5t-74 -56.5t-61 -69z" />
<glyph unicode="c" horiz-adv-x="819" d="M20 315q0 141 46.5 258t120 200t165.5 128t183 45q98 0 163.5 -38t106.5 -91l-107 -121q-35 43 -76.5 69t-97.5 26q-57 0 -113.5 -33t-100.5 -91.5t-71.5 -141.5t-27.5 -181q0 -115 52 -165t132 -50q63 0 115.5 25.5t97.5 58.5l66 -123q-57 -59 -144.5 -89t-175.5 -30 q-156 0 -245 93.5t-89 250.5z" />
<glyph unicode="d" d="M20 328q0 129 42 241.5t113 196.5t162 132t191 48q47 0 100.5 -17.5t94.5 -56.5h10l60 332l12 189l217 24l-131 -710l-88 -498l-17 -199l-161 -20l6 170h-8q-53 -61 -137.5 -116.5t-178.5 -74.5q-61 12 -113.5 44t-90 79t-60.5 106.5t-23 129.5zM211 350q0 -98 38 -150.5 t95 -68.5q37 4 78 21.5t81 46t76.5 66.5t61.5 81l68 367q-29 37 -74 55t-98 18q-68 0 -127.5 -33.5t-103.5 -93t-69.5 -138.5t-25.5 -171z" />
<glyph unicode="e" horiz-adv-x="921" d="M20 311q0 125 41 241t110 203t160 139t193 52q68 0 124.5 -23.5t98 -63.5t64.5 -93t23 -111q0 -29 -4.5 -58t-14.5 -58q-51 -43 -124 -76t-154.5 -51.5t-166.5 -24.5q-36 -3 -71 -3q-46 0 -88 5q-4 -31 -4 -58q0 -91 41 -141q53 -66 145 -65q72 0 144.5 30.5t126.5 77.5 h6l49 -137q-66 -57 -160 -91t-192 -34q-74 0 -137.5 23.5t-109.5 67.5t-73 106.5t-27 142.5zM236 522q47 -4 93 -4q71 0 139 10q110 16 196 72q3 16 3 32q-1 20 -5 40q-8 35 -27 62.5t-49.5 44t-73.5 16.5q-51 0 -96 -25t-81 -64.5t-61.5 -88t-37.5 -95.5z" />
<glyph unicode="f" horiz-adv-x="655" d="M51 770l15 107l204 38l13 91q12 94 48 164.5t81 118.5t92 75t84 33h196v-99q-141 -20 -221 -89.5t-102 -215.5l-12 -78l202 3l-24 -130l-207 -20l-123 -717l-21 -241l-204 -21l174 981h-195z" />
<glyph unicode="g" d="M4 -350l68 151h4q94 -61 200 -61q57 0 113.5 19.5t106 69.5t86 137t53.5 220h-10q-59 -72 -141.5 -125t-182.5 -75q-57 12 -108.5 40.5t-89 74.5t-60.5 107.5t-23 137.5q0 117 41 224.5t111 191.5t163 134t195 50q137 0 209 -92h11l41 76l143 -15l-105 -538l-57 -363 q-16 -100 -63 -181t-116 -138t-153 -88t-172 -31q-90 0 -153.5 19.5t-110.5 54.5zM211 354q0 -92 40 -143.5t99 -63.5q72 10 155 71t142 149l68 346q-27 29 -71 51t-103 22q-70 0 -130.5 -35.5t-104.5 -96t-69.5 -138.5t-25.5 -162z" />
<glyph unicode="h" horiz-adv-x="983" d="M0 -10l125 667l84 541l14 195l221 24l-114 -594h10q66 53 143.5 88t188.5 35q47 0 87 -19.5t65.5 -59.5t34.5 -101q4 -24 3 -51q0 -42 -8 -92l-76 -428l-12 -185l-205 -20l105 610q6 36 6 64q0 53 -22 79q-34 39 -109 39q-61 0 -122 -33.5t-118 -93.5l-82 -460l-14 -185z " />
<glyph unicode="i" horiz-adv-x="471" d="M31 -10l127 731l10 182l209 25l-125 -713l-14 -205zM207 1274q0 51 36 87t87 36t87 -36t36 -87t-36 -87t-87 -36t-87 36t-36 87z" />
<glyph unicode="j" horiz-adv-x="471" d="M-115 -362q51 41 84 115.5t58 203.5l129 754l12 192l209 25l-168 -983q-12 -74 -27.5 -128.5t-34 -94t-41 -68.5t-47.5 -53l-174 -21v58zM207 1274q0 51 36 87t87 36t87 -36t36 -87t-36 -87t-87 -36t-87 36t-36 87z" />
<glyph unicode="k" horiz-adv-x="901" d="M-6 -10l209 1206l14 197l211 24l-158 -891h21l383 381l227 21l-2 -21l-428 -415l-4 -21l315 -442v-19l-182 -20l-278 420l-86 -66l-23 -145l-14 -189z" />
<glyph unicode="l" horiz-adv-x="471" d="M23 -10l139 731l71 469l13 203l221 24l-133 -698l-82 -467l-14 -242z" />
<glyph unicode="m" horiz-adv-x="1536" d="M0 -10l115 669l24 248l172 21v-115h11q66 66 137 99.5t149 33.5q92 0 149.5 -38t86.5 -105h10q98 74 178 108.5t174 34.5q47 0 90 -16.5t73 -53t43 -92.5q6 -27 6 -60q0 -35 -7 -77l-76 -432l-16 -205l-205 -20l107 622q4 26 4 48q1 20 -3 36q-8 33 -25 52.5t-42 26.5 t-51 7q-66 0 -132.5 -38.5t-113.5 -84.5l-78 -430l-18 -219l-205 -20l107 622q4 23 4 43q0 23 -6 41q-10 33 -29 52.5t-43.5 26.5t-48.5 7q-63 0 -125 -36.5t-115 -96.5l-80 -428l-16 -211z" />
<glyph unicode="n" horiz-adv-x="983" d="M0 -10l119 680l20 237l172 21v-115h11q80 63 160.5 98t172.5 35q117 0 175 -74q39 -49 40 -136q0 -44 -10 -97l-82 -461l-10 -168l-205 -20l103 602q7 38 7 68q0 15 -2 27q-5 38 -20.5 58.5t-40 28.5t-55.5 8q-70 0 -138.5 -38.5t-115.5 -98.5l-84 -452l-12 -183z" />
<glyph unicode="o" d="M20 348q0 119 41 226.5t111 190.5t161 132t191 49q84 0 154 -27.5t119 -79t76.5 -124t27.5 -160.5q0 -104 -36 -208.5t-101.5 -187.5t-160.5 -135.5t-212 -52.5q-84 0 -151.5 28t-116.5 77t-76 118.5t-27 153.5zM211 365q0 -117 51 -179.5t141 -62.5q63 0 120 32.5t99 90 t66.5 134.5t24.5 163q0 117 -49.5 184.5t-141.5 67.5q-66 0 -122 -37t-98 -98.5t-66.5 -138.5t-24.5 -156z" />
<glyph unicode="p" d="M-78 -418l125 645l72 467l18 226l164 12l-6 -168h10q70 78 142.5 125t168.5 59q47 -8 97.5 -32.5t92.5 -69.5t68.5 -112.5t26.5 -162.5q0 -154 -51 -267.5t-126 -187t-159 -109.5t-149 -36q-55 0 -112.5 18.5t-94.5 63.5h-10l-47 -270l-11 -176zM223 219q23 -51 65 -71.5 t105 -20.5q49 0 105.5 22.5t103.5 73.5t79 135t32 205q0 57 -13.5 97t-33 66t-43 39t-43.5 19q-35 0 -76 -15t-81 -41t-76 -59.5t-60 -70.5z" />
<glyph unicode="q" d="M20 328q0 135 44.5 247.5t116 195.5t163.5 129t188 46q63 0 113.5 -24.5t97.5 -73.5h11l43 86l139 -19l-105 -536l-88 -563l-16 -209l-207 -25l98 568h-10q-59 -66 -135 -115t-164 -66q-53 8 -104 35t-92 72t-67 107.5t-26 144.5zM211 350q0 -86 38 -143t93 -74 q80 10 164 69.5t135 145.5l74 363q-29 35 -76 55t-96 20q-61 0 -122 -29.5t-107 -86t-74.5 -137t-28.5 -183.5z" />
<glyph unicode="r" horiz-adv-x="655" d="M0 -10l123 717l16 200l172 21l-20 -232h14q63 113 158.5 175.5t193.5 62.5h29l-55 -199h-45q-47 -6 -96.5 -31.5t-93.5 -66.5t-82 -95.5t-60 -115.5l-45 -244l-10 -172z" />
<glyph unicode="s" horiz-adv-x="757" d="M-33 102l101 125q45 -47 98 -75.5t117 -28.5q68 0 111.5 30.5t43.5 88.5q0 43 -25.5 73.5t-64.5 57t-85 53.5t-85 60.5t-64.5 78.5t-25.5 109q0 51 22.5 100t62.5 88t97.5 61.5t128.5 22.5q98 0 176 -43t125 -106l-100 -113q-86 111 -199 111q-59 0 -100 -29t-41 -80 q0 -39 25.5 -68.5t64.5 -55t85 -53.5t85 -62.5t64.5 -82t25.5 -112.5q0 -74 -28.5 -126t-75.5 -87t-107.5 -51.5t-122.5 -16.5q-96 0 -179 36t-130 95z" />
<glyph unicode="t" horiz-adv-x="634" d="M37 768l14 109l223 36l21 271l211 53l-62 -324l211 5l-24 -132l-211 -18l-101 -588l-10 -170l-200 -20l139 782z" />
<glyph unicode="u" horiz-adv-x="983" d="M50 156q-4 27 -4 60q0 47 9 103l72 408l12 180l205 21l-106 -580q-9 -48 -9 -84q0 -53 20 -81q34 -46 111 -46q35 0 72 13.5t72 37t63.5 54t46.5 67.5l68 379l18 219l205 21l-121 -703l-18 -215l-170 -20v127h-6q-61 -59 -139 -102.5t-177 -43.5q-55 0 -102 18.5 t-79 59.5t-43 107z" />
<glyph unicode="v" horiz-adv-x="901" d="M47 907l182 21l140 -617h8l344 596l201 19l4 -15l-580 -940h-61z" />
<glyph unicode="w" horiz-adv-x="1310" d="M61 907l185 21l108 -586h8l310 588h47l92 -588h8l297 565l189 19l8 -11l-520 -944h-68l-90 555h-12l-299 -555h-56z" />
<glyph unicode="x" horiz-adv-x="901" d="M-92 0l403 479l-241 418l188 31l168 -330l260 309l207 19l4 -11l-389 -450l258 -445l-188 -30l-183 352l-278 -332l-205 -18z" />
<glyph unicode="y" horiz-adv-x="901" d="M-63 -365q66 43 146.5 147.5t160.5 274.5l-191 850l176 21l140 -654h8l350 633l186 19l9 -17l-498 -864l-121 -227l-113 -213l-253 -25v55z" />
<glyph unicode="z" horiz-adv-x="860" d="M-74 2l619 766l-4 10l-451 -30l45 149l719 41l6 -12l-624 -774l4 -13l508 31l-46 -150l-763 -40z" />
<glyph unicode="{" horiz-adv-x="757" d="M57 496l29 163q55 0 105.5 15.5t88 40t63.5 58.5t32 71q8 51 6 96t-6 89t-6 88t6 95q12 72 43 122t89 81t150.5 45.5t225.5 14.5l-25 -144q-68 0 -121 -6t-90 -23.5t-59.5 -49t-30.5 -83.5q-10 -53 -7 -100t9 -92t10 -86t-2 -78q-6 -41 -32.5 -77t-66.5 -63.5t-90 -45 t-106 -21.5l-10 -51q51 -4 95 -20.5t75 -43t46.5 -62.5t6.5 -81q-6 -37 -24.5 -78t-40 -84t-41 -88t-27.5 -92q-8 -45 -6 -81t25.5 -60.5t76 -36.5t144.5 -12l-27 -144q-135 0 -222 19.5t-134 56.5t-58.5 91.5t1.5 125.5q8 43 26.5 86t38 85t37.5 84t25 83 q16 96 -47.5 144.5t-174.5 48.5z" />
<glyph unicode="|" horiz-adv-x="1085" d="M473 -471v2007h139v-2007h-139z" />
<glyph unicode="}" horiz-adv-x="757" d="M-166 -328l25 144q68 0 121 6t89.5 23.5t59.5 49t31 82.5t6 99.5t-8 93.5t-10.5 86t2.5 78q6 41 32.5 76.5t66.5 63.5t90 45.5t105 21.5l11 51q-51 4 -95.5 20.5t-75 43t-46 62.5t-7.5 81q6 37 24.5 78t40 84t41 88t28.5 92q8 45 6 80.5t-25.5 60.5t-76 37t-144.5 12 l27 144q135 0 222 -19.5t134 -56.5t58.5 -91.5t-1.5 -125.5q-8 -43 -26.5 -86t-38 -85t-38 -84t-24.5 -83q-16 -96 47.5 -144.5t173.5 -48.5l-28 -164q-55 0 -105.5 -15t-88.5 -39.5t-63.5 -58.5t-31.5 -71q-8 -51 -6 -96t6 -89t6 -88t-6 -96q-12 -72 -43 -122t-89 -80.5 t-150.5 -45t-225.5 -14.5z" />
<glyph unicode="~" horiz-adv-x="1085" d="M66 416q0 82 23.5 146.5t62 108.5t91 66.5t107.5 22.5q70 0 123 -32t99 -69.5t87 -69.5t89 -32q66 0 103.5 59.5t37.5 139.5h139q0 -74 -20.5 -137.5t-57.5 -109.5t-89 -71.5t-116 -25.5q-72 0 -124 31.5t-96 68.5t-85 68.5t-90 31.5q-68 0 -110.5 -56t-42.5 -140h-131z " />
<glyph unicode="&#xa1;" horiz-adv-x="634" d="M27 -225l153 475l152 506l108 10l-133 -768l-35 -219l-237 -19zM309 1053q0 51 36 87t87 36t87 -36t36 -87t-36 -87t-87 -36t-87 35.5t-36 87.5z" />
<glyph unicode="&#xa2;" horiz-adv-x="880" d="M86 561q0 125 45 234.5t118 191.5t164 131t181 53l63 224l95 -21l-60 -209q59 -10 108.5 -33.5t92.5 -58.5l-90 -131q-33 27 -73 45.5t-81 24.5l-184 -658h16q66 0 122 24.5t102 57.5l47 -131q-53 -45 -133 -76.5t-158 -31.5h-41l-58 -207l-96 20l58 205 q-113 35 -175.5 125t-62.5 221zM276 571q0 -74 25 -122t70 -70l176 627q-53 -14 -101.5 -52.5t-86 -94.5t-60.5 -129t-23 -159z" />
<glyph unicode="&#xa3;" horiz-adv-x="1024" d="M-2 113q80 61 133 128.5t85 137.5t46 141.5t17 141.5h-185l41 112h144q-2 41 -3.5 81t-1.5 81q0 131 38 224t100.5 151.5t144.5 85t170 26.5q76 0 135.5 -15t101.5 -35.5t67.5 -41t33.5 -31.5l-90 -143q-33 35 -99.5 65.5t-152.5 30.5q-57 0 -105.5 -18t-84 -58 t-55 -104.5t-19.5 -159.5q0 -70 6 -139h323l-40 -112h-279q0 -61 -10 -123t-36 -120.5t-72 -112.5t-115 -103l12 -21q23 12 55.5 24.5t69.5 12.5q59 0 97 -10t70.5 -21.5t69.5 -21.5t92 -10q41 0 80 11t88 44l11 -4l6 -156q-49 -37 -109.5 -54t-105.5 -17q-55 0 -94 13 t-76 29.5t-79 30t-101 13.5q-72 0 -146 -29t-129 -57z" />
<glyph unicode="&#xa4;" horiz-adv-x="1269" d="M162 951q8 26 27.5 46.5t45 29.5t41.5 -7l95 -96q55 41 122.5 63.5t141.5 22.5t139.5 -20.5t118.5 -59.5l88 92q16 18 44 7t50.5 -34.5t32.5 -51.5t-6 -44l-92 -88q37 -53 57 -117.5t20 -136.5q0 -76 -22.5 -142.5t-63.5 -123.5l99 -94q18 -18 10 -44t-27.5 -47.5 t-45 -30.5t-42.5 9l-102 102q-113 -82 -258 -82q-72 0 -136.5 19.5t-117.5 54.5l-86 -90q-18 -18 -46 -10t-51.5 29.5t-32.5 48t9 45.5l90 88q-82 112 -82 268q0 72 21.5 138.5t60.5 121.5l-92 90q-18 18 -10 44zM326 555q0 -72 22.5 -131t62.5 -104.5t97 -70t129 -24.5 q63 0 119.5 24.5t96.5 70t63.5 104.5t23.5 131q0 74 -23.5 135.5t-64.5 104.5t-96.5 67.5t-120.5 24.5q-74 0 -131.5 -25.5t-97 -71t-60 -105.5t-20.5 -130z" />
<glyph unicode="&#xa5;" horiz-adv-x="1187" d="M168 1382l199 11l251 -586h17l432 575l229 21l4 -8l-610 -774l-14 -74h215l-21 -113h-215l-16 -100h213l-18 -113h-216l-12 -65l-4 -146l-213 -20l39 231h-213l18 113h216l16 100h-213l20 113h213l13 74z" />
<glyph unicode="&#xa6;" horiz-adv-x="1085" d="M473 246h139v-717h-139v717zM473 819v717h139v-717h-139z" />
<glyph unicode="&#xa7;" horiz-adv-x="1167" d="M-10 -211l92 158q59 -43 141 -75t193 -32q70 0 118 17.5t78.5 45t44 61.5t13.5 69q0 57 -47.5 107t-163.5 98q-166 70 -246 152.5t-80 199.5q0 172 203 319q-84 76 -84 172q0 61 27.5 122t83 110t136.5 79.5t189 30.5q129 0 223.5 -37.5t147.5 -78.5l-86 -148 q-57 41 -131 68.5t-164 27.5q-111 0 -170 -40.5t-59 -106.5q0 -20 12 -42t40.5 -45.5t77 -51t119.5 -58.5q172 -76 237.5 -166t65.5 -194q0 -98 -56 -175t-148 -136q41 -45 58 -94.5t17 -98.5q0 -96 -39.5 -168t-105 -118t-148.5 -68.5t-169 -22.5q-156 0 -265.5 38 t-154.5 81zM326 621q0 -59 59 -119t190 -115q66 -29 113 -57q66 39 91.5 96t25.5 109q0 68 -49 119t-174 110q-80 35 -133 67q-55 -45 -89 -98t-34 -112z" />
<glyph unicode="&#xa8;" horiz-adv-x="1024" d="M262 1038q0 41 30 71t70 30q41 0 71 -30t30 -71t-30 -70.5t-71 -29.5t-70.5 29.5t-29.5 70.5zM582 1038q0 41 29.5 71t70.5 30t70.5 -30t29.5 -71t-29.5 -70.5t-70.5 -29.5t-70.5 29.5t-29.5 70.5z" />
<glyph unicode="&#xa9;" horiz-adv-x="1617" d="M180 662q0 129 49.5 243.5t134.5 199.5t199.5 135t247.5 50q139 0 254 -50t198 -135t129 -199.5t46 -243.5t-45 -244t-128 -201t-199 -136t-255 -50q-135 0 -250 46t-200 130t-133 200t-48 255zM281 657q0 -117 39.5 -215t111.5 -168.5t169 -110.5t212 -40q113 0 209 40 t165.5 110.5t109.5 169t40 214.5q0 121 -41 221.5t-111.5 172t-166.5 111.5t-207 40q-109 0 -205 -41t-168.5 -113.5t-114.5 -172t-42 -218.5zM467 655q0 88 28.5 158t77 118t112 73.5t134.5 25.5q78 0 143.5 -23.5t100.5 -45.5l-23 -105q-47 29 -103 47.5t-120 18.5 q-43 0 -85 -15.5t-73.5 -48.5t-51 -82t-19.5 -117q0 -109 63.5 -178t167.5 -69q72 0 128.5 21.5t103.5 49.5l26 -102q-45 -33 -114.5 -55.5t-145.5 -22.5q-78 0 -142.5 27.5t-110.5 76t-71.5 112t-25.5 136.5z" />
<glyph unicode="&#xaa;" horiz-adv-x="737" d="M80 797q0 27 5 57.5t17 65.5q39 43 93.5 74.5t116 51t125 24.5t118.5 -3q14 109 -17.5 158t-113.5 49q-47 0 -104.5 -26.5t-98.5 -65.5h-4l-41 104q49 51 126 81t155 30q61 0 112.5 -22.5t84 -64.5t47 -101.5t1.5 -131.5l-45 -291q-4 -31 2.5 -69.5t24.5 -65.5l-6 -10 l-129 -37q-12 18 -17.5 47t-9.5 62h-6q-45 -57 -103.5 -87t-140.5 -30q-80 0 -136 51t-56 150zM223 811q0 -49 30 -69.5t66 -20.5q33 0 68 12t66.5 41t55.5 75t34 114q-82 14 -168 -5.5t-146 -87.5q-6 -31 -6 -59z" />
<glyph unicode="&#xab;" horiz-adv-x="1269" d="M115 444l4 27l493 469l95 -78l-371 -413l-4 -21l207 -360l-113 -76zM545 444l4 27l493 469l95 -78l-371 -413l-4 -21l207 -360l-113 -76z" />
<glyph unicode="&#xac;" horiz-adv-x="1085" d="M68 502v139h936v-535h-140v396h-796z" />
<glyph unicode="&#xad;" horiz-adv-x="696" d="M39 395l31 172l532 21l-31 -172z" />
<glyph unicode="&#xae;" horiz-adv-x="1146" d="M135 985q0 94 35 174t94.5 138.5t139 92t169.5 33.5q94 0 175 -33.5t139.5 -92t91.5 -139.5t33 -173q0 -94 -35 -174t-94.5 -138.5t-139 -92t-170.5 -33.5q-90 0 -169.5 31.5t-139 89t-94.5 138.5t-35 179zM221 983q0 -80 26.5 -145.5t74 -112.5t112 -72.5t141.5 -25.5 q72 0 135.5 25.5t111.5 72.5t76 112.5t28 145.5t-28 146.5t-76 113.5t-112.5 73.5t-136.5 26.5q-82 0 -146.5 -28.5t-110.5 -77.5t-70.5 -114.5t-24.5 -139.5zM414 745v510h149q86 0 132 -37.5t46 -109.5q0 -53 -31.5 -93t-93.5 -50l168 -211v-9h-90l-164 213h-36v-213h-80z M494 1026h71q43 0 70 18.5t27 63.5q0 41 -29 60.5t-74 19.5h-65v-162z" />
<glyph unicode="&#xaf;" horiz-adv-x="1024" d="M262 918v112h500v-112h-500z" />
<glyph unicode="&#xb0;" horiz-adv-x="757" d="M135 1128q0 61 23.5 114.5t63.5 93.5t93.5 63.5t112.5 23.5q61 0 114.5 -23.5t93.5 -63.5t63.5 -93t23.5 -115q0 -59 -23.5 -112t-63.5 -93t-93.5 -63.5t-114.5 -23.5q-59 0 -112.5 23.5t-93.5 63.5t-63.5 93t-23.5 112zM274 1128q0 -68 42 -117.5t110 -49.5q70 0 113 50 t43 117q0 70 -43 121t-113 51q-68 0 -110 -51t-42 -121z" />
<glyph unicode="&#xb1;" horiz-adv-x="1085" d="M88 82v139h909v-139h-909zM88 731v139h385v406h139v-406h385v-139h-385v-405h-139v405h-385z" />
<glyph unicode="&#xb2;" horiz-adv-x="593" d="M57 881q139 111 230.5 195.5t145.5 150t76.5 115t22.5 88.5q0 41 -26.5 60t-71.5 19q-31 0 -61.5 -8t-55 -19.5t-44 -22.5t-29.5 -17l-35 108q8 6 29.5 20.5t55.5 28t76 23.5t91 10q94 0 156.5 -40t62.5 -136q0 -92 -88 -218t-266 -253l4 -6l282 16l-24 -137l-527 -16z " />
<glyph unicode="&#xb3;" horiz-adv-x="593" d="M90 874l21 132q47 -23 95 -36.5t101 -13.5q63 0 112.5 35t49.5 105q0 39 -29.5 66.5t-89.5 25.5l-127 -4l21 119l123 -5q27 0 54.5 10.5t49 28t34.5 41t13 47.5q0 41 -29.5 64.5t-80.5 23.5q-37 0 -75 -11t-83 -32l-29 107q47 23 102.5 39t118.5 16q94 0 157 -43t63 -129 q0 -80 -52.5 -138t-126.5 -75l-2 -8q66 -14 96.5 -58t30.5 -98q0 -66 -30.5 -112.5t-77.5 -77.5t-104.5 -45t-108.5 -14q-115 0 -197 40z" />
<glyph unicode="&#xb4;" horiz-adv-x="1024" d="M383 918v16l238 336h178v-21l-291 -331h-125z" />
<glyph unicode="&#xb6;" horiz-adv-x="1310" d="M158 885q0 117 48 210t130 159.5t189.5 102.5t224.5 36h602l-25 -148h-121l-252 -1421l-8 -135l-180 -21l276 1577h-122l-250 -1405l-11 -151l-180 -21l144 830q-104 0 -189.5 26.5t-147 76.5t-95 122t-33.5 162zM358 899q0 -111 76 -177.5t217 -66.5l105 590 q-82 0 -154 -25.5t-126 -71.5t-86 -109.5t-32 -139.5z" />
<glyph unicode="&#xb7;" horiz-adv-x="552" d="M145 532q0 51 36 87t87 36t87 -35.5t36 -87.5q0 -51 -36 -86.5t-87 -35.5t-87 35.5t-36 86.5z" />
<glyph unicode="&#xb8;" horiz-adv-x="1024" d="M322 -379q111 10 173 42t62 77q0 35 -39 50t-104 15q-12 0 -33 -1t-31 -3l-8 15l147 225h119l-98 -154q74 0 122 -33.5t48 -99.5q0 -82 -94 -139t-256 -74z" />
<glyph unicode="&#xb9;" horiz-adv-x="593" d="M268 1483l15 116l249 31l17 -14l-111 -629l-14 -133l-143 -6l114 647z" />
<glyph unicode="&#xba;" horiz-adv-x="819" d="M111 905q0 98 32.5 187.5t88 157t129 107.5t153.5 40q135 0 217 -87.5t82 -234.5q0 -86 -28.5 -172t-82 -153.5t-129 -110.5t-170.5 -43q-131 0 -211.5 85t-80.5 224zM276 920q0 -90 37.5 -141.5t100.5 -51.5q47 0 90 25.5t74.5 71.5t50 107.5t18.5 133.5 q0 96 -34.5 148.5t-100.5 52.5q-49 0 -92 -30t-75 -79t-50.5 -111.5t-18.5 -125.5z" />
<glyph unicode="&#xbb;" horiz-adv-x="1269" d="M72 70l370 413l4 21l-206 360l112 76l312 -453l-5 -26l-493 -469zM502 70l370 413l5 21l-207 360l112 76l312 -453l-4 -26l-494 -469z" />
<glyph unicode="&#xbc;" horiz-adv-x="1515" d="M94 -49l637 758l578 723l84 -54l-611 -714l-604 -770zM238 1278l14 117l250 30l16 -14l-110 -629l-15 -133l-143 -6l115 647zM713 197l397 483l152 8l-76 -430l88 4l-21 -125l-88 -2l-22 -119l-6 -94l-140 -8l39 221l-313 -6zM881 252l4 -12l172 12l47 266l-14 2z" />
<glyph unicode="&#xbd;" horiz-adv-x="1515" d="M94 -49l637 758l578 723l84 -54l-611 -714l-604 -770zM238 1278l14 117l250 30l16 -14l-110 -629l-15 -133l-143 -6l115 647zM725 -51q139 111 230.5 195.5t145.5 150t76.5 115t22.5 88.5q0 41 -26.5 60.5t-71.5 19.5q-31 0 -61.5 -8.5t-55 -19.5t-44 -22.5t-30.5 -17.5 l-34 108q8 6 29.5 20.5t55 28t75.5 23.5t91 10q94 0 157 -39.5t63 -136.5q0 -92 -88.5 -218t-266.5 -253l4 -6l283 16l-25 -137l-526 -16z" />
<glyph unicode="&#xbe;" horiz-adv-x="1515" d="M94 -49l637 758l578 723l84 -54l-611 -714l-604 -770zM100 670l21 131q47 -23 95 -36t101 -13q63 0 112.5 34.5t49.5 104.5q0 39 -29.5 66.5t-89.5 25.5l-127 -4l21 119l123 -4q27 0 54.5 10t49 27.5t34.5 41t13 48.5q0 41 -29.5 64.5t-80.5 23.5q-37 0 -75 -11.5 t-83 -31.5l-29 106q47 23 102.5 39t119.5 16q94 0 156.5 -43t62.5 -129q0 -80 -52.5 -138t-125.5 -75l-2 -8q66 -14 96 -58t30 -97q0 -66 -30.5 -113t-77.5 -78t-104.5 -45t-108.5 -14q-115 0 -197 41zM713 197l397 483l152 8l-76 -430l88 4l-21 -125l-88 -2l-22 -119 l-6 -94l-140 -8l39 221l-313 -6zM881 252l4 -12l172 12l47 266l-14 2z" />
<glyph unicode="&#xbf;" horiz-adv-x="921" d="M2 12q0 90 44 153.5t109.5 110t143.5 80t143.5 65.5t109.5 66.5t44 83.5q0 35 -18.5 48.5t-51.5 13.5q-59 0 -110 -37l-43 111q45 29 94 40t100 11q86 0 145.5 -45t59.5 -131q0 -80 -44 -134.5t-109.5 -93.5t-142.5 -70.5t-142.5 -66.5t-109.5 -79t-44 -109q0 -63 43 -91 t103 -28q129 0 272 90l51 -127q-70 -45 -156.5 -79t-187.5 -34q-141 0 -222 71t-81 181zM565 1075q0 51 36 87t87 36t87 -36t36 -87t-36 -87t-87 -36t-87 36t-36 87z" />
<glyph unicode="&#xc0;" horiz-adv-x="1392" d="M-72 6l486 705l465 723h41l159 -748l158 -676l-180 -20l-82 381l-606 -23l-222 -338l-213 -18zM479 516l461 19l-106 512h-15zM627 1769v21h182l217 -254v-16h-125z" />
<glyph unicode="&#xc1;" horiz-adv-x="1392" d="M-72 6l486 705l465 723h41l159 -748l158 -676l-180 -20l-82 381l-606 -23l-222 -338l-213 -18zM479 516l461 19l-106 512h-15zM776 1520v16l217 254h183v-21l-275 -249h-125z" />
<glyph unicode="&#xc2;" horiz-adv-x="1392" d="M-72 6l486 705l465 723h41l159 -748l158 -676l-180 -20l-82 381l-606 -23l-222 -338l-213 -18zM479 516l461 19l-106 512h-15zM641 1520v16l303 254h57l193 -254v-16h-115l-127 131l-196 -131h-115z" />
<glyph unicode="&#xc3;" horiz-adv-x="1392" d="M-72 6l486 705l465 723h41l159 -748l158 -676l-180 -20l-82 381l-606 -23l-222 -338l-213 -18zM479 516l461 19l-106 512h-15zM633 1534q0 119 51 182.5t121 63.5q39 0 68.5 -20.5t54 -45t47 -45t47.5 -20.5q35 0 53.5 38.5t18.5 88.5h106q0 -47 -12 -92.5t-35 -79 t-53.5 -54t-69.5 -20.5q-41 0 -69.5 20.5t-52 44t-45 44t-46.5 20.5q-39 0 -60.5 -36t-21.5 -89h-102z" />
<glyph unicode="&#xc4;" horiz-adv-x="1392" d="M-72 6l486 705l465 723h41l159 -748l158 -676l-180 -20l-82 381l-606 -23l-222 -338l-213 -18zM479 516l461 19l-106 512h-15zM653 1620q0 41 30 70.5t71 29.5t70.5 -29.5t29.5 -70.5t-29.5 -70.5t-70.5 -29.5t-71 29.5t-30 70.5zM973 1620q0 41 29.5 70.5t70.5 29.5 t71 -29.5t30 -70.5t-30 -70.5t-71 -29.5t-70.5 29.5t-29.5 70.5z" />
<glyph unicode="&#xc5;" horiz-adv-x="1392" d="M-72 6l486 705l465 723h41l159 -748l158 -676l-180 -20l-82 381l-606 -23l-222 -338l-213 -18zM479 516l461 19l-106 512h-15zM735 1661q0 39 15.5 75t41 61.5t60.5 40.5t76 15q80 0 136 -56t56 -136q0 -41 -15 -76t-41 -60.5t-61.5 -41t-74.5 -15.5q-41 0 -76 15.5 t-60.5 41t-41 60.5t-15.5 76zM829 1659q0 -45 26 -75t71 -30t71.5 30t26.5 75t-26.5 76.5t-71.5 31.5t-71 -31.5t-26 -76.5z" />
<glyph unicode="&#xc6;" horiz-adv-x="1843" d="M-72 6l1131 1376h18l801 21l-39 -168l-592 -14l-82 -422l549 20l-39 -168l-538 -20l-76 -473l622 20l-38 -168l-809 -20l69 379l-489 -17l-279 -342l-203 -18zM555 522l381 15l37 192l59 367h-10z" />
<glyph unicode="&#xc7;" horiz-adv-x="1351" d="M90 604q0 160 62.5 307.5t171 261t255 182t316.5 68.5q76 0 144.5 -16t127 -41t104.5 -55.5t77 -57.5l-107 -149q-20 18 -54 42.5t-80 47.5t-104.5 39t-125.5 16q-104 0 -208 -44t-188 -127t-136 -201.5t-52 -270.5q0 -102 29.5 -187t84 -146.5t131 -95.5t173.5 -34 q125 0 234.5 41t189.5 105l67 -154q-86 -68 -210 -115t-271 -51l-51 -82q74 0 122 -33.5t48 -99.5q0 -82 -94.5 -139t-256.5 -74l-8 80q111 10 173.5 42t62.5 77q0 35 -39 50t-105 15q-12 0 -32.5 -1t-30.5 -3l-8 15l104 159q-117 14 -212 69.5t-162.5 138.5t-104.5 190.5 t-37 230.5z" />
<glyph unicode="&#xc8;" horiz-adv-x="1044" d="M37 -10l137 739l72 442l14 211l809 21l-39 -168l-581 -14l-82 -422l538 20l-39 -168l-528 -20l-76 -473l623 20l-39 -168zM420 1765v21h182l217 -254v-16h-125z" />
<glyph unicode="&#xc9;" horiz-adv-x="1044" d="M37 -10l137 739l72 442l14 211l809 21l-39 -168l-581 -14l-82 -422l538 20l-39 -168l-528 -20l-76 -473l623 20l-39 -168zM569 1516v16l217 254h183v-21l-275 -249h-125z" />
<glyph unicode="&#xca;" horiz-adv-x="1044" d="M37 -10l137 739l72 442l14 211l809 21l-39 -168l-581 -14l-82 -422l538 20l-39 -168l-528 -20l-76 -473l623 20l-39 -168zM434 1516v16l303 254h58l192 -254v-16h-115l-127 131l-196 -131h-115z" />
<glyph unicode="&#xcb;" horiz-adv-x="1044" d="M37 -10l137 739l72 442l14 211l809 21l-39 -168l-581 -14l-82 -422l538 20l-39 -168l-528 -20l-76 -473l623 20l-39 -168zM446 1616q0 41 30 70.5t71 29.5t70.5 -29.5t29.5 -70.5t-29.5 -70.5t-70.5 -29.5t-71 29.5t-30 70.5zM766 1616q0 41 29.5 70.5t70.5 29.5 t71 -29.5t30 -70.5t-30 -70.5t-71 -29.5t-70.5 29.5t-29.5 70.5z" />
<glyph unicode="&#xcc;" horiz-adv-x="552" d="M59 -10l142 735l67 438l15 219l225 21l-131 -682l-78 -488l-14 -223zM129 1765v21h182l217 -254v-16h-125z" />
<glyph unicode="&#xcd;" horiz-adv-x="552" d="M59 -10l142 735l67 438l15 219l225 21l-131 -682l-78 -488l-14 -223zM279 1516v16l217 254h182v-21l-275 -249h-124z" />
<glyph unicode="&#xce;" horiz-adv-x="552" d="M59 -10l142 735l67 438l15 219l225 21l-131 -682l-78 -488l-14 -223zM143 1516v16l303 254h58l192 -254v-16h-114l-127 131l-197 -131h-115z" />
<glyph unicode="&#xcf;" horiz-adv-x="552" d="M59 -10l142 735l67 438l15 219l225 21l-131 -682l-78 -488l-14 -223zM156 1616q0 41 29.5 70.5t70.5 29.5t70.5 -29.5t29.5 -70.5t-29.5 -70.5t-70.5 -29.5t-70.5 29.5t-29.5 70.5zM475 1616q0 41 30 70.5t70 29.5q41 0 71 -29.5t30 -70.5t-30 -70.5t-71 -29.5 t-70.5 29.5t-29.5 70.5z" />
<glyph unicode="&#xd0;" horiz-adv-x="1372" d="M-37 610l19 125l194 6l68 422l14 219l377 15q135 4 254 -36t207 -118t139 -188.5t51 -245.5q0 -203 -69.5 -351.5t-181 -247.5t-251 -149.5t-278.5 -56.5l-465 -14l113 626zM272 168l199 4q152 4 267.5 55.5t193.5 135t116.5 195.5t38.5 235q0 113 -35.5 197.5t-99 139 t-147.5 80t-180 21.5l-166 -6l-94 -477l288 8l-18 -125l-291 -8z" />
<glyph unicode="&#xd1;" horiz-adv-x="1536" d="M41 -10l133 698l115 725h61l764 -1036h16l95 526l41 273l12 206l223 21l-112 -586l-136 -837h-61l-766 1034h-16l-66 -383l-63 -404l-15 -217zM600 1489q0 119 51 182.5t121 63.5q39 0 68.5 -20.5t54.5 -45t47.5 -45t46.5 -20.5q35 0 53.5 38.5t18.5 88.5h106 q0 -47 -12 -92.5t-34.5 -79t-53.5 -54t-70 -20.5q-41 0 -69.5 20.5t-52 44t-45 44t-46.5 20.5q-39 0 -60.5 -36t-21.5 -89h-102z" />
<glyph unicode="&#xd2;" horiz-adv-x="1576" d="M90 590q0 176 65.5 328.5t175 264t252 176t294.5 64.5q129 0 240.5 -46t192.5 -129t128 -197.5t47 -249.5q0 -176 -59.5 -329t-165 -264.5t-250 -175t-312.5 -63.5q-127 0 -238.5 46t-193.5 128t-129 196t-47 251zM291 598q0 -84 25.5 -165t77.5 -145.5t130.5 -104.5 t182.5 -40q133 0 239.5 55.5t182 145.5t115.5 208t40 241q0 104 -33.5 188t-91 143.5t-133.5 92t-160 32.5q-104 0 -206.5 -44t-184.5 -128t-133 -204.5t-51 -274.5zM629 1765v21h182l217 -254v-16h-125z" />
<glyph unicode="&#xd3;" horiz-adv-x="1576" d="M90 590q0 176 65.5 328.5t175 264t252 176t294.5 64.5q129 0 240.5 -46t192.5 -129t128 -197.5t47 -249.5q0 -176 -59.5 -329t-165 -264.5t-250 -175t-312.5 -63.5q-127 0 -238.5 46t-193.5 128t-129 196t-47 251zM291 598q0 -84 25.5 -165t77.5 -145.5t130.5 -104.5 t182.5 -40q133 0 239.5 55.5t182 145.5t115.5 208t40 241q0 104 -33.5 188t-91 143.5t-133.5 92t-160 32.5q-104 0 -206.5 -44t-184.5 -128t-133 -204.5t-51 -274.5zM778 1516v16l217 254h183v-21l-275 -249h-125z" />
<glyph unicode="&#xd4;" horiz-adv-x="1576" d="M90 590q0 176 65.5 328.5t175 264t252 176t294.5 64.5q129 0 240.5 -46t192.5 -129t128 -197.5t47 -249.5q0 -176 -59.5 -329t-165 -264.5t-250 -175t-312.5 -63.5q-127 0 -238.5 46t-193.5 128t-129 196t-47 251zM291 598q0 -84 25.5 -165t77.5 -145.5t130.5 -104.5 t182.5 -40q133 0 239.5 55.5t182 145.5t115.5 208t40 241q0 104 -33.5 188t-91 143.5t-133.5 92t-160 32.5q-104 0 -206.5 -44t-184.5 -128t-133 -204.5t-51 -274.5zM643 1516v16l303 254h58l192 -254v-16h-115l-127 131l-196 -131h-115z" />
<glyph unicode="&#xd5;" horiz-adv-x="1576" d="M90 590q0 176 65.5 328.5t175 264t252 176t294.5 64.5q129 0 240.5 -46t192.5 -129t128 -197.5t47 -249.5q0 -176 -59.5 -329t-165 -264.5t-250 -175t-312.5 -63.5q-127 0 -238.5 46t-193.5 128t-129 196t-47 251zM291 598q0 -84 25.5 -165t77.5 -145.5t130.5 -104.5 t182.5 -40q133 0 239.5 55.5t182 145.5t115.5 208t40 241q0 104 -33.5 188t-91 143.5t-133.5 92t-160 32.5q-104 0 -206.5 -44t-184.5 -128t-133 -204.5t-51 -274.5zM635 1530q0 119 51 182.5t121 63.5q39 0 68.5 -20.5t54 -45t47 -45t47.5 -20.5q35 0 53.5 38.5t18.5 88.5 h106q0 -47 -12 -92.5t-34.5 -79t-53.5 -54t-70 -20.5q-41 0 -69.5 20.5t-52 44t-45 44t-46.5 20.5q-39 0 -60.5 -36t-21.5 -89h-102z" />
<glyph unicode="&#xd6;" horiz-adv-x="1576" d="M90 590q0 176 65.5 328.5t175 264t252 176t294.5 64.5q129 0 240.5 -46t192.5 -129t128 -197.5t47 -249.5q0 -176 -59.5 -329t-165 -264.5t-250 -175t-312.5 -63.5q-127 0 -238.5 46t-193.5 128t-129 196t-47 251zM291 598q0 -84 25.5 -165t77.5 -145.5t130.5 -104.5 t182.5 -40q133 0 239.5 55.5t182 145.5t115.5 208t40 241q0 104 -33.5 188t-91 143.5t-133.5 92t-160 32.5q-104 0 -206.5 -44t-184.5 -128t-133 -204.5t-51 -274.5zM655 1616q0 41 30 70.5t71 29.5t70.5 -29.5t29.5 -70.5t-29.5 -70.5t-70.5 -29.5t-71 29.5t-30 70.5z M975 1616q0 41 29.5 70.5t70.5 29.5t71 -29.5t30 -70.5t-30 -70.5t-71 -29.5t-70.5 29.5t-29.5 70.5z" />
<glyph unicode="&#xd7;" horiz-adv-x="1085" d="M109 270l335 336l-335 336l98 98l336 -335l336 335l98 -98l-336 -336l336 -336l-98 -98l-336 336l-336 -336z" />
<glyph unicode="&#xd8;" horiz-adv-x="1576" d="M78 -18l168 182q-74 82 -115 189.5t-41 236.5q0 176 65.5 328.5t175 264t252 176t294.5 64.5q115 0 215 -36.5t178 -102.5l168 182l75 -67l-172 -187q68 -82 106 -185t38 -226q0 -176 -59.5 -329t-165 -264.5t-250 -175t-312.5 -63.5q-111 0 -206 33t-173 92l-165 -180z M291 598q0 -78 21.5 -152.5t64.5 -136.5l764 834q-57 51 -127 78.5t-148 27.5q-104 0 -206.5 -44t-184.5 -128t-133 -204.5t-51 -274.5zM446 233q49 -41 114 -65.5t147 -24.5q133 0 239.5 55.5t182 145.5t115.5 208t40 241q0 80 -20.5 148.5t-57.5 121.5z" />
<glyph unicode="&#xd9;" horiz-adv-x="1413" d="M130 297q-15 92 3 188l125 699l14 198l224 21l-174 -883q-20 -102 -7 -174t53 -118t103.5 -67.5t146.5 -21.5q80 0 151 20.5t127 65.5t96 118t57 177l98 643l14 219l223 21l-157 -907q-18 -104 -62.5 -200.5t-120 -168.5t-188.5 -115t-266 -43q-145 0 -241.5 45t-150 118 t-68.5 165zM569 1745v20h183l217 -254v-16h-125z" />
<glyph unicode="&#xda;" horiz-adv-x="1413" d="M130 297q-15 92 3 188l125 699l14 198l224 21l-174 -883q-20 -102 -7 -174t53 -118t103.5 -67.5t146.5 -21.5q80 0 151 20.5t127 65.5t96 118t57 177l98 643l14 219l223 21l-157 -907q-18 -104 -62.5 -200.5t-120 -168.5t-188.5 -115t-266 -43q-145 0 -241.5 45t-150 118 t-68.5 165zM719 1495v16l217 254h182v-20l-274 -250h-125z" />
<glyph unicode="&#xdb;" horiz-adv-x="1413" d="M130 297q-15 92 3 188l125 699l14 198l224 21l-174 -883q-20 -102 -7 -174t53 -118t103.5 -67.5t146.5 -21.5q80 0 151 20.5t127 65.5t96 118t57 177l98 643l14 219l223 21l-157 -907q-18 -104 -62.5 -200.5t-120 -168.5t-188.5 -115t-266 -43q-145 0 -241.5 45t-150 118 t-68.5 165zM584 1495v16l303 254h57l193 -254v-16h-115l-127 131l-197 -131h-114z" />
<glyph unicode="&#xdc;" horiz-adv-x="1413" d="M130 297q-15 92 3 188l125 699l14 198l224 21l-174 -883q-20 -102 -7 -174t53 -118t103.5 -67.5t146.5 -21.5q80 0 151 20.5t127 65.5t96 118t57 177l98 643l14 219l223 21l-157 -907q-18 -104 -62.5 -200.5t-120 -168.5t-188.5 -115t-266 -43q-145 0 -241.5 45t-150 118 t-68.5 165zM596 1595q0 41 29.5 71t70.5 30t71 -30t30 -71t-30 -70.5t-71 -29.5t-70.5 29.5t-29.5 70.5zM915 1595q0 41 30 71t71 30t70.5 -30t29.5 -71t-29.5 -70.5t-70.5 -29.5t-71 29.5t-30 70.5z" />
<glyph unicode="&#xdd;" horiz-adv-x="1208" d="M141 1382l189 21l276 -596h17l456 575l211 19l8 -21l-608 -759l-76 -428l-12 -183l-213 -20l109 631zM608 1495v16l217 254h183v-20l-275 -250h-125z" />
<glyph unicode="&#xde;" horiz-adv-x="1064" d="M41 -10l217 1237l6 155l213 21l-49 -277l154 7q94 4 169.5 -21t129 -72t82 -114.5t28.5 -149.5q0 -109 -46 -194.5t-125 -147t-182 -96.5t-220 -39l-135 -6l-23 -127l-6 -156zM311 455l144 6q61 2 120.5 20.5t106.5 55t75.5 94t28.5 137.5q0 96 -60 151.5t-171 51.5 l-156 -6z" />
<glyph unicode="&#xdf;" horiz-adv-x="1126" d="M31 -213l174 983h-160l14 102l170 46l15 88q16 102 59 180t103.5 129t135 76.5t154.5 25.5q111 0 190 -45t122 -125t45 -188.5t-41 -233.5q-154 4 -235 -45t-81 -108q0 -55 44 -98.5t96.5 -87.5t96.5 -100t44 -140q0 -70 -28.5 -121t-75 -85t-103.5 -51.5t-117 -17.5 q-86 0 -154.5 28t-107.5 64l80 142q39 -33 84 -55.5t102 -22.5q59 0 100.5 29.5t41.5 85.5q0 57 -44 98t-97.5 82t-97.5 93t-44 132q0 68 28.5 123t77 95t113 63.5t135.5 27.5q29 135 -18 222.5t-156 87.5q-63 0 -109 -19.5t-80 -55.5t-54.5 -84t-32.5 -103l-168 -975 l-16 -222z" />
<glyph unicode="&#xe0;" horiz-adv-x="921" d="M18 215q0 68 27 145q49 53 116.5 92.5t143.5 62t155 29.5t148 -3q16 131 -21.5 193.5t-135.5 62.5q-31 0 -66 -9.5t-68.5 -24.5t-64.5 -34.5t-51 -38.5h-6l-60 121q74 61 165 98t189 37q74 0 132.5 -27.5t97.5 -79t55.5 -123t1.5 -159.5l-55 -354q-6 -37 2 -85t31 -79 l-6 -12l-156 -45q-10 23 -21.5 62.5t-9.5 80.5h-8q-53 -55 -132 -98t-167 -58q-98 10 -167 77t-69 169zM184 256q-4 -47 21.5 -87t85.5 -52q78 10 152.5 51t121.5 96l29 150q-53 8 -108.5 6t-108.5 -14.5t-100.5 -38t-83.5 -66.5q-4 -10 -6.5 -22.5t-2.5 -22.5zM219 1370v21 h176l228 -336v-17h-119z" />
<glyph unicode="&#xe1;" horiz-adv-x="921" d="M18 215q0 68 27 145q49 53 116.5 92.5t143.5 62t155 29.5t148 -3q16 131 -21.5 193.5t-135.5 62.5q-31 0 -66 -9.5t-68.5 -24.5t-64.5 -34.5t-51 -38.5h-6l-60 121q74 61 165 98t189 37q74 0 132.5 -27.5t97.5 -79t55.5 -123t1.5 -159.5l-55 -354q-6 -37 2 -85t31 -79 l-6 -12l-156 -45q-10 23 -21.5 62.5t-9.5 80.5h-8q-53 -55 -132 -98t-167 -58q-98 10 -167 77t-69 169zM184 256q-4 -47 21.5 -87t85.5 -52q78 10 152.5 51t121.5 96l29 150q-53 8 -108.5 6t-108.5 -14.5t-100.5 -38t-83.5 -66.5q-4 -10 -6.5 -22.5t-2.5 -22.5zM371 1038v17 l237 336h178v-21l-290 -332h-125z" />
<glyph unicode="&#xe2;" horiz-adv-x="921" d="M18 215q0 68 27 145q49 53 116.5 92.5t143.5 62t155 29.5t148 -3q16 131 -21.5 193.5t-135.5 62.5q-31 0 -66 -9.5t-68.5 -24.5t-64.5 -34.5t-51 -38.5h-6l-60 121q74 61 165 98t189 37q74 0 132.5 -27.5t97.5 -79t55.5 -123t1.5 -159.5l-55 -354q-6 -37 2 -85t31 -79 l-6 -12l-156 -45q-10 23 -21.5 62.5t-9.5 80.5h-8q-53 -55 -132 -98t-167 -58q-98 10 -167 77t-69 169zM184 256q-4 -47 21.5 -87t85.5 -52q78 10 152.5 51t121.5 96l29 150q-53 8 -108.5 6t-108.5 -14.5t-100.5 -38t-83.5 -66.5q-4 -10 -6.5 -22.5t-2.5 -22.5zM233 1038v17 l299 336h58l196 -336v-17h-112l-133 193l-191 -193h-117z" />
<glyph unicode="&#xe3;" horiz-adv-x="921" d="M18 215q0 68 27 145q49 53 116.5 92.5t143.5 62t155 29.5t148 -3q16 131 -21.5 193.5t-135.5 62.5q-31 0 -66 -9.5t-68.5 -24.5t-64.5 -34.5t-51 -38.5h-6l-60 121q74 61 165 98t189 37q74 0 132.5 -27.5t97.5 -79t55.5 -123t1.5 -159.5l-55 -354q-6 -37 2 -85t31 -79 l-6 -12l-156 -45q-10 23 -21.5 62.5t-9.5 80.5h-8q-53 -55 -132 -98t-167 -58q-98 10 -167 77t-69 169zM184 256q-4 -47 21.5 -87t85.5 -52q78 10 152.5 51t121.5 96l29 150q-53 8 -108.5 6t-108.5 -14.5t-100.5 -38t-83.5 -66.5q-4 -10 -6.5 -22.5t-2.5 -22.5zM229 1073 q0 119 51.5 182.5t120.5 63.5q39 0 69 -20.5t54.5 -45t47 -45t46.5 -20.5q35 0 53.5 39t18.5 88h107q0 -47 -12.5 -92t-35 -79t-53 -54.5t-69.5 -20.5q-41 0 -70 20.5t-52.5 44t-45 44t-45.5 20.5q-39 0 -60.5 -36t-21.5 -89h-103z" />
<glyph unicode="&#xe4;" horiz-adv-x="921" d="M18 215q0 68 27 145q49 53 116.5 92.5t143.5 62t155 29.5t148 -3q16 131 -21.5 193.5t-135.5 62.5q-31 0 -66 -9.5t-68.5 -24.5t-64.5 -34.5t-51 -38.5h-6l-60 121q74 61 165 98t189 37q74 0 132.5 -27.5t97.5 -79t55.5 -123t1.5 -159.5l-55 -354q-6 -37 2 -85t31 -79 l-6 -12l-156 -45q-10 23 -21.5 62.5t-9.5 80.5h-8q-53 -55 -132 -98t-167 -58q-98 10 -167 77t-69 169zM184 256q-4 -47 21.5 -87t85.5 -52q78 10 152.5 51t121.5 96l29 150q-53 8 -108.5 6t-108.5 -14.5t-100.5 -38t-83.5 -66.5q-4 -10 -6.5 -22.5t-2.5 -22.5zM250 1159 q0 41 29.5 71t70.5 30t71 -30t30 -71t-30 -70.5t-71 -29.5t-70.5 29.5t-29.5 70.5zM569 1159q0 41 30 71t71 30t70.5 -30t29.5 -71t-29.5 -70.5t-70.5 -29.5t-71 29.5t-30 70.5z" />
<glyph unicode="&#xe5;" horiz-adv-x="921" d="M18 215q0 68 27 145q49 53 116.5 92.5t143.5 62t155 29.5t148 -3q16 131 -21.5 193.5t-135.5 62.5q-31 0 -66 -9.5t-68.5 -24.5t-64.5 -34.5t-51 -38.5h-6l-60 121q74 61 165 98t189 37q74 0 132.5 -27.5t97.5 -79t55.5 -123t1.5 -159.5l-55 -354q-6 -37 2 -85t31 -79 l-6 -12l-156 -45q-10 23 -21.5 62.5t-9.5 80.5h-8q-53 -55 -132 -98t-167 -58q-98 10 -167 77t-69 169zM184 256q-4 -47 21.5 -87t85.5 -52q78 10 152.5 51t121.5 96l29 150q-53 8 -108.5 6t-108.5 -14.5t-100.5 -38t-83.5 -66.5q-4 -10 -6.5 -22.5t-2.5 -22.5zM332 1200 q0 39 15 75t41 61.5t60.5 41t75.5 15.5q39 0 75 -15.5t61.5 -41t41 -61.5t15.5 -75q0 -41 -15.5 -75.5t-41 -60.5t-61.5 -41t-75 -15q-41 0 -75.5 15t-60.5 41t-41 60.5t-15 75.5zM426 1198q0 -45 25.5 -74.5t70.5 -29.5t72 29.5t27 74.5t-27 77t-72 32t-70.5 -32t-25.5 -77 z" />
<glyph unicode="&#xe6;" horiz-adv-x="1433" d="M18 215q0 68 27 145q47 53 114.5 92.5t142.5 63t154 29.5t146 -4q31 256 -151 256q-59 0 -129 -32t-121 -75h-6l-60 121q70 59 163 97t191 38q78 0 142.5 -38t99.5 -105q66 66 142.5 104.5t162.5 38.5q68 0 124.5 -23.5t98 -63.5t64.5 -93t23 -111q0 -29 -4.5 -56 t-14.5 -56q-49 -43 -120.5 -76t-152.5 -51.5t-164 -24.5t-157 2q-16 -133 35 -200.5t137 -67.5q72 0 144.5 30.5t126.5 77.5h6l49 -137q-66 -57 -160 -91t-192 -34q-92 0 -164 49.5t-107 139.5q-72 -90 -168 -135t-186 -56q-43 6 -85 22.5t-76 47.5t-54.5 74t-20.5 102z M184 229q0 -41 34 -74.5t73 -37.5q49 8 97 27.5t88 54t70 87t42 128.5q-51 8 -106.5 6t-107.5 -14.5t-98.5 -38t-82.5 -66.5q-4 -20 -6.5 -37.5t-2.5 -34.5zM758 526q117 -10 225.5 5.5t192.5 72.5q10 74 -28 132.5t-124 58.5q-49 0 -93 -25t-79 -62.5t-59.5 -86 t-34.5 -95.5z" />
<glyph unicode="&#xe7;" horiz-adv-x="819" d="M20 315q0 141 46.5 258t120 200t165.5 128t183 45q98 0 163.5 -38t106.5 -91l-107 -121q-35 43 -76.5 69t-97.5 26q-57 0 -113.5 -33t-100.5 -91.5t-71.5 -141.5t-27.5 -181q0 -115 52 -165t132 -50q63 0 115.5 25.5t97.5 58.5l66 -123q-51 -53 -128 -83t-157 -34 l-53 -86q74 0 122 -33.5t48 -99.5q0 -82 -94.5 -139t-255.5 -74l-9 80q111 10 173.5 42t62.5 77q0 35 -39 50t-104 15q-12 0 -33 -1t-31 -3l-8 15l106 164q-121 23 -187.5 111.5t-66.5 223.5z" />
<glyph unicode="&#xe8;" horiz-adv-x="921" d="M20 311q0 125 41 241t110 203t160 139t193 52q68 0 124.5 -23.5t98 -63.5t64.5 -93t23 -111q0 -29 -4.5 -58t-14.5 -58q-51 -43 -124 -76t-154.5 -51.5t-166.5 -24.5t-159 2q-16 -133 37 -198.5t145 -65.5q72 0 144.5 30.5t126.5 77.5h6l49 -137q-66 -57 -160 -91 t-192 -34q-74 0 -137.5 23.5t-109.5 67.5t-73 106.5t-27 142.5zM236 522q121 -10 231.5 5.5t196.5 72.5q6 37 -1.5 72t-27 62.5t-50 44t-73.5 16.5q-51 0 -96 -25t-81 -64.5t-61.5 -88t-37.5 -95.5zM256 1370v21h176l227 -336v-17h-118z" />
<glyph unicode="&#xe9;" horiz-adv-x="921" d="M20 311q0 125 41 241t110 203t160 139t193 52q68 0 124.5 -23.5t98 -63.5t64.5 -93t23 -111q0 -29 -4.5 -58t-14.5 -58q-51 -43 -124 -76t-154.5 -51.5t-166.5 -24.5t-159 2q-16 -133 37 -198.5t145 -65.5q72 0 144.5 30.5t126.5 77.5h6l49 -137q-66 -57 -160 -91 t-192 -34q-74 0 -137.5 23.5t-109.5 67.5t-73 106.5t-27 142.5zM236 522q121 -10 231.5 5.5t196.5 72.5q6 37 -1.5 72t-27 62.5t-50 44t-73.5 16.5q-51 0 -96 -25t-81 -64.5t-61.5 -88t-37.5 -95.5zM408 1038v17l237 336h178v-21l-291 -332h-124z" />
<glyph unicode="&#xea;" horiz-adv-x="921" d="M20 311q0 125 41 241t110 203t160 139t193 52q68 0 124.5 -23.5t98 -63.5t64.5 -93t23 -111q0 -29 -4.5 -58t-14.5 -58q-51 -43 -124 -76t-154.5 -51.5t-166.5 -24.5t-159 2q-16 -133 37 -198.5t145 -65.5q72 0 144.5 30.5t126.5 77.5h6l49 -137q-66 -57 -160 -91 t-192 -34q-74 0 -137.5 23.5t-109.5 67.5t-73 106.5t-27 142.5zM236 522q121 -10 231.5 5.5t196.5 72.5q6 37 -1.5 72t-27 62.5t-50 44t-73.5 16.5q-51 0 -96 -25t-81 -64.5t-61.5 -88t-37.5 -95.5zM270 1038v17l299 336h58l196 -336v-17h-112l-133 193l-191 -193h-117z" />
<glyph unicode="&#xeb;" horiz-adv-x="921" d="M20 311q0 125 41 241t110 203t160 139t193 52q68 0 124.5 -23.5t98 -63.5t64.5 -93t23 -111q0 -29 -4.5 -58t-14.5 -58q-51 -43 -124 -76t-154.5 -51.5t-166.5 -24.5t-159 2q-16 -133 37 -198.5t145 -65.5q72 0 144.5 30.5t126.5 77.5h6l49 -137q-66 -57 -160 -91 t-192 -34q-74 0 -137.5 23.5t-109.5 67.5t-73 106.5t-27 142.5zM236 522q121 -10 231.5 5.5t196.5 72.5q6 37 -1.5 72t-27 62.5t-50 44t-73.5 16.5q-51 0 -96 -25t-81 -64.5t-61.5 -88t-37.5 -95.5zM287 1159q0 41 29.5 71t70.5 30t70.5 -30t29.5 -71t-29.5 -70.5 t-70.5 -29.5t-70.5 29.5t-29.5 70.5zM606 1159q0 41 30 71t71 30t70.5 -30t29.5 -71t-29.5 -70.5t-70.5 -29.5t-71 29.5t-30 70.5z" />
<glyph unicode="&#xec;" horiz-adv-x="471" d="M4 1352v20h176l228 -336v-16h-119zM31 -10l127 731l10 182l209 25l-125 -713l-14 -205z" />
<glyph unicode="&#xed;" horiz-adv-x="471" d="M31 -10l127 731l10 182l209 25l-125 -713l-14 -205zM156 1020v16l237 336h178v-20l-290 -332h-125z" />
<glyph unicode="&#xee;" horiz-adv-x="471" d="M18 1020v16l299 336h58l196 -336v-16h-112l-133 192l-191 -192h-117zM31 -10l127 731l10 182l209 25l-125 -713l-14 -205z" />
<glyph unicode="&#xef;" horiz-adv-x="471" d="M31 -10l127 731l10 182l209 25l-125 -713l-14 -205zM35 1141q0 41 29.5 70.5t70.5 29.5t71 -29.5t30 -70.5t-30 -71t-71 -30t-70.5 30t-29.5 71zM354 1141q0 41 30 70.5t71 29.5t70.5 -29.5t29.5 -70.5t-29.5 -71t-70.5 -30t-71 30t-30 71z" />
<glyph unicode="&#xf0;" d="M14 358q0 125 44 232.5t116 186.5t163 124t187 45q66 0 118 -24.5t93 -67.5l8 4q-16 78 -54 144.5t-87 119.5l-190 -114l-47 82l165 100q-90 72 -188 106l35 127q80 -31 151.5 -69.5t130.5 -85.5l215 131l48 -82l-191 -117q90 -94 139.5 -219t49.5 -287q0 -147 -39 -279 t-110 -230.5t-170 -156t-220 -57.5q-82 0 -149.5 28t-115.5 79t-75 122.5t-27 157.5zM205 358q0 -111 50 -173t142 -62q61 0 118.5 36t100.5 95t68 136t23 161q0 111 -51.5 177.5t-147.5 66.5q-59 0 -113.5 -34t-96.5 -93.5t-67.5 -139t-25.5 -170.5z" />
<glyph unicode="&#xf1;" horiz-adv-x="983" d="M0 -10l119 680l20 237l172 21v-115h11q80 63 160.5 98t172.5 35q117 0 175.5 -73.5t29.5 -233.5l-82 -461l-10 -168l-205 -20l103 602q10 57 5 95t-20.5 58.5t-40 28.5t-55.5 8q-70 0 -138.5 -38.5t-115.5 -98.5l-84 -452l-12 -183zM289 1073q0 119 51 182.5t121 63.5 q39 0 68.5 -20.5t54 -45t47 -45t47.5 -20.5q35 0 53.5 39t18.5 88h106q0 -47 -12.5 -92t-35 -79t-53 -54.5t-69.5 -20.5q-41 0 -69.5 20.5t-52 44t-45 44t-46.5 20.5q-39 0 -60.5 -36t-21.5 -89h-102z" />
<glyph unicode="&#xf2;" d="M20 348q0 119 41 226.5t111 190.5t161 132t191 49q84 0 154 -27.5t119 -79t76.5 -124t27.5 -160.5q0 -104 -36 -208.5t-101.5 -187.5t-160.5 -135.5t-212 -52.5q-84 0 -151.5 28t-116.5 77t-76 118.5t-27 153.5zM211 365q0 -117 51 -179.5t141 -62.5q63 0 120 32.5t99 90 t66.5 134.5t24.5 163q0 117 -49.5 184.5t-141.5 67.5q-66 0 -122 -37t-98 -98.5t-66.5 -138.5t-24.5 -156zM289 1370v21h176l227 -336v-17h-119z" />
<glyph unicode="&#xf3;" d="M20 348q0 119 41 226.5t111 190.5t161 132t191 49q84 0 154 -27.5t119 -79t76.5 -124t27.5 -160.5q0 -104 -36 -208.5t-101.5 -187.5t-160.5 -135.5t-212 -52.5q-84 0 -151.5 28t-116.5 77t-76 118.5t-27 153.5zM211 365q0 -117 51 -179.5t141 -62.5q63 0 120 32.5t99 90 t66.5 134.5t24.5 163q0 117 -49.5 184.5t-141.5 67.5q-66 0 -122 -37t-98 -98.5t-66.5 -138.5t-24.5 -156zM440 1038v17l238 336h178v-21l-291 -332h-125z" />
<glyph unicode="&#xf4;" d="M20 348q0 119 41 226.5t111 190.5t161 132t191 49q84 0 154 -27.5t119 -79t76.5 -124t27.5 -160.5q0 -104 -36 -208.5t-101.5 -187.5t-160.5 -135.5t-212 -52.5q-84 0 -151.5 28t-116.5 77t-76 118.5t-27 153.5zM211 365q0 -117 51 -179.5t141 -62.5q63 0 120 32.5t99 90 t66.5 134.5t24.5 163q0 117 -49.5 184.5t-141.5 67.5q-66 0 -122 -37t-98 -98.5t-66.5 -138.5t-24.5 -156zM303 1038v17l299 336h57l197 -336v-17h-113l-133 193l-190 -193h-117z" />
<glyph unicode="&#xf5;" d="M20 348q0 119 41 226.5t111 190.5t161 132t191 49q84 0 154 -27.5t119 -79t76.5 -124t27.5 -160.5q0 -104 -36 -208.5t-101.5 -187.5t-160.5 -135.5t-212 -52.5q-84 0 -151.5 28t-116.5 77t-76 118.5t-27 153.5zM211 365q0 -117 51 -179.5t141 -62.5q63 0 120 32.5t99 90 t66.5 134.5t24.5 163q0 117 -49.5 184.5t-141.5 67.5q-66 0 -122 -37t-98 -98.5t-66.5 -138.5t-24.5 -156zM299 1073q0 119 51 182.5t121 63.5q39 0 68.5 -20.5t54 -45t47.5 -45t47 -20.5q35 0 53.5 39t18.5 88h106q0 -47 -12 -92t-34.5 -79t-53.5 -54.5t-70 -20.5 q-41 0 -69.5 20.5t-52 44t-45 44t-46.5 20.5q-39 0 -60.5 -36t-21.5 -89h-102z" />
<glyph unicode="&#xf6;" d="M20 348q0 119 41 226.5t111 190.5t161 132t191 49q84 0 154 -27.5t119 -79t76.5 -124t27.5 -160.5q0 -104 -36 -208.5t-101.5 -187.5t-160.5 -135.5t-212 -52.5q-84 0 -151.5 28t-116.5 77t-76 118.5t-27 153.5zM211 365q0 -117 51 -179.5t141 -62.5q63 0 120 32.5t99 90 t66.5 134.5t24.5 163q0 117 -49.5 184.5t-141.5 67.5q-66 0 -122 -37t-98 -98.5t-66.5 -138.5t-24.5 -156zM319 1159q0 41 30 71t71 30t70.5 -30t29.5 -71t-29.5 -70.5t-70.5 -29.5t-71 29.5t-30 70.5zM639 1159q0 41 29.5 71t70.5 30t71 -30t30 -71t-30 -70.5t-71 -29.5 t-70.5 29.5t-29.5 70.5z" />
<glyph unicode="&#xf7;" horiz-adv-x="1085" d="M68 547v139h950v-139h-950zM420 281q0 51 36 86.5t87 35.5t87 -35.5t36 -86.5t-36 -87t-87 -36t-87 36t-36 87zM420 952q0 51 36 87t87 36t87 -35.5t36 -87.5q0 -51 -36 -87t-87 -36t-87 36t-36 87z" />
<glyph unicode="&#xf8;" d="M12 -12l92 108q-41 47 -62.5 110.5t-21.5 141.5q0 119 41 226.5t111 190.5t161 132t191 49q72 0 132.5 -20.5t107.5 -57.5l92 109l66 -53l-99 -115q37 -49 57.5 -113.5t20.5 -140.5q0 -104 -36 -208.5t-101.5 -187.5t-160.5 -135.5t-212 -52.5q-131 0 -227 68l-90 -107z M211 346q0 -59 18 -104l422 495q-47 57 -129 58q-66 0 -124 -40t-102 -104.5t-67.5 -144.5t-17.5 -160zM276 170q47 -47 127 -47q63 0 120 32.5t99 90t66.5 134.5t24.5 163q0 63 -17 116z" />
<glyph unicode="&#xf9;" horiz-adv-x="983" d="M50 156.5q-11 66.5 5 162.5l72 408l12 180l205 21l-106 -580q-23 -119 11 -165t111 -46q35 0 72 13.5t72 37t63.5 54t46.5 67.5l68 379l18 219l205 21l-121 -703l-18 -215l-170 -20v127h-6q-61 -59 -139 -102.5t-177 -43.5q-55 0 -102 18.5t-79 59.5t-43 107.5zM262 1370 v21h176l228 -336v-17h-119z" />
<glyph unicode="&#xfa;" horiz-adv-x="983" d="M50 156.5q-11 66.5 5 162.5l72 408l12 180l205 21l-106 -580q-23 -119 11 -165t111 -46q35 0 72 13.5t72 37t63.5 54t46.5 67.5l68 379l18 219l205 21l-121 -703l-18 -215l-170 -20v127h-6q-61 -59 -139 -102.5t-177 -43.5q-55 0 -102 18.5t-79 59.5t-43 107.5zM414 1038 v17l237 336h178v-21l-290 -332h-125z" />
<glyph unicode="&#xfb;" horiz-adv-x="983" d="M50 156.5q-11 66.5 5 162.5l72 408l12 180l205 21l-106 -580q-23 -119 11 -165t111 -46q35 0 72 13.5t72 37t63.5 54t46.5 67.5l68 379l18 219l205 21l-121 -703l-18 -215l-170 -20v127h-6q-61 -59 -139 -102.5t-177 -43.5q-55 0 -102 18.5t-79 59.5t-43 107.5zM276 1038 v17l299 336h58l196 -336v-17h-112l-133 193l-191 -193h-117z" />
<glyph unicode="&#xfc;" horiz-adv-x="983" d="M50 156.5q-11 66.5 5 162.5l72 408l12 180l205 21l-106 -580q-23 -119 11 -165t111 -46q35 0 72 13.5t72 37t63.5 54t46.5 67.5l68 379l18 219l205 21l-121 -703l-18 -215l-170 -20v127h-6q-61 -59 -139 -102.5t-177 -43.5q-55 0 -102 18.5t-79 59.5t-43 107.5zM293 1159 q0 41 29.5 71t70.5 30t71 -30t30 -71t-30 -70.5t-71 -29.5t-70.5 29.5t-29.5 70.5zM612 1159q0 41 30 71t71 30t70.5 -30t29.5 -71t-29.5 -70.5t-70.5 -29.5t-71 29.5t-30 70.5z" />
<glyph unicode="&#xfd;" horiz-adv-x="901" d="M-63 -365q66 43 146.5 147.5t160.5 274.5l-191 850l176 21l140 -654h8l350 633l186 19l9 -17l-498 -864l-121 -227l-113 -213l-253 -25v55zM367 1038v17l237 336h178v-21l-290 -332h-125z" />
<glyph unicode="&#xfe;" d="M-78 -418l125 645l176 1012l6 154l207 20l-133 -649h10q72 88 139.5 130t163.5 54q47 -8 97.5 -32.5t92.5 -69.5t68.5 -112.5t26.5 -162.5q0 -154 -51 -267.5t-126 -187t-159 -109.5t-149 -36q-55 0 -112.5 18.5t-94.5 63.5h-10l-47 -270l-11 -176zM223 219 q23 -51 65 -71.5t105 -20.5q49 0 105.5 22.5t103.5 73.5t79 135t32 205q0 57 -13.5 97t-33 66t-43 39t-43.5 19q-35 0 -76 -15t-81 -41t-76 -59.5t-60 -70.5z" />
<glyph unicode="&#xff;" horiz-adv-x="901" d="M-63 -365q66 43 146.5 147.5t160.5 274.5l-191 850l176 21l140 -654h8l350 633l186 19l9 -17l-498 -864l-121 -227l-113 -213l-253 -25v55zM246 1159q0 41 29.5 71t70.5 30t70.5 -30t29.5 -71t-29.5 -70.5t-70.5 -29.5t-70.5 29.5t-29.5 70.5zM565 1159q0 41 30 71t71 30 t70.5 -30t29.5 -71t-29.5 -70.5t-70.5 -29.5t-71 29.5t-30 70.5z" />
<glyph unicode="&#x152;" horiz-adv-x="1884" d="M90 590q0 176 65.5 328.5t175 264t252 176t294.5 64.5q121 0 227 -41l815 21l-39 -168l-592 -14l-82 -422l549 20l-39 -168l-538 -20l-76 -473l622 20l-38 -168l-805 -20q-43 -10 -89.5 -15.5t-93.5 -5.5q-127 0 -238.5 46t-193.5 128t-129 196t-47 251zM291 598 q0 -84 25.5 -165t77.5 -145.5t130 -104.5t183 -40q55 0 106 10.5t98 28.5l103 547l71 442v13q-96 66 -219 65q-104 0 -206.5 -44t-184.5 -128t-133 -204.5t-51 -274.5z" />
<glyph unicode="&#x153;" horiz-adv-x="1576" d="M20 348q0 119 41 226.5t111 190.5t161 132t191 49q104 0 187.5 -44t126.5 -130q70 80 156.5 127t185.5 47q68 0 124 -23.5t98 -63.5t64.5 -93t22.5 -111q0 -29 -4.5 -56t-14.5 -56q-51 -43 -123.5 -76t-154.5 -51.5t-167 -24.5t-159 2q-16 -133 37 -200.5t146 -67.5 q72 0 144.5 30.5t125.5 77.5h6l49 -137q-66 -57 -160 -91t-192 -34q-94 0 -170 39t-123 111q-63 -70 -148 -110t-190 -40q-84 0 -151.5 28t-116.5 77t-76 118.5t-27 153.5zM211 346q4 -104 53 -163.5t139 -59.5q63 0 120 32.5t99 90t66.5 134.5t24.5 163q0 117 -49.5 184.5 t-141.5 67.5q-66 0 -124 -40t-102 -104.5t-67.5 -144.5t-17.5 -160zM891 526q121 -10 231.5 5.5t196.5 72.5q10 74 -28 132.5t-124 58.5q-51 0 -96 -25t-81 -62.5t-61.5 -86t-37.5 -95.5z" />
<glyph unicode="&#x178;" horiz-adv-x="1208" d="M141 1382l189 21l276 -596h17l456 575l211 19l8 -21l-608 -759l-76 -428l-12 -183l-213 -20l109 631zM485 1595q0 41 30 71t71 30t70.5 -30t29.5 -71t-29.5 -70.5t-70.5 -29.5t-71 29.5t-30 70.5zM805 1595q0 41 29.5 71t70.5 30t71 -30t30 -71t-30 -70.5t-71 -29.5 t-70.5 29.5t-29.5 70.5z" />
<glyph unicode="&#x2c6;" horiz-adv-x="1024" d="M246 918v16l299 336h57l197 -336v-16h-113l-133 192l-191 -192h-116z" />
<glyph unicode="&#x2dc;" horiz-adv-x="1024" d="M242 952q0 119 51 182.5t121 63.5q39 0 68.5 -20.5t54 -45t47 -45t47.5 -20.5q35 0 53 39t18 88h107q0 -47 -12.5 -92t-35 -79t-53 -54.5t-69.5 -20.5q-41 0 -69.5 20.5t-52 44t-45 44t-46.5 20.5q-39 0 -60.5 -35.5t-21.5 -89.5h-102z" />
<glyph unicode="&#x2000;" horiz-adv-x="926" />
<glyph unicode="&#x2001;" horiz-adv-x="1853" />
<glyph unicode="&#x2002;" horiz-adv-x="926" />
<glyph unicode="&#x2003;" horiz-adv-x="1853" />
<glyph unicode="&#x2004;" horiz-adv-x="617" />
<glyph unicode="&#x2005;" horiz-adv-x="463" />
<glyph unicode="&#x2006;" horiz-adv-x="308" />
<glyph unicode="&#x2007;" horiz-adv-x="308" />
<glyph unicode="&#x2008;" horiz-adv-x="231" />
<glyph unicode="&#x2009;" horiz-adv-x="370" />
<glyph unicode="&#x200a;" horiz-adv-x="102" />
<glyph unicode="&#x2010;" horiz-adv-x="696" d="M39 395l31 172l532 21l-31 -172z" />
<glyph unicode="&#x2011;" horiz-adv-x="696" d="M39 395l31 172l532 21l-31 -172z" />
<glyph unicode="&#x2012;" horiz-adv-x="696" d="M39 395l31 172l532 21l-31 -172z" />
<glyph unicode="&#x2013;" horiz-adv-x="983" d="M39 391l31 172l819 29l-31 -172z" />
<glyph unicode="&#x2014;" horiz-adv-x="2048" d="M164 418v149h1671v-149h-1671z" />
<glyph unicode="&#x2018;" horiz-adv-x="573" d="M168 889v10l156 275l155 219h142v-11l-156 -286l-80 -207h-217z" />
<glyph unicode="&#x2019;" horiz-adv-x="573" d="M102 889v10l156 287l80 207h217v-11l-156 -274l-155 -219h-142z" />
<glyph unicode="&#x201a;" horiz-adv-x="573" d="M-47 -258l156 287l79 207h218v-11l-156 -274l-156 -219h-141v10z" />
<glyph unicode="&#x201c;" horiz-adv-x="962" d="M168 889v10l156 275l155 219h142v-11l-156 -286l-80 -207h-217zM557 889v10l156 275l155 219h142v-11l-156 -286l-80 -207h-217z" />
<glyph unicode="&#x201d;" horiz-adv-x="962" d="M102 889v10l156 287l80 207h217v-11l-156 -274l-155 -219h-142zM492 889v10l155 287l80 207h217v-11l-156 -274l-155 -219h-141z" />
<glyph unicode="&#x201e;" horiz-adv-x="962" d="M-47 -258l156 287l79 207h218v-11l-156 -274l-156 -219h-141v10zM342 -258l156 287l80 207h217v-11l-156 -274l-156 -219h-141v10z" />
<glyph unicode="&#x2022;" horiz-adv-x="983" d="M213 541q0 57 21.5 108t59.5 89t89 59.5t109 21.5q57 0 108 -21.5t89 -59.5t59.5 -89t21.5 -108t-21.5 -108.5t-59.5 -89.5t-89 -59.5t-108 -21.5t-108.5 21.5t-89.5 59.5t-59.5 89.5t-21.5 108.5z" />
<glyph unicode="&#x2026;" horiz-adv-x="1863" d="M72 109q0 51 35.5 86.5t87.5 35.5q51 0 86.5 -35.5t35.5 -86.5t-35.5 -87t-86.5 -36t-87 36t-36 87zM727 109q0 51 36 86.5t87 35.5t87 -35.5t36 -86.5t-36 -87t-87 -36t-87 36t-36 87zM1382 109q0 51 36 86.5t87 35.5t87 -35.5t36 -86.5t-36 -87t-87 -36t-87 36t-36 87z " />
<glyph unicode="&#x202f;" horiz-adv-x="370" />
<glyph unicode="&#x2039;" horiz-adv-x="839" d="M115 444l4 27l493 469l95 -78l-371 -413l-4 -21l207 -360l-113 -76z" />
<glyph unicode="&#x203a;" horiz-adv-x="839" d="M72 70l370 413l4 21l-206 360l112 76l312 -453l-5 -26l-493 -469z" />
<glyph unicode="&#x205f;" horiz-adv-x="463" />
<glyph unicode="&#x20ac;" horiz-adv-x="1249" d="M55 526l49 113h86q4 27 7.5 51.5t9.5 48.5h-115l49 113h97q45 131 122.5 236.5t176 180t209 114.5t221.5 40q90 0 165.5 -22.5t147.5 -65.5l-84 -159q-59 35 -117.5 54t-136.5 19q-74 0 -148.5 -27.5t-141 -78.5t-122 -125t-90.5 -166h619l-49 -113h-602q-6 -25 -9.5 -49 t-7.5 -51h578l-49 -113h-531q2 -86 24.5 -156.5t65.5 -120.5t103.5 -78t138.5 -28q86 0 157.5 25t145.5 72l70 -146q-37 -29 -84 -52.5t-99.5 -39.5t-107.5 -24.5t-107 -8.5q-117 0 -210 44t-159.5 120t-102.5 177.5t-38 215.5h-131z" />
<glyph unicode="&#x2122;" horiz-adv-x="1413" d="M152 1300v93h479v-93h-191v-440h-98v440h-190zM645 860l88 537h45l158 -348h8l154 348h45l88 -537h-96l-50 297h-10l-133 -305h-10l-133 305h-8l-52 -297h-94z" />
<glyph unicode="&#xe000;" horiz-adv-x="931" d="M0 0v932h932v-932h-932z" />
</font>
</defs>
</svg>
