<?xml version="1.0" standalone="no"?>
<!DOCTYPE svg PUBLIC "-//W3C//DTD SVG 1.1//EN" "http://www.w3.org/Graphics/SVG/1.1/DTD/svg11.dtd" >
<svg xmlns="http://www.w3.org/2000/svg">
<metadata></metadata>
<defs>
<font id="concourse_t2bold_italic" horiz-adv-x="1003" >
<font-face units-per-em="2048" ascent="1520" descent="-528" />
<missing-glyph horiz-adv-x="450" />
<glyph unicode="&#xfb01;" horiz-adv-x="1126" d="M39 -190l154 888h-152l31 179l164 65l14 82q10 61 39.5 121.5t73 112t98.5 88t117 51.5h190v-158q-98 -20 -170 -88t-88 -160l-12 -63h168l-39 -209l-168 -21l-125 -708l-8 -160zM637 -10l125 721l12 190l293 33l-133 -764l-10 -160zM815 1247q0 68 47 115t115 47 t115 -47t47 -115t-47.5 -115t-114.5 -47q-68 0 -115 47t-47 115z" />
<glyph unicode="&#xfb02;" horiz-adv-x="1126" d="M39 -190l154 888h-152l31 179l164 65l14 82q10 61 39.5 121.5t73 112t98.5 88t117 51.5h190v-158q-98 -20 -170 -88t-88 -160l-12 -63h168l-39 -209l-168 -21l-125 -708l-8 -160zM631 -10l127 682l82 524l14 197l301 24l-129 -684l-90 -561l-10 -162z" />
<glyph horiz-adv-x="2048" />
<glyph horiz-adv-x="2048" />
<glyph unicode="&#xd;" horiz-adv-x="450" />
<glyph unicode=" "  horiz-adv-x="450" />
<glyph unicode="&#x09;" horiz-adv-x="450" />
<glyph unicode="&#xa0;" horiz-adv-x="450" />
<glyph unicode="!" horiz-adv-x="634" d="M51 143q0 66 46 112t112 46t112 -46t46 -112t-46.5 -111.5t-111.5 -45.5q-66 0 -112 45.5t-46 111.5zM170 438l86 471l84 473l289 21l4 -4l-156 -488l-129 -462z" />
<glyph unicode="&#x22;" horiz-adv-x="819" d="M184 831l92 562h250l-188 -562h-154zM492 831l92 562h250l-189 -562h-153z" />
<glyph unicode="#" horiz-adv-x="1044" d="M16 492l27 159l223 -39l64 277l-193 35l29 159l201 -36l102 440l147 -33l-100 -434l158 -27l114 475l148 -32l-115 -469l207 -35l-29 -160l-215 37l-67 -277l188 -32l-26 -160l-199 35l-121 -504l-147 33l118 495l-151 27l-123 -535l-147 33l120 529zM416 586l153 -27 l66 277l-156 26z" />
<glyph unicode="$" horiz-adv-x="962" d="M-45 166l98 219q51 -31 113.5 -58.5t140.5 -37.5l99 358l-35 21q-47 25 -90 54.5t-78 67t-55.5 87t-20.5 112.5q0 76 34 143.5t95 119t147 81t189 29.5h12l47 172l121 -23l-45 -161q72 -12 127 -37t98 -53l-90 -218q-47 31 -95 53.5t-101 32.5l-88 -319l20 -10 q141 -84 194.5 -168t53.5 -176q0 -102 -45 -176t-115 -122t-153.5 -72t-161.5 -26l-58 -209l-120 23l53 195q-94 14 -175 42.5t-116 55.5zM362 1008q0 -35 24 -62.5t83 -68.5l72 258q-92 -6 -135.5 -41t-43.5 -86zM432 285q51 6 86 21.5t54.5 37t27.5 44.5t8 46 q0 39 -20.5 73t-73.5 73z" />
<glyph unicode="%" horiz-adv-x="1392" d="M94 1030q0 82 29 154.5t77 125t108.5 83t123.5 30.5q121 0 186.5 -73.5t65.5 -192.5q0 -78 -26.5 -148.5t-72.5 -124t-105.5 -85t-127.5 -31.5q-123 0 -190.5 71.5t-67.5 190.5zM135 57l537 682l475 680l115 -63l-510 -662l-502 -704zM266 1040q0 -57 25.5 -89.5 t73.5 -32.5q29 0 56.5 19t47.5 51t32.5 73t10.5 84q0 59 -22.5 94t-67.5 35q-31 0 -58.5 -18.5t-49 -50t-35 -73.5t-13.5 -92zM725 248q0 82 28.5 154.5t77 125t108.5 83t124 30.5q121 0 186.5 -73.5t65.5 -192.5q0 -78 -26.5 -148.5t-73 -124t-105.5 -85t-127 -31.5 q-123 0 -190.5 71.5t-67.5 190.5zM897 258q0 -57 25.5 -90t72.5 -33q29 0 55.5 19.5t47 51.5t33 72.5t12.5 83.5q0 59 -22.5 94.5t-67.5 35.5q-31 0 -58.5 -18.5t-49 -50.5t-35 -74t-13.5 -91z" />
<glyph unicode="&#x26;" horiz-adv-x="1331" d="M8 352q0 98 30 176t78 137.5t106.5 101.5t115.5 71l2 14q-61 41 -85 98.5t-24 116.5q0 76 39 140.5t104.5 112.5t151.5 75.5t181 27.5q123 0 208.5 -25.5t167.5 -76.5l-122 -215h-13q-47 33 -102 51.5t-123 18.5q-96 0 -152.5 -40t-56.5 -96q0 -57 30.5 -99t100.5 -60 l-22 -140q-68 -12 -126.5 -42.5t-102.5 -73.5t-68.5 -98.5t-24.5 -118.5q0 -92 69.5 -141.5t186.5 -49.5q172 0 265 77t93 193q0 29 -10 64l-143 -27l-31 199l539 100l30 -198l-143 -27q16 -49 17 -92q0 -111 -46.5 -208t-132.5 -170t-206.5 -116t-270.5 -43q-131 0 -227 32 t-158.5 85t-93.5 123t-31 143z" />
<glyph unicode="'" horiz-adv-x="512" d="M184 831l92 562h250l-188 -562h-154z" />
<glyph unicode="(" horiz-adv-x="716" d="M33 397q0 197 58.5 368t156.5 313.5t229 254t277 185.5l84 -154q-109 -68 -205 -164t-169 -219t-115 -269.5t-42 -310.5q0 -203 59.5 -366.5t163.5 -286.5l-131 -123q-78 70 -145.5 157t-116.5 186.5t-76.5 208t-27.5 220.5z" />
<glyph unicode=")" horiz-adv-x="716" d="M-162 -221q109 68 205 164t169 219t115 269.5t42 309.5q0 203 -59.5 367t-164.5 287l131 123q78 -70 145.5 -157t117 -186.5t77 -208t27.5 -221.5q0 -197 -58.5 -367.5t-156.5 -313t-229 -254t-277 -185.5z" />
<glyph unicode="*" horiz-adv-x="1085" d="M174 739l320 189l-301 100l108 203l246 -201l16 377l244 -51l-162 -355l320 109l12 -240l-330 37l219 -319l-192 -109l-115 363l-248 -299z" />
<glyph unicode="+" horiz-adv-x="1085" d="M68 535v163h393v394h164v-394h393v-163h-393v-394h-164v394h-393z" />
<glyph unicode="," horiz-adv-x="512" d="M-166 -319l2 16l172 291l90 243h293l-2 -14l-196 -319l-191 -217h-168z" />
<glyph unicode="-" horiz-adv-x="696" d="M45 360l21 240l512 21l-21 -240z" />
<glyph unicode="." horiz-adv-x="552" d="M37 143q0 66 46 112t112 46t111.5 -46t45.5 -112t-46 -111.5t-111 -45.5q-66 0 -112 45.5t-46 111.5z" />
<glyph unicode="/" horiz-adv-x="942" d="M-154 -328l1008 1762h201l-1010 -1762h-199z" />
<glyph unicode="0" horiz-adv-x="1208" d="M63 487q0 195 47.5 366t133.5 298t206.5 199.5t268.5 72.5q98 0 178 -35.5t136.5 -103t87 -164t30.5 -217.5q0 -215 -53.5 -388t-143.5 -295t-206.5 -186.5t-243.5 -64.5q-96 0 -177 32t-139.5 95.5t-91.5 160.5t-33 230zM356 506q0 -150 51.5 -213.5t127.5 -63.5 q68 0 128 57.5t105 151.5t69.5 213t22.5 240q-4 139 -49 205.5t-119 66.5q-55 0 -114.5 -42t-108.5 -125t-81 -205.5t-32 -284.5z" />
<glyph unicode="1" horiz-adv-x="921" d="M199 1083l24 265l549 61l16 -16l-122 -650l-95 -567l-8 -166l-299 -20l125 692l72 432z" />
<glyph unicode="2" horiz-adv-x="1105" d="M-84 92q223 172 387 306t271.5 245t158.5 202t51 175q0 39 -15 66.5t-39.5 44t-56.5 23.5t-65 7q-92 0 -186 -29.5t-176 -84.5l-58 233q88 55 208 99t282 44q195 0 302 -86t107 -245q0 -184 -154.5 -384t-483.5 -432l4 -16l483 39l-37 -279l-977 -30z" />
<glyph unicode="3" horiz-adv-x="1064" d="M-49 51l61 246h11q147 -72 335 -72q55 0 107.5 13.5t91.5 40t62.5 68.5t23.5 97q0 70 -53 106t-148 32l-260 -13l51 267l242 -13q47 -2 91 10.5t79 38t55.5 66.5t20.5 94q0 68 -52.5 101.5t-131.5 33.5q-84 0 -160 -20.5t-123 -40.5h-12l-35 225q78 39 183.5 65.5 t234.5 26.5q84 0 156.5 -20.5t127 -61.5t85 -102t30.5 -141q0 -147 -80 -241.5t-215 -141.5l-2 -17q98 -31 151.5 -102.5t53.5 -165.5q0 -100 -44 -185t-124 -146.5t-189.5 -95.5t-240.5 -34q-238 0 -383 82z" />
<glyph unicode="4" horiz-adv-x="1126" d="M29 518l708 864l303 21l-133 -785l150 7l-41 -238l-150 -6l-41 -213l-8 -158l-293 -20l70 391l-555 -14zM344 594l289 14l78 447h-11l-356 -451v-10z" />
<glyph unicode="5" horiz-adv-x="1105" d="M-25 -2l68 252q20 -8 50 -13.5t61.5 -7.5t61.5 -2h50q100 0 183 23.5t141.5 61.5t90.5 86t32 100q0 100 -95.5 152t-279.5 52q-57 0 -110.5 -4t-94.5 -12l-10 6l207 690l778 31l-68 -266l-542 -12l-70 -222q29 2 47.5 3.5t46.5 1.5q121 0 211 -31t149.5 -83t89 -124 t29.5 -152q0 -135 -68.5 -238.5t-178 -175t-247.5 -108.5t-278 -37q-150 0 -254 29z" />
<glyph unicode="6" horiz-adv-x="1105" d="M31 412q0 156 44 291t120.5 246.5t181 199.5t224.5 148.5t251 92t260 33.5l-70 -252q-121 -8 -226 -40.5t-190 -82t-143.5 -112t-83.5 -129.5l11 -8q51 20 110.5 37.5t149.5 17.5q66 0 128 -21.5t111 -67.5t79 -115.5t30 -164.5q0 -127 -46 -224t-123 -161.5t-174 -97.5 t-200 -33q-115 0 -198.5 34t-138 94.5t-81 141.5t-26.5 173zM313 434q0 -100 51.5 -162.5t143.5 -62.5q47 0 87 19.5t68.5 52t44 75.5t13.5 90q0 49 -16.5 85t-44 60.5t-63.5 36t-73 11.5q-51 0 -94 -11.5t-90 -35.5q-12 -39 -19.5 -81t-7.5 -77z" />
<glyph unicode="7" horiz-adv-x="1024" d="M100 -10q104 334 264 628.5t357 518.5h-8l-572 -33l68 268l928 31l12 -23q-141 -172 -259 -345t-209 -346t-152.5 -344t-92.5 -335z" />
<glyph unicode="8" horiz-adv-x="1085" d="M2 297q0 76 30.5 141.5t78 118.5t103.5 91t110 59v6q-88 72 -121 149.5t-33 155.5q0 82 37 155.5t103.5 129t159.5 88t208 32.5q82 0 152.5 -20.5t123 -60t82 -96t29.5 -126.5q0 -141 -82 -237.5t-211 -155.5v-6q113 -74 160 -151.5t47 -163.5q0 -92 -40 -172 t-111.5 -138.5t-170 -92.5t-217.5 -34q-102 0 -183 24.5t-137.5 67.5t-87 103.5t-30.5 132.5zM293 360q0 -35 14.5 -64.5t39 -53t58 -36.5t72.5 -13q33 0 69 9t65.5 31.5t49 59.5t19.5 92q0 59 -47 115.5t-152 113.5q-84 -29 -136 -97t-52 -157zM461 1038q0 -63 37 -111 t114 -104q66 39 119 99.5t53 144.5q0 61 -42 97t-101 36q-43 0 -76 -14.5t-56.5 -37t-35.5 -51t-12 -59.5z" />
<glyph unicode="9" horiz-adv-x="1105" d="M88 915q0 102 41 194.5t112.5 162t167 110.5t205.5 41q117 0 204 -34.5t143.5 -96t84 -146.5t27.5 -185q0 -199 -63.5 -361t-180 -286t-279.5 -213t-362 -142l-55 229l2 17q109 27 205 67.5t173 91t129 109.5t73 123l-13 12q-94 -70 -251 -69q-72 0 -137.5 23.5 t-116 70.5t-80 117.5t-29.5 164.5zM383 948q0 -104 60.5 -149t146.5 -45q47 0 89 16t89 45q23 68 23 139q0 43 -11.5 84t-35 73t-59.5 52.5t-83 20.5t-87 -18.5t-69.5 -51.5t-46 -75t-16.5 -91z" />
<glyph unicode=":" horiz-adv-x="552" d="M16 143q0 66 46.5 112t111.5 46q66 0 112 -46t46 -112t-46 -111.5t-112 -45.5t-112 45.5t-46 111.5zM133 727q0 66 46 112t112 46t112 -46t46 -112t-46.5 -112t-111.5 -46q-66 0 -112 46t-46 112z" />
<glyph unicode=";" horiz-adv-x="593" d="M-160 -319l2 16l172 291l90 243h293l-2 -14l-196 -319l-191 -217h-168zM164 727q0 66 46 112t112 46t111.5 -46t45.5 -112t-46 -112t-111 -46q-66 0 -112 46t-46 112z" />
<glyph unicode="&#x3c;" horiz-adv-x="1085" d="M102 594v127l828 389l61 -164l-651 -289l651 -288l-61 -164z" />
<glyph unicode="=" horiz-adv-x="1085" d="M88 309v164h909v-164h-909zM88 743v164h909v-164h-909z" />
<glyph unicode="&#x3e;" horiz-adv-x="1085" d="M94 369l651 288l-651 289l62 164l827 -389v-127l-827 -389z" />
<glyph unicode="?" horiz-adv-x="921" d="M102 143q0 66 46.5 112t111.5 46q66 0 112 -46t46 -112t-46 -111.5t-112 -45.5t-112 45.5t-46 111.5zM131 612q0 78 39 132.5t96.5 94.5t126 70.5t125.5 62.5t96 67.5t39 84.5q0 41 -31.5 59.5t-76.5 18.5q-125 0 -281 -84l-59 207q72 41 173 69.5t214 28.5q68 0 130 -17 t108.5 -52t74 -87.5t27.5 -119.5q0 -84 -40 -143.5t-100.5 -103.5t-131 -76.5t-131 -59.5t-100.5 -52.5t-40 -58.5q0 -51 60 -51q57 0 110 37l43 -162q-53 -29 -109.5 -40t-115.5 -11q-102 0 -174 48t-72 138z" />
<glyph unicode="@" horiz-adv-x="1413" d="M113 594q0 172 52 325.5t147.5 267t228.5 180.5t293 67q100 0 186 -22.5t145.5 -69t90 -117t24.5 -168.5l-39 -568q-4 -51 12.5 -87.5t40.5 -59.5l-2 -20l-200 -60l-54 111h-14q-96 -84 -231 -84q-53 0 -102.5 19.5t-86.5 56t-58.5 93t-21.5 130.5q0 78 28 143.5 t77 113.5t114.5 74.5t141.5 26.5q41 0 87 -4t81 -12l10 110q10 109 -55.5 151t-178.5 42q-109 0 -199.5 -51.5t-158.5 -137.5t-105.5 -200.5t-37.5 -241.5q0 -150 36.5 -257t98 -176t143.5 -101.5t174 -32.5q94 0 154.5 20.5t103.5 53.5h11l77 -172q-72 -59 -167 -84 t-166 -25q-139 0 -262 45t-216.5 139t-147.5 238.5t-54 343.5zM737 588q0 -61 37 -86t88 -25q37 0 81 13.5t81 35.5l20 224q-29 4 -65.5 9t-69.5 5q-72 0 -122 -44t-50 -132z" />
<glyph unicode="A" horiz-adv-x="1392" d="M-84 12l922 1381h163l234 -1383l-272 -20l-45 289l-533 -15l-164 -254l-297 -18zM539 504l344 14l-58 412h-14z" />
<glyph unicode="B" horiz-adv-x="1146" d="M14 -10l129 706l88 527l9 159l403 17q16 1 31 0q90 1 160 -19q82 -24 137 -68t82.5 -102.5t27.5 -126.5q0 -49 -12 -100t-43 -98t-84 -87t-135 -65l-2 -10q123 -29 178 -104.5t55 -172.5q0 -104 -44 -185t-120.5 -136t-180 -85t-224.5 -34zM336 246l188 6q45 2 86 14.5 t74 37t52.5 61t19.5 84.5q0 85 -54 121q-52 35 -115 34h-7l-183 -6zM438 825l158 6q82 4 134 52.5t52 134.5q0 70 -43 104q-39 31 -90 31h-12l-143 -6z" />
<glyph unicode="C" horiz-adv-x="1351" d="M74 557q0 184 67.5 343t181 275.5t265 182t319.5 65.5q152 0 262.5 -50t186.5 -124l-150 -213h-12q-45 49 -121 88t-182 39q-104 0 -197.5 -41t-164 -114.5t-113.5 -178t-49 -233.5q0 -86 26.5 -153.5t73.5 -115.5t110.5 -73t135.5 -25q109 0 204 37t173 101h12l117 -207 q-98 -84 -234.5 -137.5t-302.5 -53.5q-139 0 -252 47t-191.5 127t-121.5 186.5t-43 227.5z" />
<glyph unicode="D" horiz-adv-x="1372" d="M20 -10l136 764l67 411l15 217l387 17q19 1 38 1q122 0 228 -34q123 -39 214 -117t143 -191.5t52 -256.5q0 -172 -67.5 -316.5t-182 -250t-264 -165t-311.5 -59.5zM342 254l168 10q98 6 188 44t160 104.5t111 161t41 212.5q0 92 -34 162t-87 115t-120 65q-56 17 -112 18 l-22 -1l-135 -8l-80 -432z" />
<glyph unicode="E" horiz-adv-x="1044" d="M16 -10l136 717l71 462l17 213l843 21l-63 -254l-526 -19l-54 -303l492 21l-66 -254l-471 -21l-57 -329l567 20l-63 -254z" />
<glyph unicode="F" d="M12 -10l140 760l75 442l13 190l823 21l-43 -254l-528 -14l-58 -308l477 21l-45 -254l-477 -21l-65 -405l-9 -158z" />
<glyph unicode="G" horiz-adv-x="1454" d="M74 559q0 190 70.5 350t186 273.5t263 177t301.5 63.5q156 0 267.5 -49t197.5 -123l-152 -215h-18q-47 53 -126 90t-175 37q-88 0 -180.5 -36.5t-168 -108.5t-124.5 -178.5t-49 -245.5q0 -86 27.5 -154.5t75.5 -114.5t110.5 -71t132.5 -25q88 0 160.5 20.5t113.5 49.5 l43 246l-313 -13l43 246l588 21l-111 -649q-117 -78 -253 -129.5t-310 -51.5q-135 0 -246 45t-189.5 124t-121.5 186.5t-43 234.5z" />
<glyph unicode="H" horiz-adv-x="1413" d="M16 -10l136 719l67 440l21 233l307 21l-107 -576l590 21l51 342l15 192l307 21l-137 -723l-54 -369l-32 -301l-308 -20l113 604l-590 -21l-45 -303l-26 -260z" />
<glyph unicode="I" horiz-adv-x="552" d="M20 -10l136 735l71 436l17 221l309 21l-135 -711l-70 -430l-20 -252z" />
<glyph unicode="J" horiz-adv-x="839" d="M-125 37l137 225q18 -23 53 -38t72 -15t76 12t71.5 39t58.5 68t36 98l84 446l55 340l10 170l301 21l-98 -539l-76 -463q-23 -127 -76 -211t-124.5 -136t-154.5 -73.5t-165 -21.5q-94 0 -156.5 20.5t-103.5 57.5z" />
<glyph unicode="K" horiz-adv-x="1228" d="M14 -10l140 772l77 461l9 159l301 21l-97 -543h9l489 522l371 21v-10l-680 -691l497 -684v-8l-327 -20l-402 581h-8l-69 -415l-7 -146z" />
<glyph unicode="L" d="M23 -10l137 762l69 415l17 215l297 21l-121 -664l-80 -485l551 20l-64 -254z" />
<glyph unicode="M" horiz-adv-x="1740" d="M-57 -10l501 1413l183 8l217 -971h12l567 963l183 8l-43 -1221l18 -180l-313 -20l51 805h-10l-461 -795l-133 -10l-195 807h-10l-225 -621l-31 -166z" />
<glyph unicode="N" horiz-adv-x="1536" d="M16 -10l138 758l106 641l174 8l647 -912h13l118 678l19 219l295 21l-137 -746l-107 -653l-168 -8l-653 928h-10l-117 -680l-21 -234z" />
<glyph unicode="O" horiz-adv-x="1576" d="M74 569q0 178 66.5 334t180 271.5t262 182t312.5 66.5q129 0 240.5 -42t194.5 -120.5t131 -192.5t48 -257q0 -184 -66.5 -339t-179 -266.5t-261 -174t-314.5 -62.5q-135 0 -247.5 44t-193.5 124t-127 189.5t-46 242.5zM367 592q0 -88 27.5 -155.5t74.5 -114t109.5 -70 t134.5 -23.5q106 0 199.5 44t162 120t107.5 179.5t39 220.5q0 86 -25 154.5t-70 116.5t-108.5 73.5t-138.5 25.5q-98 0 -190.5 -43t-164 -119.5t-114.5 -181t-43 -227.5z" />
<glyph unicode="P" horiz-adv-x="1064" d="M12 -10l144 747l77 465v180l371 17q15 1 30 0q72 1 141 -15q83 -20 147.5 -66t104.5 -121t40 -181q0 -113 -44 -205t-121 -159.5t-180.5 -106.5t-219.5 -45l-127 -6l-51 -316l-11 -168zM420 743l115 7q41 2 82.5 16t76.5 41t57.5 68t22.5 96q0 98 -56 142q-51 40 -126 40 h-14l-84 -6z" />
<glyph unicode="Q" horiz-adv-x="1576" d="M74 580q0 174 66.5 328.5t180 268t262 180t312.5 66.5q129 0 240.5 -41t194.5 -118.5t131 -189.5t48 -253q0 -176 -66.5 -323.5t-179 -253t-261 -165t-314.5 -59.5h-37l-4 -6l86 -50t100.5 -46.5t134 -35t187.5 -13.5l-111 -248q-129 0 -221 23.5t-161.5 59.5t-125 79 t-112.5 82t-122.5 68.5t-156.5 37.5l129 183q-96 74 -148 182t-52 244zM367 602q0 -78 27.5 -138.5t74.5 -101t109.5 -61t134.5 -20.5q106 0 199.5 40.5t162 111.5t107.5 166t39 204q0 166 -94.5 263t-247.5 97q-98 0 -190.5 -42t-164 -117.5t-114.5 -178t-43 -223.5z" />
<glyph unicode="R" horiz-adv-x="1167" d="M16 -10l138 729l77 485l9 178l438 19h14q68 1 136 -17q74 -20 134 -66t96 -118t36 -172q0 -84 -27 -156.5t-75 -132t-116.5 -101.5t-154.5 -63l352 -559l-2 -16l-301 -20l-319 559l-64 -4l-47 -306l-16 -219zM428 766l143 6q55 2 98.5 19.5t74 46t46 66.5t15.5 79 q0 78 -46 126q-42 44 -109 44h-11l-139 -8z" />
<glyph unicode="S" horiz-adv-x="1044" d="M-25 123l125 237q57 -57 135 -96t173 -39q102 0 155 43t53 111q0 78 -52 134t-124 110q-47 35 -95 72.5t-88 84.5t-64.5 104.5t-24.5 133.5q0 78 30.5 150.5t90 130t146.5 91t202 33.5q74 0 136.5 -14t113.5 -35.5t89 -48.5t62 -51l-118 -234q-68 59 -138.5 93t-156.5 34 q-29 0 -57.5 -7t-52 -21.5t-39 -39t-15.5 -57.5q0 -39 17.5 -72.5t47 -64.5t67.5 -60.5t79 -60.5q45 -35 88 -72.5t76.5 -83.5t55 -102.5t21.5 -126.5q0 -84 -34.5 -161.5t-102 -137t-168 -95.5t-229.5 -36q-57 0 -115.5 12.5t-113 33t-99.5 48t-76 60.5z" />
<glyph unicode="T" horiz-adv-x="1146" d="M121 1128l43 254l1069 21l-43 -254l-387 -8l-94 -498l-66 -399l-20 -234l-295 -20l118 643l82 504z" />
<glyph unicode="U" horiz-adv-x="1413" d="M98 308q-5 40 -5 79q0 50 9 98l115 650l25 247l297 21l-156 -864q-8 -40 -8 -77q0 -22 3 -42q7 -56 34.5 -97.5t80 -66.5t132.5 -25q59 0 117.5 16.5t106.5 54.5t83 98.5t49 148.5l90 549l31 284l295 21l-154 -889q-25 -135 -84 -237.5t-146 -171t-197.5 -102.5 t-235.5 -34q-162 0 -262.5 49.5t-154 124t-65.5 165.5z" />
<glyph unicode="V" horiz-adv-x="1249" d="M139 1382l281 21l149 -854h11l467 833l296 19l7 -15l-803 -1382l-144 -8z" />
<glyph unicode="W" horiz-adv-x="1781" d="M127 1382l283 21l108 -868h8l373 854l176 8l92 -862h9l393 847l297 21l6 -17l-678 -1382l-190 -8l-101 797h-8l-356 -789l-191 -8z" />
<glyph unicode="X" horiz-adv-x="1208" d="M-100 8l549 699l-306 675l308 21l190 -461l346 440l299 19l10 -21l-530 -673l319 -697l-307 -20l-200 483l-365 -463l-303 -18z" />
<glyph unicode="Y" horiz-adv-x="1208" d="M129 1382l287 21l207 -539h4l374 518l302 19l12 -17l-586 -790l-78 -440l-6 -144l-297 -20l105 604z" />
<glyph unicode="Z" horiz-adv-x="1208" d="M-80 4l871 1118l-5 8l-604 -26l45 258l1086 41l6 -8l-887 -1123l4 -10l647 27l-45 -258l-1112 -41z" />
<glyph unicode="[" horiz-adv-x="757" d="M-8 -336l180 930l139 889l539 -8l-35 -201l-278 8l-136 -694l-114 -723l295 8l-37 -201z" />
<glyph unicode="\" horiz-adv-x="942" d="M76 1434h188l610 -1762h-188z" />
<glyph unicode="]" horiz-adv-x="757" d="M-133 -328l35 201l278 -8l135 694l115 723l-295 -8l37 201l553 8l-180 -930l-139 -889z" />
<glyph unicode="^" horiz-adv-x="1085" d="M61 643l455 772h55l453 -772l-119 -68l-352 615h-16l-359 -615z" />
<glyph unicode="_" horiz-adv-x="1085" d="M-215 -451l20 185h1188l-20 -185h-1188z" />
<glyph unicode="`" horiz-adv-x="1024" d="M225 1260l4 20h265l147 -336l-4 -16h-156z" />
<glyph unicode="a" horiz-adv-x="921" d="M-18 328q39 59 101 106t137 79t158 46q73 12 146 12h21l10 50q3 14 3 27q0 40 -30 60q-39 26 -88 27q-53 0 -118.5 -28.5t-143.5 -77.5l-86 188q82 61 194.5 100t223.5 39q72 0 135.5 -20.5t108.5 -61.5q44 -40 64 -100q11 -34 12 -72q0 -30 -7 -63l-71 -375 q-5 -27 -5 -51q0 -27 6 -50q11 -44 38 -65v-18l-187 -117q-47 23 -65.5 58.5t-22.5 80.5h-10q-61 -51 -138 -88t-137 -47q-55 6 -105 33t-86 73q-36 47 -52 111q-10 39 -10 82q0 30 4 62zM233 315q-1 -7 0 -13q0 -40 21 -68q25 -32 70 -41q20 2 44.5 9t48 18t44 23.5 t33.5 22.5l24 142q-18 3 -38 3q-18 -1 -38 -3q-41 -6 -79.5 -17.5t-73.5 -31t-56 -44.5z" />
<glyph unicode="b" d="M-12 115l190 1106l10 172l293 24l-114 -594h8q20 23 53 45.5t71 42t77.5 31.5t74.5 16q117 -29 193 -117.5t76 -250.5q0 -129 -39 -241.5t-112 -197.5t-176.5 -133.5t-234.5 -48.5q-109 0 -196.5 37t-173.5 109zM270 240q20 -20 55 -33.5t68 -13.5q49 0 94 25.5t79 70.5 t53.5 106.5t19.5 132.5q0 63 -27.5 111t-76.5 66q-27 -2 -56.5 -12.5t-57.5 -27t-51.5 -37t-37.5 -40.5z" />
<glyph unicode="c" horiz-adv-x="819" d="M-2 348q0 141 45 255t120 191.5t170 119.5t195 42q98 0 172 -30.5t123 -75.5l-118 -193h-9q-39 41 -83 57.5t-87 16.5q-49 0 -94 -27.5t-81 -75.5t-57.5 -111.5t-21.5 -135.5q0 -98 49.5 -142t108.5 -44q109 0 209 71h8l78 -192q-63 -47 -154.5 -76t-177.5 -29 q-96 0 -169.5 30t-124 82t-76 120.5t-25.5 146.5z" />
<glyph unicode="d" d="M-2 334q0 137 39 250.5t103.5 196.5t150.5 129t182 46q70 0 123 -28.5t74 -63.5h8l18 109l68 420l283 24l-134 -733l-79 -508l-9 -166l-221 -20l-16 147h-10q-47 -53 -126 -103t-171 -67q-55 8 -106.5 36t-90.5 75t-62.5 111.5t-23.5 144.5zM276 389q0 -66 26 -109 t79 -59q27 2 56.5 14.5t58 30t54 38t44.5 40.5l51 303q-23 35 -58.5 56.5t-80.5 21.5q-47 0 -89 -25.5t-73 -70.5t-49.5 -106.5t-18.5 -133.5z" />
<glyph unicode="e" horiz-adv-x="921" d="M-2 336q0 129 45 242.5t117.5 197.5t165 132t188.5 48q92 0 165 -35.5t117 -97t57 -141.5q4 -27 4 -54q0 -55 -17 -114q-45 -35 -117 -63.5t-151.5 -48t-161.5 -27.5q-55 -5 -103 -5q-24 0 -47 1q-1 -10 -1 -20q-1 -40 13 -68q16 -35 42 -54.5t57.5 -26.5t60.5 -7 q59 0 130 22.5t124 63.5h8l78 -189q-66 -53 -173 -88t-216 -35q-70 0 -138.5 20.5t-123.5 64.5t-89 114t-34 168zM285 537q20 -1 40 -1q70 0 138 11q88 14 151 47v12q0 51 -32 88q-36 41 -97 41q-66 0 -124 -54t-76 -144z" />
<glyph unicode="f" horiz-adv-x="655" d="M39 -190l154 888h-152l31 179l164 65l14 82q10 61 39.5 121.5t73 112t98.5 88t117 51.5h190v-158q-98 -20 -170 -88t-88 -160l-12 -63h168l-39 -209l-168 -21l-125 -708l-8 -160z" />
<glyph unicode="g" d="M-41 -315l117 217q55 -47 110.5 -66.5t120.5 -19.5q37 0 77 10t75 33.5t60.5 62.5t33.5 96l20 148h-10q-23 -29 -58.5 -54.5t-74.5 -47t-79 -36t-70 -20.5q-61 14 -113.5 39t-90.5 66t-58.5 98t-20.5 137q0 113 37 222.5t102.5 195.5t155.5 138t194 52q59 0 121 -30.5 t97 -85.5h12l35 102l206 -14l-108 -625l-45 -289q-20 -129 -72.5 -213t-125 -134t-159 -70.5t-174.5 -20.5q-94 0 -178 31t-137 78zM276 410q0 -59 30 -94.5t73 -53.5q57 10 115.5 45t101.5 88l49 262q-16 29 -49 48.5t-70 19.5q-55 0 -101 -25.5t-79 -68.5t-51.5 -100.5 t-18.5 -120.5z" />
<glyph unicode="h" horiz-adv-x="983" d="M-31 -10l115 628l90 603l10 172l303 24l-110 -600h12q53 61 121 100t164 39q49 0 94 -17t77 -54t45 -95q6 -28 7 -62q0 -36 -8 -79l-82 -467l-10 -172l-293 -20l102 563q6 32 6 57q0 37 -13 59q-21 36 -75 36q-51 0 -98 -31t-86 -74l-64 -412l-10 -178z" />
<glyph unicode="i" horiz-adv-x="471" d="M-18 -10l124 721l13 190l293 33l-133 -764l-11 -160zM160 1247q0 68 47 115t115 47t114.5 -47t46.5 -115t-47 -115t-114 -47q-68 0 -115 47t-47 115z" />
<glyph unicode="j" horiz-adv-x="471" d="M-166 -348q45 45 86 123t62 209l129 739l10 178l293 33l-168 -959q-27 -147 -63 -232t-91 -140l-254 -27zM160 1247q0 68 47 115t115 47t114.5 -47t46.5 -115t-47 -115t-114 -47q-68 0 -115 47t-47 115z" />
<glyph unicode="k" horiz-adv-x="901" d="M-31 -10l215 1261l4 142l293 24l-131 -760h15l241 261l322 20l8 -12l-461 -459l334 -442l-2 -15l-311 -20l-195 323h-12l-29 -168l-4 -135z" />
<glyph unicode="l" horiz-adv-x="471" d="M-25 -10l127 682l82 524l15 197l301 24l-129 -684l-90 -561l-11 -162z" />
<glyph unicode="m" horiz-adv-x="1536" d="M-31 -10l133 764l9 164l245 20l6 -131h13q59 66 136 107.5t165 41.5q70 0 132 -45t81 -118h10q74 86 155 124.5t165 38.5q55 0 103 -18t80 -57t43 -103q4 -26 4 -55q0 -44 -9 -96l-84 -471l-6 -146l-287 -20l100 581q3 20 3 37q0 43 -22 66q-30 31 -65 31 q-59 0 -111.5 -33t-80.5 -74l-76 -430l-8 -158l-287 -20l98 571q3 20 3 37.5t-3 31.5q-6 28 -19 44t-31.5 23.5t-35.5 7.5q-51 0 -102 -31t-86 -76l-74 -412l-10 -176z" />
<glyph unicode="n" horiz-adv-x="983" d="M-31 -10l123 702l19 226l245 20l4 -131h13q55 68 130 108.5t161 40.5q53 0 100 -20.5t78.5 -59t45.5 -96.5q7 -30 7 -65q0 -31 -6 -66l-80 -459l-12 -180l-287 -20l96 563q5 31 5 55q-1 44 -17 65q-26 32 -70 32q-47 0 -96 -29t-88 -76l-74 -414l-10 -176z" />
<glyph unicode="o" d="M-2 336q0 129 39 241.5t111.5 197.5t173 133t223.5 48q84 0 152.5 -29.5t117.5 -79.5t77 -119.5t28 -149.5q0 -125 -40 -236t-112 -193.5t-172 -131t-219 -48.5q-78 0 -147.5 27t-121 76t-81 116.5t-29.5 147.5zM272 381q0 -86 39 -133t105 -47q53 0 96 31.5t72.5 82 t45 110.5t15.5 118q0 78 -33.5 130t-105.5 52q-49 0 -91 -29.5t-74 -79t-50.5 -111t-18.5 -124.5z" />
<glyph unicode="p" d="M-104 -418l208 1194l7 152l227 14l2 -137h8q23 25 56.5 50.5t73.5 47t82 36.5t83 19q127 -23 202 -119t75 -241q0 -176 -51.5 -296t-124 -193.5t-151.5 -106.5t-136 -33q-78 0 -124 29t-81 76h-10l-45 -291l-11 -176zM276 276q12 -31 43 -53t80 -22q35 0 77 23.5t78 67.5 t60.5 105.5t24.5 137.5t-32.5 118t-67.5 52q-53 0 -113.5 -37t-95.5 -86z" />
<glyph unicode="q" d="M-2 326q0 154 44 271.5t113.5 197t156.5 120.5t173 41q78 0 131.5 -36.5t92.5 -90.5h8l51 111l197 -12l-207 -1186l-10 -135l-289 -25l104 531h-10q-23 -23 -56.5 -46.5t-71.5 -44t-77 -35t-72 -20.5q-51 8 -101 35t-89 72t-63.5 107.5t-24.5 144.5zM279 381 q0 -63 27.5 -106.5t78.5 -53.5q23 2 51.5 14.5t57 30t54 39t40.5 39.5l55 303q-23 39 -57.5 58.5t-69.5 19.5q-31 0 -72 -16.5t-77.5 -55.5t-62 -105.5t-25.5 -166.5z" />
<glyph unicode="r" horiz-adv-x="655" d="M-31 -10l125 723l17 205l217 20l-4 -211h10q55 104 138 161.5t161 57.5h31l-56 -313h-65q-47 0 -88 -22.5t-73 -57.5t-52.5 -80t-28.5 -90l-41 -242l-4 -131z" />
<glyph unicode="s" horiz-adv-x="757" d="M-74 113l123 188q41 -43 103.5 -73.5t119.5 -30.5q49 0 78 13t29 48q0 29 -24.5 53.5t-61.5 47t-79 48t-79 58.5t-61.5 74t-24.5 96q0 76 30 135t79 100t110.5 63.5t124.5 22.5q98 0 185.5 -42t152.5 -113l-135 -172q-37 39 -91 72.5t-114 33.5q-39 0 -59.5 -20.5 t-20.5 -48.5q0 -29 23.5 -51.5t60.5 -45t78 -47t78 -57.5t60.5 -78t23.5 -108q0 -86 -36 -145.5t-91 -95.5t-119.5 -52.5t-120.5 -16.5q-115 0 -197.5 39t-144.5 105z" />
<glyph unicode="t" horiz-adv-x="634" d="M29 698l30 179l177 61l20 236l295 73l-62 -323l168 4l-39 -211l-167 -17l-82 -489l-17 -201l-286 -20l127 712z" />
<glyph unicode="u" horiz-adv-x="983" d="M16 158q-5 28 -5 60q0 41 9 89l72 406l17 205l286 20l-100 -555q-6 -32 -6 -57q-1 -43 17 -67q28 -38 85 -38q47 0 96.5 33t83.5 94l64 375l14 195l287 20l-135 -780l-6 -148l-236 -20l-6 131h-12q-55 -61 -132 -106.5t-167 -45.5q-55 0 -102.5 20.5t-79.5 62.5t-44 106z " />
<glyph unicode="v" horiz-adv-x="901" d="M53 918l264 20l76 -494h13l231 474l287 20l2 -12l-508 -922l-185 -8z" />
<glyph unicode="w" horiz-adv-x="1310" d="M31 918l264 20l76 -522h10l209 508l198 8l43 -516h11l229 502l281 20l4 -10l-494 -924l-196 -8l-37 473h-13l-204 -465l-201 -8z" />
<glyph unicode="x" horiz-adv-x="901" d="M-102 4l381 463l-230 451l295 20l96 -248l170 228l291 18l6 -12l-368 -449l239 -465l-297 -20l-104 262l-182 -242l-289 -18z" />
<glyph unicode="y" horiz-adv-x="901" d="M-86 -350q45 37 84 78t73.5 91t68.5 111.5t69 139.5l-156 848l262 20l78 -510h13l229 490l291 20l6 -6l-526 -975l-175 -350l-311 -31z" />
<glyph unicode="z" horiz-adv-x="860" d="M-86 4l492 680l-5 6l-348 -16l51 233l758 31l4 -10l-508 -682l2 -6l377 18l-49 -238l-768 -30z" />
<glyph unicode="{" horiz-adv-x="757" d="M27 500l30 174q70 0 117 21.5t77 56t43 80t13 92.5q0 53 -6 101t-6 101q0 96 26.5 163t92 108t177 59.5t281.5 18.5l-30 -181q-84 0 -141.5 -8t-92.5 -30.5t-50 -64.5t-15 -112q0 -66 9 -117t9 -102q0 -98 -82 -167.5t-207 -90.5l-4 -20q92 -8 154.5 -52.5t62.5 -119.5 q0 -45 -22.5 -97.5t-49 -109t-49 -116.5t-22.5 -122q0 -27 10 -48t38 -35.5t76 -21.5t122 -7l-33 -181q-139 -8 -235.5 10.5t-155 56.5t-78.5 96.5t-6 129.5q10 49 31.5 99.5t44 100.5t40 98t17.5 95q0 70 -51 106t-135 36z" />
<glyph unicode="|" horiz-adv-x="1085" d="M442 -471v2007h201v-2007h-201z" />
<glyph unicode="}" horiz-adv-x="757" d="M-156 -332l31 180q84 0 141.5 7.5t92 31t50 65.5t15.5 111q0 66 -9 117t-9 103q0 49 21.5 91t60 75.5t92 57t114.5 34.5l5 20q-92 8 -155 52t-63 120q0 45 22.5 97.5t49.5 108.5t49.5 116.5t22.5 122.5q0 27 -10.5 48t-38 35.5t-75.5 21.5t-122 7l33 180q137 8 234.5 -10 t155.5 -56t78.5 -96.5t6.5 -129.5q-10 -49 -31.5 -99.5t-44 -100.5t-40 -98.5t-17.5 -95.5q0 -70 51 -105.5t135 -35.5l-31 -174q-70 0 -116.5 -21.5t-76.5 -56.5t-43 -80t-13 -92q0 -53 6 -101t6 -102q0 -96 -26.5 -162.5t-92 -107.5t-177.5 -59.5t-282 -18.5z" />
<glyph unicode="~" horiz-adv-x="1085" d="M66 416q0 82 23.5 146.5t62 108.5t91 66.5t107.5 22.5q70 0 123 -32t99 -69.5t87 -69.5t89 -32q66 0 103.5 59.5t37.5 139.5h139q0 -74 -20.5 -137.5t-57.5 -109.5t-89 -71.5t-116 -25.5q-72 0 -124 31.5t-96 68.5t-85 68.5t-90 31.5q-68 0 -110.5 -56t-42.5 -140h-131z " />
<glyph unicode="&#xa1;" horiz-adv-x="634" d="M2 -236l156 488l129 463l178 10l-86 -471l-84 -473l-289 -21zM268 1020q0 66 46 112t112 46t112 -46t46 -112t-46 -112t-112 -46t-112 46t-46 112z" />
<glyph unicode="&#xa2;" horiz-adv-x="880" d="M51 578q0 125 48 232.5t125 187t175.5 125.5t196.5 48l59 207l111 -20l-55 -195q59 -10 103 -33.5t85 -56.5l-106 -192q-35 31 -67 50t-73 27l-155 -552q59 4 117.5 28.5t105.5 54.5l57 -184q-53 -41 -144 -74.5t-196 -33.5l-61 -224l-111 21l60 215q-127 31 -201 128 t-74 241zM301 590q0 -66 22.5 -105t63.5 -59l150 528q-47 -12 -90.5 -43.5t-75 -80t-51 -108.5t-19.5 -132z" />
<glyph unicode="&#xa3;" horiz-adv-x="1024" d="M-18 133q80 57 134 121.5t88 131.5t48 134.5t14 130.5h-151l30 133h115q-4 49 -9 97.5t-5 95.5q0 121 43 206t112.5 138t157.5 77.5t178 24.5q106 0 190.5 -28.5t137.5 -73.5l-121 -205q-29 29 -87 52.5t-134 23.5q-94 0 -152.5 -57.5t-58.5 -186.5q0 -41 4 -82t10 -82 h273l-31 -133h-229v-20q0 -49 -9.5 -97.5t-36 -94.5t-73.5 -89t-123 -86l12 -20q23 12 55.5 24.5t69.5 12.5q49 0 80 -10.5t57.5 -21.5t55 -21.5t75.5 -10.5t90.5 11.5t98.5 43.5l12 -4l-6 -217q-25 -18 -56.5 -31.5t-63.5 -22.5t-61.5 -13t-53.5 -4q-53 0 -89 13t-71 29.5 t-74 30t-96 13.5q-78 0 -157 -29t-138 -57z" />
<glyph unicode="&#xa4;" horiz-adv-x="1269" d="M172 951q8 26 27.5 46.5t45 29.5t42.5 -7l94 -96q55 41 122.5 63.5t141.5 22.5t139.5 -20.5t118.5 -59.5l88 92q16 18 44 7t50.5 -34.5t32.5 -51.5t-6 -44l-92 -88q37 -53 57.5 -117.5t20.5 -136.5q0 -76 -22.5 -142.5t-63.5 -123.5l98 -94q18 -18 10 -44t-27.5 -47.5 t-45 -30.5t-41.5 9l-103 102q-113 -82 -258 -82q-72 0 -136.5 19.5t-117.5 54.5l-86 -90q-18 -18 -46 -10t-51.5 29.5t-32.5 48t9 45.5l90 88q-81 112 -81 268q0 72 21.5 138.5t59.5 121.5l-92 90q-18 18 -10 44zM336 555q0 -72 22.5 -131t62.5 -104.5t97 -70t129 -24.5 q63 0 119.5 24.5t96.5 70t63.5 104.5t23.5 131q0 74 -23.5 135.5t-64.5 104.5t-96 67.5t-121 24.5q-74 0 -131 -25.5t-97 -71t-60.5 -105.5t-20.5 -130z" />
<glyph unicode="&#xa5;" horiz-adv-x="1187" d="M143 1382l289 21l197 -539h4l346 518l309 19l8 -10l-577 -797l-2 -6h190l-22 -133h-193l-14 -80h192l-24 -133h-191l-14 -80l-6 -152l-297 -20l43 252h-195l25 133h192l15 80h-193l23 133h192l2 6z" />
<glyph unicode="&#xa6;" horiz-adv-x="1085" d="M442 246h201v-717h-201v717zM442 819v717h201v-717h-201z" />
<glyph unicode="&#xa7;" horiz-adv-x="1167" d="M-25 -211l101 209q66 -47 162 -82t200 -35q92 0 151.5 35t59.5 102q0 98 -250 199q-135 53 -212.5 135t-77.5 199q0 86 51 178t149 164q-92 78 -92 186q0 61 28.5 123t86 111t144.5 79.5t206 30.5q63 0 120.5 -10t109 -27.5t92 -38t71.5 -40.5l-104 -199q-31 23 -69 42 t-78 33.5t-79.5 22.5t-74.5 8q-98 0 -146.5 -29.5t-48.5 -74.5q0 -39 48 -79t175 -93q94 -39 157 -82t100.5 -89t54 -96.5t16.5 -103.5q0 -98 -49 -184t-143 -147q74 -86 73 -191q0 -96 -41 -167t-108.5 -117t-153.5 -68.5t-174 -22.5q-160 0 -280.5 38t-174.5 81zM369 602 q0 -25 11 -52.5t40 -56t77 -58t124 -60.5l65 -31q41 39 58.5 88t17.5 94q0 61 -41 112.5t-146 100.5l-106 52q-47 -39 -73.5 -88.5t-26.5 -100.5z" />
<glyph unicode="&#xa8;" horiz-adv-x="1024" d="M213 1073q0 53 40 92t91 39q53 0 91 -39t38 -92q0 -51 -38 -89t-91 -38q-51 0 -91 38t-40 89zM575 1073q0 53 39 92t93 39q25 0 47 -10t40.5 -28.5t30 -42t11.5 -50.5q0 -25 -11.5 -48.5t-30 -40.5t-41 -27.5t-46.5 -10.5q-53 0 -92.5 38t-39.5 89z" />
<glyph unicode="&#xa9;" horiz-adv-x="1617" d="M170 662q0 131 50 247.5t138 203.5t204 137t249 50q137 0 255 -50t202 -137t132 -203.5t48 -247.5q0 -133 -46 -249t-130 -204t-202 -138.5t-259 -50.5q-133 0 -249 47.5t-204 132.5t-138 203t-50 259zM291 657q0 -115 40 -211t109.5 -165.5t164.5 -108.5t208 -39 q111 0 205 39t162.5 108.5t107.5 166t39 210.5q0 119 -40 217.5t-109.5 169t-163.5 109.5t-203 39t-203 -40t-164.5 -111.5t-111.5 -169t-41 -214.5zM467 655q0 88 29.5 158t79 118t115 73.5t138.5 25.5q78 0 143.5 -23.5t100.5 -45.5l-33 -125q-12 6 -32.5 17t-48 22.5 t-61.5 18.5t-71 7q-41 0 -80.5 -14.5t-70.5 -44t-49.5 -74.5t-18.5 -109q0 -98 61.5 -162.5t159.5 -64.5q68 0 121.5 21.5t100.5 50.5l36 -123q-45 -33 -114.5 -55.5t-145.5 -22.5q-80 0 -146.5 27.5t-114.5 76t-73.5 112t-25.5 136.5z" />
<glyph unicode="&#xaa;" horiz-adv-x="737" d="M49 885q33 49 83 87t110.5 63.5t129 37.5t136.5 10l8 39q12 51 -20.5 73t-73.5 22q-43 0 -96.5 -23t-116.5 -64l-70 154q66 49 158 81t182 32q57 0 109.5 -17.5t88.5 -50.5t53.5 -81t4.5 -109l-59 -305q-10 -47 0 -83t31 -53v-16l-160 -94q-39 16 -53.5 47t-18.5 65h-8 q-39 -55 -97.5 -81.5t-117.5 -26.5q-111 0 -166 78t-37 215zM258 874q-4 -59 22.5 -84.5t63.5 -25.5q12 0 34.5 6t44 25.5t39 56.5t21.5 98q-57 8 -123.5 -13.5t-101.5 -62.5z" />
<glyph unicode="&#xab;" horiz-adv-x="1269" d="M94 449l4 18l527 473l104 -109l-379 -389l189 -358l-131 -92zM524 449l4 18l527 473l104 -109l-379 -389l189 -358l-131 -92z" />
<glyph unicode="&#xac;" horiz-adv-x="1085" d="M68 502v139h936v-535h-140v396h-796z" />
<glyph unicode="&#xad;" horiz-adv-x="696" d="M45 360l21 240l512 21l-21 -240z" />
<glyph unicode="&#xae;" horiz-adv-x="1146" d="M115 965q0 98 35.5 182t98 145.5t146.5 96t178 34.5q98 0 182.5 -34.5t146 -96t96 -145.5t34.5 -182t-35.5 -182.5t-98 -146t-146.5 -96t-179 -34.5q-94 0 -178 32.5t-146.5 93t-98 145t-35.5 188.5zM221 963q0 -80 26.5 -145.5t74 -113t112 -73t141.5 -25.5 q72 0 135.5 25.5t111.5 73t76 113t28 145.5t-28 146.5t-76 113.5t-112.5 73.5t-136.5 26.5q-82 0 -146.5 -28.5t-110.5 -78t-70.5 -114.5t-24.5 -139zM403 725v510h170q86 0 132.5 -38t46.5 -110q0 -53 -32 -93t-93 -50l178 -211v-8h-111l-174 213h-16v-213h-101zM504 1026 h82q29 0 47 14t18 47q0 31 -20.5 45.5t-50.5 14.5h-76v-121z" />
<glyph unicode="&#xaf;" horiz-adv-x="1024" d="M262 928v133h500v-133h-500z" />
<glyph unicode="&#xb0;" horiz-adv-x="757" d="M129 1128q0 61 23.5 114.5t63.5 93.5t93 63.5t113 23.5q61 0 114.5 -23.5t93.5 -63.5t63.5 -93t23.5 -115q0 -59 -23.5 -112t-63.5 -93t-93.5 -63.5t-114.5 -23.5q-59 0 -112.5 23.5t-93.5 63.5t-63.5 93t-23.5 112zM268 1128q0 -68 42 -117.5t110 -49.5q70 0 112.5 50 t42.5 117q0 70 -43 121t-112 51q-68 0 -110 -51t-42 -121z" />
<glyph unicode="&#xb1;" horiz-adv-x="1085" d="M88 57v164h909v-164h-909zM88 719v164h373v393h164v-393h372v-164h-372v-393h-164v393h-373z" />
<glyph unicode="&#xb2;" horiz-adv-x="593" d="M53 840l6 78q117 92 201 160.5t139.5 125t81 102.5t25.5 93q0 35 -24.5 52t-65.5 17t-93.5 -20.5t-93.5 -42.5l-36 143q14 10 41.5 24.5t63.5 28t78 22.5t87 9q98 0 164.5 -43t66.5 -145q0 -94 -88 -208t-256 -226l4 -9l264 25l-28 -166z" />
<glyph unicode="&#xb3;" horiz-adv-x="593" d="M100 874l37 154h4q41 -18 87 -27.5t91 -9.5q53 0 97.5 21.5t44.5 74.5q0 37 -25.5 57.5t-73.5 20.5l-137 -6l39 156l119 -6q51 -2 85 28.5t34 65.5q0 39 -28 54.5t-68 15.5q-43 0 -82 -13.5t-64 -27.5h-8l-41 143q37 16 101.5 36.5t152.5 20.5q98 0 161.5 -43t63.5 -129 q0 -84 -49 -140t-127 -79l-2 -10q55 -18 91 -55t36 -97q0 -51 -22.5 -95t-65.5 -78t-106.5 -53t-145.5 -19q-68 0 -115 10t-84 30z" />
<glyph unicode="&#xb4;" horiz-adv-x="1024" d="M383 928l4 16l246 336h285l-5 -20l-364 -332h-166z" />
<glyph unicode="&#xb6;" horiz-adv-x="1310" d="M123 862q0 121 46 219.5t124 167t179 106.5t212 38h684l-29 -168h-120l-244 -1377l-8 -159l-226 -21l273 1557h-113l-246 -1381l-6 -155l-225 -21l143 830q-98 0 -180 24.5t-140.5 71.5t-91 114.5t-32.5 153.5zM422 868q0 -88 45 -140t133 -52l96 549q-53 0 -102 -27 t-88 -74t-61.5 -112.5t-22.5 -143.5z" />
<glyph unicode="&#xb7;" horiz-adv-x="552" d="M111 567q0 66 46 112t111 46q66 0 112 -46t46 -112t-46 -111.5t-112 -45.5t-111.5 45.5t-45.5 111.5z" />
<glyph unicode="&#xb8;" horiz-adv-x="1024" d="M311 -195l158 236h137l-108 -154q39 0 75.5 -7t64.5 -24.5t45 -44t17 -63.5q0 -78 -101 -134t-282 -73l-2 92q76 10 132.5 37t56.5 68q0 29 -35 43t-88 14q-12 0 -31.5 -1t-32.5 -3z" />
<glyph unicode="&#xb9;" horiz-adv-x="593" d="M236 1444l22 155l295 31l16 -14l-106 -608l-6 -150l-195 -16l105 614z" />
<glyph unicode="&#xba;" horiz-adv-x="819" d="M72 893q0 104 31.5 196.5t90 160t140.5 107.5t182 40q68 0 123 -23.5t95 -65.5t62.5 -98.5t22.5 -119.5q0 -102 -31.5 -191.5t-90 -157t-139.5 -106.5t-179 -39q-63 0 -119.5 21.5t-97.5 61.5t-65.5 94t-24.5 120zM295 930q0 -70 31 -108t84 -38q43 0 77.5 26t59 65.5 t37 89t12.5 96.5q0 66 -26.5 106.5t-86.5 40.5q-39 0 -73.5 -24.5t-60 -63.5t-40 -89t-14.5 -101z" />
<glyph unicode="&#xbb;" horiz-adv-x="1269" d="M49 100l379 389l-188 359l131 92l313 -457l-4 -18l-526 -473zM479 100l379 389l-188 359l131 92l313 -457l-4 -18l-526 -473z" />
<glyph unicode="&#xbc;" horiz-adv-x="1515" d="M86 -39l631 746l590 733l94 -64l-613 -714l-610 -768zM256 1239l23 156l294 30l17 -14l-107 -608l-6 -150l-194 -16l104 614zM705 109v88l362 475l205 20l-72 -416l82 5l-27 -152l-81 -4l-19 -90l-6 -107l-184 -20l36 211zM895 260l2 -4l131 6l43 240l-4 2z" />
<glyph unicode="&#xbd;" horiz-adv-x="1515" d="M86 -39l631 746l590 733l94 -64l-613 -714l-610 -768zM256 1239l23 156l294 30l17 -14l-107 -608l-6 -150l-194 -16l104 614zM713 -92l6 78q117 92 201 160.5t139 125t80.5 102.5t25.5 93q0 35 -24.5 52.5t-65.5 17.5t-93 -20.5t-93 -43.5l-37 143q14 10 42 24.5t63.5 28 t77.5 22.5t87 9q98 0 165 -43t67 -145q0 -94 -88 -208t-256 -226l4 -8l264 24l-29 -166z" />
<glyph unicode="&#xbe;" horiz-adv-x="1515" d="M86 -39l631 746l590 733l94 -64l-613 -714l-610 -768zM121 670l37 153h4q41 -18 87 -27.5t91 -9.5q53 0 97 21.5t44 75.5q0 37 -25.5 57.5t-72.5 20.5l-137 -7l39 156l118 -6q51 -2 85 28.5t34 65.5q0 39 -27.5 54.5t-68.5 15.5q-43 0 -82 -13.5t-63 -27.5h-9l-41 143 q37 16 101.5 36.5t152.5 20.5q98 0 162 -43t64 -129q0 -84 -49.5 -140t-126.5 -79l-3 -10q55 -18 91 -55t36 -97q0 -51 -22.5 -95t-65.5 -77.5t-106.5 -53t-145.5 -19.5q-68 0 -114.5 10t-83.5 31zM705 109v88l362 475l205 20l-72 -416l82 5l-27 -152l-81 -4l-19 -90 l-6 -107l-184 -20l36 211zM895 260l2 -4l131 6l43 240l-4 2z" />
<glyph unicode="&#xbf;" horiz-adv-x="921" d="M-10 37q0 84 40 143.5t100 103.5t131 76.5t131.5 59t100 52.5t39.5 58q0 51 -59 52q-59 0 -111 -37l-43 162q53 29 109.5 40t116.5 11q102 0 174 -48t72 -139q0 -78 -39 -132t-96.5 -94t-126 -70.5t-126 -62.5t-96.5 -67.5t-39 -85.5q0 -41 32 -59t77 -18q125 0 280 84 l60 -207q-72 -41 -173.5 -70t-213.5 -29q-68 0 -130.5 17.5t-108.5 52.5t-73.5 87t-27.5 120zM504 1040q0 66 46 112t112 46t111.5 -46t45.5 -112t-46 -111.5t-111 -45.5q-66 0 -112 46t-46 111z" />
<glyph unicode="&#xc0;" horiz-adv-x="1392" d="M-84 12l922 1381h163l234 -1383l-272 -20l-45 289l-533 -15l-164 -254l-297 -18zM539 504l344 14l-58 412h-14zM668 1765l4 21h264l162 -254l-2 -16h-156z" />
<glyph unicode="&#xc1;" horiz-adv-x="1392" d="M-84 12l922 1381h163l234 -1383l-272 -20l-45 289l-533 -15l-164 -254l-297 -18zM539 504l344 14l-58 412h-14zM791 1516l2 16l231 254h285l-4 -21l-349 -249h-165z" />
<glyph unicode="&#xc2;" horiz-adv-x="1392" d="M-84 12l922 1381h163l234 -1383l-272 -20l-45 289l-533 -15l-164 -254l-297 -18zM539 504l344 14l-58 412h-14zM662 1516l2 16l315 254h125l201 -254l-2 -16h-158l-131 108l-178 -108h-174z" />
<glyph unicode="&#xc3;" horiz-adv-x="1392" d="M-84 12l922 1381h163l234 -1383l-272 -20l-45 289l-533 -15l-164 -254l-297 -18zM539 504l344 14l-58 412h-14zM651 1530q0 129 59.5 197.5t143.5 68.5q41 0 74 -17.5t59.5 -38t50 -37.5t47.5 -17q35 0 53.5 32.5t18.5 73.5h143q0 -53 -14 -101.5t-40.5 -85t-63.5 -58 t-82 -21.5q-43 0 -75 17.5t-56.5 36.5t-47 36.5t-49.5 17.5q-39 0 -60 -30.5t-21 -73.5h-140z" />
<glyph unicode="&#xc4;" horiz-adv-x="1392" d="M-84 12l922 1381h163l234 -1383l-272 -20l-45 289l-533 -15l-164 -254l-297 -18zM539 504l344 14l-58 412h-14zM653 1640q0 53 40 92.5t91 39.5q53 0 91 -39.5t38 -92.5q0 -51 -37.5 -89t-91.5 -38q-51 0 -91 38t-40 89zM1016 1640q0 53 39 92.5t92 39.5q25 0 47.5 -10.5 t40.5 -29t29.5 -42t11.5 -50.5q0 -25 -11.5 -48t-29.5 -40.5t-41 -28t-47 -10.5q-53 0 -92 38t-39 89z" />
<glyph unicode="&#xc5;" horiz-adv-x="1392" d="M-84 12l922 1381h163l234 -1383l-272 -20l-45 289l-533 -15l-164 -254l-297 -18zM539 504l344 14l-58 412h-14zM745 1708q0 49 18.5 91t49.5 73t73 49t91 18t91 -18t72.5 -49t49 -73t18.5 -91t-18.5 -91t-49 -73t-72.5 -49t-91 -18t-91 18t-73 49t-49.5 73t-18.5 91z M881 1708q0 -43 25.5 -72.5t68.5 -29.5q41 0 68.5 29.5t27.5 72.5q0 41 -27.5 74t-68.5 33q-43 0 -68.5 -33t-25.5 -74z" />
<glyph unicode="&#xc6;" horiz-adv-x="1843" d="M-84 12l1104 1370h18l844 21l-63 -254l-527 -19l-53 -303l492 21l-66 -254l-471 -21l-57 -329l567 20l-64 -254l-825 -20l53 289l-430 -13l-196 -256l-318 -18zM621 506l292 12l37 189l47 274h-24z" />
<glyph unicode="&#xc7;" horiz-adv-x="1351" d="M74 557q0 184 67.5 343t181 275.5t265 182t319.5 65.5q152 0 262.5 -50t186.5 -124l-150 -213h-12q-45 49 -121 88t-182 39q-104 0 -197.5 -41t-164 -114.5t-113.5 -178t-49 -233.5q0 -86 26.5 -153.5t73.5 -115.5t110.5 -73t135.5 -25q109 0 204 37t173 101h12l117 -207 q-90 -76 -210 -127t-268 -62l-59 -84q39 0 76 -7t64.5 -24.5t45 -44t17.5 -63.5q0 -78 -101.5 -134t-281.5 -73l-2 92q76 10 132 37t56 68q0 29 -35 43t-88 14q-12 0 -31.5 -1t-31.5 -3l-6 14l110 168q-123 12 -222 62.5t-168 128.5t-105.5 179t-36.5 214z" />
<glyph unicode="&#xc8;" horiz-adv-x="1044" d="M16 -10l136 717l71 462l17 213l843 21l-63 -254l-526 -19l-54 -303l492 21l-66 -254l-471 -21l-57 -329l567 20l-63 -254zM381 1765l4 21h264l162 -254l-2 -16h-156z" />
<glyph unicode="&#xc9;" horiz-adv-x="1044" d="M16 -10l136 717l71 462l17 213l843 21l-63 -254l-526 -19l-54 -303l492 21l-66 -254l-471 -21l-57 -329l567 20l-63 -254zM504 1516l2 16l231 254h285l-4 -21l-348 -249h-166z" />
<glyph unicode="&#xca;" horiz-adv-x="1044" d="M16 -10l136 717l71 462l17 213l843 21l-63 -254l-526 -19l-54 -303l492 21l-66 -254l-471 -21l-57 -329l567 20l-63 -254zM375 1516l2 16l315 254h125l201 -254l-2 -16h-158l-131 108l-178 -108h-174z" />
<glyph unicode="&#xcb;" horiz-adv-x="1044" d="M16 -10l136 717l71 462l17 213l843 21l-63 -254l-526 -19l-54 -303l492 21l-66 -254l-471 -21l-57 -329l567 20l-63 -254zM367 1640q0 53 39.5 92.5t91.5 39.5q53 0 91 -39.5t38 -92.5q0 -51 -38 -89t-91 -38q-51 0 -91 38t-40 89zM729 1640q0 53 39 92.5t92 39.5 q25 0 47.5 -10.5t41 -29t29.5 -42t11 -50.5q0 -25 -11 -48t-29.5 -40.5t-41 -28t-47.5 -10.5q-53 0 -92 38t-39 89z" />
<glyph unicode="&#xcc;" horiz-adv-x="552" d="M20 -10l136 735l71 436l17 221l309 21l-135 -711l-70 -430l-20 -252zM125 1765l4 21h264l162 -254l-2 -16h-156z" />
<glyph unicode="&#xcd;" horiz-adv-x="552" d="M20 -10l136 735l71 436l17 221l309 21l-135 -711l-70 -430l-20 -252zM248 1516l2 16l231 254h285l-4 -21l-348 -249h-166z" />
<glyph unicode="&#xce;" horiz-adv-x="552" d="M20 -10l136 735l71 436l17 221l309 21l-135 -711l-70 -430l-20 -252zM119 1516l2 16l315 254h125l201 -254l-2 -16h-158l-131 108l-178 -108h-174z" />
<glyph unicode="&#xcf;" horiz-adv-x="552" d="M20 -10l136 735l71 436l17 221l309 21l-135 -711l-70 -430l-20 -252zM111 1640q0 53 39.5 92.5t91.5 39.5q53 0 91 -39.5t38 -92.5q0 -51 -38 -89t-91 -38q-51 0 -91 38t-40 89zM473 1640q0 53 39 92.5t92 39.5q25 0 47.5 -10.5t41 -29t29.5 -42t11 -50.5q0 -25 -11 -48 t-29.5 -40.5t-41 -28t-47.5 -10.5q-53 0 -92 38t-39 89z" />
<glyph unicode="&#xd0;" horiz-adv-x="1372" d="M-12 608l24 142l144 4l67 411l15 217l387 17q143 6 266 -33t214 -117t143 -191.5t52 -256.5q0 -172 -67.5 -316.5t-182 -250t-264 -165t-311.5 -59.5l-455 -20l111 622zM342 254l168 10q98 6 188 44t160 104.5t111 161t41 212.5q0 92 -34 162t-87 115t-120 65.5 t-134 16.5l-135 -8l-70 -375l254 8l-25 -141l-253 -8z" />
<glyph unicode="&#xd1;" horiz-adv-x="1536" d="M16 -10l138 758l106 641l174 8l647 -912h13l118 678l19 219l295 21l-137 -746l-107 -653l-168 -8l-653 928h-10l-117 -680l-21 -234zM567 1530q0 129 59.5 197.5t143.5 68.5q41 0 74 -17.5t59.5 -38t50 -37.5t47.5 -17q35 0 53.5 32.5t18.5 73.5h144q0 -53 -14.5 -101.5 t-41 -85t-63.5 -58t-82 -21.5q-43 0 -75 17.5t-56.5 36.5t-47 36.5t-49.5 17.5q-39 0 -60 -30.5t-21 -73.5h-140z" />
<glyph unicode="&#xd2;" horiz-adv-x="1576" d="M74 569q0 178 66.5 334t180 271.5t262 182t312.5 66.5q129 0 240.5 -42t194.5 -120.5t131 -192.5t48 -257q0 -184 -66.5 -339t-179 -266.5t-261 -174t-314.5 -62.5q-135 0 -247.5 44t-193.5 124t-127 189.5t-46 242.5zM367 592q0 -88 27.5 -155.5t74.5 -114t109.5 -70 t134.5 -23.5q106 0 199.5 44t162 120t107.5 179.5t39 220.5q0 86 -25 154.5t-70 116.5t-108.5 73.5t-138.5 25.5q-98 0 -190.5 -43t-164 -119.5t-114.5 -181t-43 -227.5zM653 1765l4 21h265l161 -254l-2 -16h-155z" />
<glyph unicode="&#xd3;" horiz-adv-x="1576" d="M74 569q0 178 66.5 334t180 271.5t262 182t312.5 66.5q129 0 240.5 -42t194.5 -120.5t131 -192.5t48 -257q0 -184 -66.5 -339t-179 -266.5t-261 -174t-314.5 -62.5q-135 0 -247.5 44t-193.5 124t-127 189.5t-46 242.5zM367 592q0 -88 27.5 -155.5t74.5 -114t109.5 -70 t134.5 -23.5q106 0 199.5 44t162 120t107.5 179.5t39 220.5q0 86 -25 154.5t-70 116.5t-108.5 73.5t-138.5 25.5q-98 0 -190.5 -43t-164 -119.5t-114.5 -181t-43 -227.5zM776 1516l2 16l232 254h284l-4 -21l-348 -249h-166z" />
<glyph unicode="&#xd4;" horiz-adv-x="1576" d="M74 569q0 178 66.5 334t180 271.5t262 182t312.5 66.5q129 0 240.5 -42t194.5 -120.5t131 -192.5t48 -257q0 -184 -66.5 -339t-179 -266.5t-261 -174t-314.5 -62.5q-135 0 -247.5 44t-193.5 124t-127 189.5t-46 242.5zM367 592q0 -88 27.5 -155.5t74.5 -114t109.5 -70 t134.5 -23.5q106 0 199.5 44t162 120t107.5 179.5t39 220.5q0 86 -25 154.5t-70 116.5t-108.5 73.5t-138.5 25.5q-98 0 -190.5 -43t-164 -119.5t-114.5 -181t-43 -227.5zM647 1516l2 16l316 254h125l200 -254l-2 -16h-158l-131 108l-178 -108h-174z" />
<glyph unicode="&#xd5;" horiz-adv-x="1576" d="M74 569q0 178 66.5 334t180 271.5t262 182t312.5 66.5q129 0 240.5 -42t194.5 -120.5t131 -192.5t48 -257q0 -184 -66.5 -339t-179 -266.5t-261 -174t-314.5 -62.5q-135 0 -247.5 44t-193.5 124t-127 189.5t-46 242.5zM367 592q0 -88 27.5 -155.5t74.5 -114t109.5 -70 t134.5 -23.5q106 0 199.5 44t162 120t107.5 179.5t39 220.5q0 86 -25 154.5t-70 116.5t-108.5 73.5t-138.5 25.5q-98 0 -190.5 -43t-164 -119.5t-114.5 -181t-43 -227.5zM637 1530q0 129 59.5 197.5t143.5 68.5q41 0 73.5 -17.5t59 -38t50.5 -37.5t48 -17q35 0 53.5 32.5 t18.5 73.5h143q0 -53 -14.5 -101.5t-41 -85t-63.5 -58t-82 -21.5q-43 0 -74.5 17.5t-56 36.5t-47 36.5t-49.5 17.5q-39 0 -60.5 -30.5t-21.5 -73.5h-139z" />
<glyph unicode="&#xd6;" horiz-adv-x="1576" d="M74 569q0 178 66.5 334t180 271.5t262 182t312.5 66.5q129 0 240.5 -42t194.5 -120.5t131 -192.5t48 -257q0 -184 -66.5 -339t-179 -266.5t-261 -174t-314.5 -62.5q-135 0 -247.5 44t-193.5 124t-127 189.5t-46 242.5zM367 592q0 -88 27.5 -155.5t74.5 -114t109.5 -70 t134.5 -23.5q106 0 199.5 44t162 120t107.5 179.5t39 220.5q0 86 -25 154.5t-70 116.5t-108.5 73.5t-138.5 25.5q-98 0 -190.5 -43t-164 -119.5t-114.5 -181t-43 -227.5zM639 1640q0 53 40 92.5t91 39.5q53 0 91 -39.5t38 -92.5q0 -51 -38 -89t-91 -38q-51 0 -91 38t-40 89z M1001 1640q0 53 39 92.5t93 39.5q25 0 47 -10.5t40.5 -29t30 -42t11.5 -50.5q0 -25 -11.5 -48t-30 -40.5t-41 -28t-46.5 -10.5q-53 0 -92.5 38t-39.5 89z" />
<glyph unicode="&#xd7;" horiz-adv-x="1085" d="M100 279l326 327l-326 328l115 115l328 -326l327 326l115 -115l-326 -328l326 -327l-115 -115l-327 325l-328 -325z" />
<glyph unicode="&#xd8;" horiz-adv-x="1576" d="M70 -23l161 175q-76 78 -116.5 184t-40.5 233q0 178 66.5 334t180 271.5t262 182t312.5 66.5q229 0 393 -129l156 168l84 -76l-158 -169q66 -78 102.5 -179.5t36.5 -226.5q0 -184 -66.5 -339t-179 -266.5t-261 -174t-314.5 -62.5q-109 0 -202 28t-169 81l-163 -176z M367 592q0 -133 63 -225l668 723q-90 74 -219 73q-98 0 -190.5 -43t-164 -119.5t-114.5 -181t-43 -227.5zM510 289q88 -60 203 -60q106 0 199.5 44t162 120t107.5 179.5t39 220.5q0 59 -13.5 112t-36.5 96z" />
<glyph unicode="&#xd9;" horiz-adv-x="1413" d="M98.5 308q-12.5 91 3.5 177l115 650l25 247l297 21l-156 -864q-12 -63 -5 -118.5t34.5 -97.5t80 -67t132.5 -25q59 0 117.5 16.5t106.5 54.5t83 98.5t49 148.5l90 549l31 284l295 21l-154 -889q-25 -135 -84 -237.5t-146 -171t-197.5 -102.5t-235.5 -34 q-162 0 -262.5 49.5t-153.5 124t-65.5 165.5zM557 1765l4 21h264l162 -254l-2 -16h-156z" />
<glyph unicode="&#xda;" horiz-adv-x="1413" d="M98.5 308q-12.5 91 3.5 177l115 650l25 247l297 21l-156 -864q-12 -63 -5 -118.5t34.5 -97.5t80 -67t132.5 -25q59 0 117.5 16.5t106.5 54.5t83 98.5t49 148.5l90 549l31 284l295 21l-154 -889q-25 -135 -84 -237.5t-146 -171t-197.5 -102.5t-235.5 -34 q-162 0 -262.5 49.5t-153.5 124t-65.5 165.5zM680 1516l2 16l231 254h285l-4 -21l-348 -249h-166z" />
<glyph unicode="&#xdb;" horiz-adv-x="1413" d="M98.5 308q-12.5 91 3.5 177l115 650l25 247l297 21l-156 -864q-12 -63 -5 -118.5t34.5 -97.5t80 -67t132.5 -25q59 0 117.5 16.5t106.5 54.5t83 98.5t49 148.5l90 549l31 284l295 21l-154 -889q-25 -135 -84 -237.5t-146 -171t-197.5 -102.5t-235.5 -34 q-162 0 -262.5 49.5t-153.5 124t-65.5 165.5zM551 1516l2 16l315 254h125l201 -254l-2 -16h-158l-131 108l-178 -108h-174z" />
<glyph unicode="&#xdc;" horiz-adv-x="1413" d="M98.5 308q-12.5 91 3.5 177l115 650l25 247l297 21l-156 -864q-12 -63 -5 -118.5t34.5 -97.5t80 -67t132.5 -25q59 0 117.5 16.5t106.5 54.5t83 98.5t49 148.5l90 549l31 284l295 21l-154 -889q-25 -135 -84 -237.5t-146 -171t-197.5 -102.5t-235.5 -34 q-162 0 -262.5 49.5t-153.5 124t-65.5 165.5zM543 1640q0 53 40 92.5t91 39.5q53 0 91 -39.5t38 -92.5q0 -51 -38 -89t-91 -38q-51 0 -91 38t-40 89zM905 1640q0 53 39 92.5t92 39.5q25 0 47.5 -10.5t41 -29t29.5 -42t11 -50.5q0 -25 -11 -48t-29.5 -40.5t-41 -28 t-47.5 -10.5q-53 0 -92 38t-39 89z" />
<glyph unicode="&#xdd;" horiz-adv-x="1208" d="M129 1382l287 21l207 -539h4l374 518l302 19l12 -17l-586 -790l-78 -440l-6 -144l-297 -20l105 604zM569 1516l2 16l232 254h284l-4 -21l-348 -249h-166z" />
<glyph unicode="&#xde;" horiz-adv-x="1064" d="M16 -10l224 1261v131l297 11l-43 -236h90q211 0 326.5 -98t115.5 -281q0 -113 -44 -208t-120 -164.5t-175 -108.5t-212 -39h-141l-15 -84l-6 -164zM379 508h106q45 0 89 13.5t79 41t57.5 69.5t22.5 101q0 88 -50 131t-126 43h-106z" />
<glyph unicode="&#xdf;" horiz-adv-x="1126" d="M18 -193l154 891h-131l31 179l143 65l10 64q16 100 63.5 177t113 129t143.5 78.5t155 26.5q131 0 219.5 -48t130.5 -135t36.5 -208t-56.5 -266q-49 6 -88 6q-49 0 -78.5 -11.5t-47 -26.5t-23 -32.5t-5.5 -29.5q0 -39 35 -71t76 -72t76 -98t35 -151q0 -76 -29 -133 t-76 -95t-107.5 -56.5t-123.5 -18.5q-78 0 -142.5 21.5t-99.5 50.5l100 203q33 -23 66 -37t78 -14q37 0 66.5 16t29.5 51q0 45 -37 82t-81 78t-80.5 91t-36.5 124q0 72 23.5 129t63.5 97t93 64.5t110 30.5q29 98 -8 162t-119 64q-88 0 -143 -62.5t-72 -148.5l-174 -967 l-6 -178z" />
<glyph unicode="&#xe0;" horiz-adv-x="921" d="M-18 328q39 59 101 106t137 79t158 46t167 12l10 50q12 61 -27 87.5t-88 26.5q-53 0 -118.5 -28.5t-143.5 -77.5l-86 188q82 61 194.5 100t223.5 39q72 0 135.5 -20.5t108.5 -61t64.5 -100t4.5 -135.5l-71 -375q-10 -57 1 -101t38 -65v-18l-187 -117q-47 23 -65.5 58.5 t-22.5 80.5h-10q-61 -51 -138 -88t-137 -47q-55 6 -105 33t-86 73t-52.5 110.5t-5.5 144.5zM227 1362l4 20h265l147 -335l-4 -17h-156zM233 315q-4 -49 21 -80.5t70 -41.5q20 2 44.5 9t48 18t44 23.5t33.5 22.5l24 142q-35 6 -76 0.5t-79.5 -17.5t-73.5 -31.5t-56 -44.5z " />
<glyph unicode="&#xe1;" horiz-adv-x="921" d="M-18 328q39 59 101 106t137 79t158 46t167 12l10 50q12 61 -27 87.5t-88 26.5q-53 0 -118.5 -28.5t-143.5 -77.5l-86 188q82 61 194.5 100t223.5 39q72 0 135.5 -20.5t108.5 -61t64.5 -100t4.5 -135.5l-71 -375q-10 -57 1 -101t38 -65v-18l-187 -117q-47 23 -65.5 58.5 t-22.5 80.5h-10q-61 -51 -138 -88t-137 -47q-55 6 -105 33t-86 73t-52.5 110.5t-5.5 144.5zM233 315q-4 -49 21 -80.5t70 -41.5q20 2 44.5 9t48 18t44 23.5t33.5 22.5l24 142q-35 6 -76 0.5t-79.5 -17.5t-73.5 -31.5t-56 -44.5zM385 1030l4 17l246 335h285l-5 -20l-364 -332 h-166z" />
<glyph unicode="&#xe2;" horiz-adv-x="921" d="M-18 328q39 59 101 106t137 79t158 46t167 12l10 50q12 61 -27 87.5t-88 26.5q-53 0 -118.5 -28.5t-143.5 -77.5l-86 188q82 61 194.5 100t223.5 39q72 0 135.5 -20.5t108.5 -61t64.5 -100t4.5 -135.5l-71 -375q-10 -57 1 -101t38 -65v-18l-187 -117q-47 23 -65.5 58.5 t-22.5 80.5h-10q-61 -51 -138 -88t-137 -47q-55 6 -105 33t-86 73t-52.5 110.5t-5.5 144.5zM233 315q-4 -49 21 -80.5t70 -41.5q20 2 44.5 9t48 18t44 23.5t33.5 22.5l24 142q-35 6 -76 0.5t-79.5 -17.5t-73.5 -31.5t-56 -44.5zM246 1030l4 17l282 335h125l152 -335l-4 -17 h-158l-88 150l-139 -150h-174z" />
<glyph unicode="&#xe3;" horiz-adv-x="921" d="M-18 328q39 59 101 106t137 79t158 46t167 12l10 50q12 61 -27 87.5t-88 26.5q-53 0 -118.5 -28.5t-143.5 -77.5l-86 188q82 61 194.5 100t223.5 39q72 0 135.5 -20.5t108.5 -61t64.5 -100t4.5 -135.5l-71 -375q-10 -57 1 -101t38 -65v-18l-187 -117q-47 23 -65.5 58.5 t-22.5 80.5h-10q-61 -51 -138 -88t-137 -47q-55 6 -105 33t-86 73t-52.5 110.5t-5.5 144.5zM213 1065q0 129 59.5 197.5t143.5 68.5q41 0 73.5 -17.5t59 -38t50.5 -37.5t48 -17q35 0 53.5 32.5t18.5 73.5h143q0 -53 -14 -101t-41 -85t-63.5 -58.5t-81.5 -21.5 q-43 0 -75 17.5t-56.5 37t-47 36.5t-49.5 17q-39 0 -60.5 -30.5t-21.5 -73.5h-139zM233 315q-4 -49 21 -80.5t70 -41.5q20 2 44.5 9t48 18t44 23.5t33.5 22.5l24 142q-35 6 -76 0.5t-79.5 -17.5t-73.5 -31.5t-56 -44.5z" />
<glyph unicode="&#xe4;" horiz-adv-x="921" d="M-18 328q39 59 101 106t137 79t158 46t167 12l10 50q12 61 -27 87.5t-88 26.5q-53 0 -118.5 -28.5t-143.5 -77.5l-86 188q82 61 194.5 100t223.5 39q72 0 135.5 -20.5t108.5 -61t64.5 -100t4.5 -135.5l-71 -375q-10 -57 1 -101t38 -65v-18l-187 -117q-47 23 -65.5 58.5 t-22.5 80.5h-10q-61 -51 -138 -88t-137 -47q-55 6 -105 33t-86 73t-52.5 110.5t-5.5 144.5zM215 1176q0 53 40 92t91 39q53 0 91 -39t38 -92q0 -51 -38 -89t-91 -38q-51 0 -91 37.5t-40 89.5zM233 315q-4 -49 21 -80.5t70 -41.5q20 2 44.5 9t48 18t44 23.5t33.5 22.5l24 142 q-35 6 -76 0.5t-79.5 -17.5t-73.5 -31.5t-56 -44.5zM578 1176q0 53 38.5 92t92.5 39q25 0 47 -10.5t40.5 -29t30 -41.5t11.5 -50q0 -25 -11.5 -48.5t-30 -41t-41 -27.5t-46.5 -10q-53 0 -92 37.5t-39 89.5z" />
<glyph unicode="&#xe5;" horiz-adv-x="921" d="M-18 328q39 59 101 106t137 79t158 46t167 12l10 50q12 61 -27 87.5t-88 26.5q-53 0 -118.5 -28.5t-143.5 -77.5l-86 188q82 61 194.5 100t223.5 39q72 0 135.5 -20.5t108.5 -61t64.5 -100t4.5 -135.5l-71 -375q-10 -57 1 -101t38 -65v-18l-187 -117q-47 23 -65.5 58.5 t-22.5 80.5h-10q-61 -51 -138 -88t-137 -47q-55 6 -105 33t-86 73t-52.5 110.5t-5.5 144.5zM233 315q-4 -49 21 -80.5t70 -41.5q20 2 44.5 9t48 18t44 23.5t33.5 22.5l24 142q-35 6 -76 0.5t-79.5 -17.5t-73.5 -31.5t-56 -44.5zM307 1243q0 49 18.5 91t49.5 73t72.5 49.5 t91.5 18.5q49 0 91 -18.5t72.5 -49.5t49 -73t18.5 -91t-18.5 -91t-49 -72.5t-72.5 -49t-91 -18.5t-91 18.5t-73 49t-49.5 72.5t-18.5 91zM442 1243q0 -43 26 -72.5t69 -29.5q41 0 68.5 29.5t27.5 72.5q0 41 -27.5 74t-68.5 33q-43 0 -69 -33t-26 -74z" />
<glyph unicode="&#xe6;" horiz-adv-x="1433" d="M-18 328q39 59 101 106t137 79t158 46t167 12l10 50q8 31 0 52t-25.5 35.5t-41 20.5t-48.5 6q-53 0 -118.5 -28.5t-143.5 -77.5l-86 188q82 61 194.5 100t223.5 39q72 0 133.5 -29.5t95.5 -88.5q63 55 137 86.5t150 31.5q92 0 165 -35.5t117 -97t57 -141.5t-13 -168 q-45 -35 -117 -63.5t-151.5 -48t-161.5 -27.5t-150 -4q-4 -53 12.5 -88t42 -54.5t57 -26.5t60.5 -7q59 0 130 22.5t124 63.5h8l78 -189q-66 -53 -173 -88t-216 -35q-98 0 -189.5 41t-142.5 135q-80 -86 -159.5 -121.5t-174.5 -56.5q-55 6 -105 32t-85 71t-51.5 109.5 t-5.5 148.5zM233 315q-4 -49 21 -80.5t70 -41.5q23 2 50 11t54 22.5t50.5 28t35.5 26.5q-4 25 -3 55.5t7 71.5q-35 6 -76 0.5t-79.5 -17.5t-73.5 -31.5t-56 -44.5zM797 537q90 -4 178 10t151 47q4 59 -31.5 100t-97.5 41q-66 0 -124 -54t-76 -144z" />
<glyph unicode="&#xe7;" horiz-adv-x="819" d="M-2 348q0 141 45 255t120 191.5t170 119.5t195 42q98 0 172 -30.5t123 -75.5l-118 -193h-9q-39 41 -83 57.5t-87 16.5q-49 0 -94 -27.5t-81 -75.5t-57.5 -111.5t-21.5 -135.5q0 -98 49.5 -142t108.5 -44q109 0 209 71h8l78 -192q-59 -45 -140 -72t-163 -31l-57 -84 q39 0 75.5 -7t64 -24.5t45 -44t17.5 -63.5q0 -78 -101 -134t-282 -73l-2 92q76 10 132.5 37t56.5 68q0 29 -35 43t-88 14q-12 0 -31.5 -1t-32.5 -3l-6 14l115 175q-145 29 -220 131t-75 237z" />
<glyph unicode="&#xe8;" horiz-adv-x="921" d="M-2 336q0 129 45 242.5t117.5 197.5t165 132t188.5 48q92 0 165 -35.5t117 -97t57 -141.5t-13 -168q-45 -35 -117 -63.5t-151.5 -48t-161.5 -27.5t-150 -4q-4 -53 12.5 -88t42 -54.5t57 -26.5t60.5 -7q59 0 130 22.5t124 63.5h8l78 -189q-66 -53 -173 -88t-216 -35 q-70 0 -138.5 20.5t-123.5 64.5t-89 114t-34 168zM225 1362l4 20h265l147 -335l-4 -17h-156zM285 537q90 -4 178 10t151 47q4 59 -31.5 100t-97.5 41q-66 0 -124 -54t-76 -144z" />
<glyph unicode="&#xe9;" horiz-adv-x="921" d="M-2 336q0 129 45 242.5t117.5 197.5t165 132t188.5 48q92 0 165 -35.5t117 -97t57 -141.5t-13 -168q-45 -35 -117 -63.5t-151.5 -48t-161.5 -27.5t-150 -4q-4 -53 12.5 -88t42 -54.5t57 -26.5t60.5 -7q59 0 130 22.5t124 63.5h8l78 -189q-66 -53 -173 -88t-216 -35 q-70 0 -138.5 20.5t-123.5 64.5t-89 114t-34 168zM285 537q90 -4 178 10t151 47q4 59 -31.5 100t-97.5 41q-66 0 -124 -54t-76 -144zM383 1030l4 17l246 335h285l-5 -20l-364 -332h-166z" />
<glyph unicode="&#xea;" horiz-adv-x="921" d="M-2 336q0 129 45 242.5t117.5 197.5t165 132t188.5 48q92 0 165 -35.5t117 -97t57 -141.5t-13 -168q-45 -35 -117 -63.5t-151.5 -48t-161.5 -27.5t-150 -4q-4 -53 12.5 -88t42 -54.5t57 -26.5t60.5 -7q59 0 130 22.5t124 63.5h8l78 -189q-66 -53 -173 -88t-216 -35 q-70 0 -138.5 20.5t-123.5 64.5t-89 114t-34 168zM244 1030l4 17l282 335h125l152 -335l-4 -17h-158l-88 150l-139 -150h-174zM285 537q90 -4 178 10t151 47q4 59 -31.5 100t-97.5 41q-66 0 -124 -54t-76 -144z" />
<glyph unicode="&#xeb;" horiz-adv-x="921" d="M-2 336q0 129 45 242.5t117.5 197.5t165 132t188.5 48q92 0 165 -35.5t117 -97t57 -141.5t-13 -168q-45 -35 -117 -63.5t-151.5 -48t-161.5 -27.5t-150 -4q-4 -53 12.5 -88t42 -54.5t57 -26.5t60.5 -7q59 0 130 22.5t124 63.5h8l78 -189q-66 -53 -173 -88t-216 -35 q-70 0 -138.5 20.5t-123.5 64.5t-89 114t-34 168zM213 1176q0 53 40 92t91 39q53 0 91 -39t38 -92q0 -51 -38 -89t-91 -38q-51 0 -91 37.5t-40 89.5zM285 537q90 -4 178 10t151 47q4 59 -31.5 100t-97.5 41q-66 0 -124 -54t-76 -144zM575 1176q0 53 39 92t93 39 q25 0 47 -10.5t40.5 -29t30 -41.5t11.5 -50q0 -25 -11.5 -48.5t-30 -41t-41 -27.5t-46.5 -10q-53 0 -92.5 37.5t-39.5 89.5z" />
<glyph unicode="&#xec;" horiz-adv-x="471" d="M-18 -10l124 721l13 190l293 33l-133 -764l-11 -160zM-18 1362l4 20h264l147 -335l-4 -17h-155z" />
<glyph unicode="&#xed;" horiz-adv-x="471" d="M-18 -10l124 721l13 190l293 33l-133 -764l-11 -160zM139 1030l4 17l246 335h285l-4 -20l-365 -332h-166z" />
<glyph unicode="&#xee;" horiz-adv-x="471" d="M-18 -10l124 721l13 190l293 33l-133 -764l-11 -160zM0 1030l4 17l283 335h125l151 -335l-4 -17h-158l-88 150l-139 -150h-174z" />
<glyph unicode="&#xef;" horiz-adv-x="471" d="M-31 1176q0 53 40 92t91 39q53 0 91 -39t38 -92q0 -51 -37.5 -89t-91.5 -38q-51 0 -91 37.5t-40 89.5zM-18 -10l124 721l13 190l293 33l-133 -764l-11 -160zM332 1176q0 53 39 92t92 39q25 0 47 -10.5t40.5 -29t30 -41.5t11.5 -50q0 -25 -11.5 -48.5t-30 -41t-41 -27.5 t-46.5 -10q-53 0 -92 37.5t-39 89.5z" />
<glyph unicode="&#xf0;" d="M-2 362q0 125 45 234t116.5 188.5t164 125.5t184.5 46q98 0 166 -51l10 4q-20 59 -58 111.5t-89 93.5l-160 -143l-80 88l139 125q-68 39 -143 61l96 168q117 -39 203 -88l149 135l82 -88l-127 -115q123 -94 184.5 -227t61.5 -313q0 -156 -40 -291t-112.5 -236.5 t-173 -160t-223.5 -58.5q-88 0 -160.5 29t-125 80t-81 122.5t-28.5 159.5zM270 383q0 -84 37 -133t107 -49q47 0 90 28.5t74.5 75.5t50 107t16.5 123q0 86 -38 136t-109 50q-43 0 -83 -26.5t-73 -73t-52.5 -107.5t-19.5 -131z" />
<glyph unicode="&#xf1;" horiz-adv-x="983" d="M-31 -10l123 702l19 226l245 20l4 -131h13q55 68 130 108.5t161 40.5q53 0 100 -20.5t78.5 -59t45 -96t1.5 -131.5l-80 -459l-12 -180l-287 -20l96 563q14 88 -11.5 120t-70.5 32q-47 0 -96 -29t-88 -76l-74 -414l-10 -176zM236 1065q0 129 59 197.5t143 68.5 q41 0 74 -17.5t59.5 -38t50 -37.5t48.5 -17q35 0 53 32.5t18 73.5h144q0 -53 -14.5 -101t-41 -85t-63.5 -58.5t-82 -21.5q-43 0 -74.5 17.5t-56.5 37t-47.5 36.5t-48.5 17q-39 0 -60.5 -30.5t-21.5 -73.5h-139z" />
<glyph unicode="&#xf2;" d="M-2 336q0 129 39 241.5t111.5 197.5t173 133t223.5 48q84 0 152.5 -29.5t117.5 -79.5t77 -119.5t28 -149.5q0 -125 -40 -236t-112 -193.5t-172 -131t-219 -48.5q-78 0 -147.5 27t-121 76t-81 116.5t-29.5 147.5zM272 381q0 -86 39 -133t105 -47q53 0 96 31.5t72.5 82 t45 110.5t15.5 118q0 78 -33.5 130t-105.5 52q-49 0 -91 -29.5t-74 -79t-50.5 -111t-18.5 -124.5zM279 1362l4 20h264l147 -335l-4 -17h-155z" />
<glyph unicode="&#xf3;" d="M-2 336q0 129 39 241.5t111.5 197.5t173 133t223.5 48q84 0 152.5 -29.5t117.5 -79.5t77 -119.5t28 -149.5q0 -125 -40 -236t-112 -193.5t-172 -131t-219 -48.5q-78 0 -147.5 27t-121 76t-81 116.5t-29.5 147.5zM272 381q0 -86 39 -133t105 -47q53 0 96 31.5t72.5 82 t45 110.5t15.5 118q0 78 -33.5 130t-105.5 52q-49 0 -91 -29.5t-74 -79t-50.5 -111t-18.5 -124.5zM436 1030l4 17l246 335h285l-4 -20l-365 -332h-166z" />
<glyph unicode="&#xf4;" d="M-2 336q0 129 39 241.5t111.5 197.5t173 133t223.5 48q84 0 152.5 -29.5t117.5 -79.5t77 -119.5t28 -149.5q0 -125 -40 -236t-112 -193.5t-172 -131t-219 -48.5q-78 0 -147.5 27t-121 76t-81 116.5t-29.5 147.5zM272 381q0 -86 39 -133t105 -47q53 0 96 31.5t72.5 82 t45 110.5t15.5 118q0 78 -33.5 130t-105.5 52q-49 0 -91 -29.5t-74 -79t-50.5 -111t-18.5 -124.5zM297 1030l4 17l283 335h125l151 -335l-4 -17h-158l-88 150l-139 -150h-174z" />
<glyph unicode="&#xf5;" d="M-2 336q0 129 39 241.5t111.5 197.5t173 133t223.5 48q84 0 152.5 -29.5t117.5 -79.5t77 -119.5t28 -149.5q0 -125 -40 -236t-112 -193.5t-172 -131t-219 -48.5q-78 0 -147.5 27t-121 76t-81 116.5t-29.5 147.5zM264 1065q0 129 59.5 197.5t143.5 68.5q41 0 73.5 -17.5 t59.5 -38t50.5 -37.5t47.5 -17q35 0 53.5 32.5t18.5 73.5h143q0 -53 -14 -101t-41 -85t-63.5 -58.5t-81.5 -21.5q-43 0 -75 17.5t-56.5 37t-47 36.5t-49.5 17q-39 0 -60.5 -30.5t-21.5 -73.5h-139zM272 381q0 -86 39 -133t105 -47q53 0 96 31.5t72.5 82t45 110.5t15.5 118 q0 78 -33.5 130t-105.5 52q-49 0 -91 -29.5t-74 -79t-50.5 -111t-18.5 -124.5z" />
<glyph unicode="&#xf6;" d="M-2 336q0 129 39 241.5t111.5 197.5t173 133t223.5 48q84 0 152.5 -29.5t117.5 -79.5t77 -119.5t28 -149.5q0 -125 -40 -236t-112 -193.5t-172 -131t-219 -48.5q-78 0 -147.5 27t-121 76t-81 116.5t-29.5 147.5zM266 1176q0 53 40 92t91 39q53 0 91 -39t38 -92 q0 -51 -37.5 -89t-91.5 -38q-51 0 -91 37.5t-40 89.5zM272 381q0 -86 39 -133t105 -47q53 0 96 31.5t72.5 82t45 110.5t15.5 118q0 78 -33.5 130t-105.5 52q-49 0 -91 -29.5t-74 -79t-50.5 -111t-18.5 -124.5zM629 1176q0 53 39 92t92 39q25 0 47 -10.5t40.5 -29t30 -41.5 t11.5 -50q0 -25 -11.5 -48.5t-30 -41t-41 -27.5t-46.5 -10q-53 0 -92 37.5t-39 89.5z" />
<glyph unicode="&#xf7;" horiz-adv-x="1085" d="M68 535v163h950v-163h-950zM414 281q0 53 37.5 91t91.5 38q53 0 91 -38t38 -91t-38 -91t-91 -38t-91 38t-38 91zM414 952q0 53 37.5 91t91.5 38q53 0 91 -37.5t38 -91.5q0 -53 -38 -91t-91 -38t-91 38t-38 91z" />
<glyph unicode="&#xf8;" d="M-6 -27l98 115q-45 47 -69.5 110.5t-24.5 137.5q0 129 39 241.5t111.5 197.5t173 133t223.5 48q66 0 123 -18t104 -53l88 104l72 -63l-92 -109q80 -102 80 -239q0 -125 -40 -236t-112 -193.5t-172 -131t-219 -48.5q-59 0 -113.5 15.5t-101.5 44.5l-101 -117zM272 381 q0 -45 9 -72l319 377q-35 39 -94 39q-49 0 -91 -29.5t-74 -79t-50.5 -111t-18.5 -124.5zM332 227q33 -26 84 -26q53 0 96 31.5t72.5 82t45 110.5t15.5 118q0 10 -1 22.5t-3 22.5z" />
<glyph unicode="&#xf9;" horiz-adv-x="983" d="M16.5 157.5q-12.5 63.5 3.5 149.5l72 406l17 205l286 20l-100 -555q-16 -86 11.5 -124t84.5 -38q47 0 96.5 33t83.5 94l64 375l14 195l287 20l-135 -780l-6 -148l-236 -20l-6 131h-12q-55 -61 -132 -106.5t-167 -45.5q-55 0 -102.5 20.5t-79 62.5t-44 105.5zM250 1362 l4 20h264l148 -335l-4 -17h-156z" />
<glyph unicode="&#xfa;" horiz-adv-x="983" d="M16.5 157.5q-12.5 63.5 3.5 149.5l72 406l17 205l286 20l-100 -555q-16 -86 11.5 -124t84.5 -38q47 0 96.5 33t83.5 94l64 375l14 195l287 20l-135 -780l-6 -148l-236 -20l-6 131h-12q-55 -61 -132 -106.5t-167 -45.5q-55 0 -102.5 20.5t-79 62.5t-44 105.5zM408 1030 l4 17l245 335h285l-4 -20l-365 -332h-165z" />
<glyph unicode="&#xfb;" horiz-adv-x="983" d="M16.5 157.5q-12.5 63.5 3.5 149.5l72 406l17 205l286 20l-100 -555q-16 -86 11.5 -124t84.5 -38q47 0 96.5 33t83.5 94l64 375l14 195l287 20l-135 -780l-6 -148l-236 -20l-6 131h-12q-55 -61 -132 -106.5t-167 -45.5q-55 0 -102.5 20.5t-79 62.5t-44 105.5zM268 1030 l4 17l283 335h125l151 -335l-4 -17h-157l-88 150l-140 -150h-174z" />
<glyph unicode="&#xfc;" horiz-adv-x="983" d="M16.5 157.5q-12.5 63.5 3.5 149.5l72 406l17 205l286 20l-100 -555q-16 -86 11.5 -124t84.5 -38q47 0 96.5 33t83.5 94l64 375l14 195l287 20l-135 -780l-6 -148l-236 -20l-6 131h-12q-55 -61 -132 -106.5t-167 -45.5q-55 0 -102.5 20.5t-79 62.5t-44 105.5zM238 1176 q0 53 39.5 92t91.5 39q53 0 91 -39t38 -92q0 -51 -38 -89t-91 -38q-51 0 -91 37.5t-40 89.5zM600 1176q0 53 39 92t92 39q25 0 47.5 -10.5t41 -29t29.5 -41.5t11 -50q0 -25 -11 -48.5t-29.5 -41t-41 -27.5t-47.5 -10q-53 0 -92 37.5t-39 89.5z" />
<glyph unicode="&#xfd;" horiz-adv-x="901" d="M-86 -350q45 37 84 78t73.5 91t68.5 111.5t69 139.5l-156 848l262 20l78 -510h13l229 490l291 20l6 -6l-526 -975l-175 -350l-311 -31zM365 1030l4 17l245 335h285l-4 -20l-365 -332h-165z" />
<glyph unicode="&#xfe;" d="M-104 -418l286 1661l6 152l301 24l-118 -594h8q20 23 51 44.5t66.5 40t73.5 31.5t73 17q127 -23 202 -119t75 -241q0 -176 -51.5 -296t-124 -193.5t-151.5 -106.5t-136 -33q-78 0 -124 29t-81 76h-10l-45 -291l-11 -176zM276 276q12 -31 43 -53t80 -22q35 0 77 23.5 t78 67.5t60.5 105.5t24.5 137.5t-32.5 118t-67.5 52q-53 0 -113.5 -37t-95.5 -86z" />
<glyph unicode="&#xff;" horiz-adv-x="901" d="M-86 -350q45 37 84 78t73.5 91t68.5 111.5t69 139.5l-156 848l262 20l78 -510h13l229 490l291 20l6 -6l-526 -975l-175 -350l-311 -31zM195 1176q0 53 39.5 92t91.5 39q53 0 91 -39t38 -92q0 -51 -38 -89t-91 -38q-51 0 -91 37.5t-40 89.5zM557 1176q0 53 39 92t92 39 q25 0 47.5 -10.5t41 -29t29.5 -41.5t11 -50q0 -25 -11 -48.5t-29.5 -41t-41 -27.5t-47.5 -10q-53 0 -92 37.5t-39 89.5z" />
<glyph unicode="&#x152;" horiz-adv-x="1884" d="M74 569q0 178 65.5 334t176 271.5t255 182t303.5 66.5q111 0 211 -41l838 21l-63 -254l-527 -19l-53 -303l492 21l-66 -254l-471 -21l-57 -329l567 20l-64 -254l-807 -20q-47 -10 -93 -15.5t-93 -5.5q-135 0 -247.5 44t-193.5 124t-127 189.5t-46 242.5zM367 592 q0 -88 27.5 -155.5t74.5 -114t109.5 -70t134.5 -23.5q104 0 196 43l82 435l60 387q-82 70 -193 69q-94 0 -182 -43t-156.5 -119.5t-110.5 -181t-42 -227.5z" />
<glyph unicode="&#x153;" horiz-adv-x="1576" d="M-2 336q0 129 39 241.5t111.5 197.5t173 133t223.5 48q102 0 178 -46t121 -124q68 78 152.5 124t172.5 46q92 0 165 -35.5t117 -97t57.5 -141.5t-13.5 -168q-45 -35 -116.5 -63.5t-151.5 -48t-162 -27.5t-150 -4q-4 -53 12.5 -88t42 -54.5t57.5 -26.5t60 -7 q59 0 130 22.5t124 63.5h9l77 -189q-66 -53 -173 -88t-216 -35q-90 0 -174 36t-137 118q-66 -72 -155 -113t-195 -41q-78 0 -147.5 27t-121 76t-81 116.5t-29.5 147.5zM272 381q0 -86 39 -133t105 -47q53 0 96 31.5t72.5 82t45 110.5t15.5 118q0 78 -33.5 130t-105.5 52 q-49 0 -91 -29.5t-74 -79t-50.5 -111t-18.5 -124.5zM940 537q90 -4 178 10t152 47q4 59 -32 100t-97 41q-66 0 -124.5 -54t-76.5 -144z" />
<glyph unicode="&#x178;" horiz-adv-x="1208" d="M129 1382l287 21l207 -539h4l374 518l302 19l12 -17l-586 -790l-78 -440l-6 -144l-297 -20l105 604zM432 1640q0 53 40 92.5t91 39.5q53 0 91 -39.5t38 -92.5q0 -51 -38 -89t-91 -38q-51 0 -91 38t-40 89zM795 1640q0 53 38.5 92.5t92.5 39.5q25 0 47 -10.5t40.5 -29 t30 -42t11.5 -50.5q0 -25 -11.5 -48t-30 -40.5t-41 -28t-46.5 -10.5q-53 0 -92 38t-39 89z" />
<glyph unicode="&#x2c6;" horiz-adv-x="1024" d="M244 928l4 16l282 336h125l152 -336l-4 -16h-158l-88 149l-139 -149h-174z" />
<glyph unicode="&#x2dc;" horiz-adv-x="1024" d="M211 963q0 129 59.5 197.5t143.5 68.5q41 0 73.5 -17.5t59 -38t50.5 -38t48 -17.5q35 0 53.5 33t18.5 74h143q0 -53 -14.5 -101.5t-41 -85.5t-63 -58.5t-82.5 -21.5q-43 0 -74.5 17.5t-56 37t-47 37t-49.5 17.5q-39 0 -60.5 -30.5t-21.5 -73.5h-139z" />
<glyph unicode="&#x2000;" horiz-adv-x="969" />
<glyph unicode="&#x2001;" horiz-adv-x="1939" />
<glyph unicode="&#x2002;" horiz-adv-x="969" />
<glyph unicode="&#x2003;" horiz-adv-x="1939" />
<glyph unicode="&#x2004;" horiz-adv-x="646" />
<glyph unicode="&#x2005;" horiz-adv-x="484" />
<glyph unicode="&#x2006;" horiz-adv-x="323" />
<glyph unicode="&#x2007;" horiz-adv-x="323" />
<glyph unicode="&#x2008;" horiz-adv-x="242" />
<glyph unicode="&#x2009;" horiz-adv-x="387" />
<glyph unicode="&#x200a;" horiz-adv-x="107" />
<glyph unicode="&#x2010;" horiz-adv-x="696" d="M45 360l21 240l512 21l-21 -240z" />
<glyph unicode="&#x2011;" horiz-adv-x="696" d="M45 360l21 240l512 21l-21 -240z" />
<glyph unicode="&#x2012;" horiz-adv-x="696" d="M45 360l21 240l512 21l-21 -240z" />
<glyph unicode="&#x2013;" horiz-adv-x="983" d="M49 354l21 240l798 33l-20 -240z" />
<glyph unicode="&#x2014;" horiz-adv-x="2048" d="M152 399v185h1671v-185h-1671z" />
<glyph unicode="&#x2018;" horiz-adv-x="573" d="M94 868l2 15l176 268l207 242h170l-2 -17l-176 -286l-94 -222h-283z" />
<glyph unicode="&#x2019;" horiz-adv-x="573" d="M74 868l2 17l176 286l94 222h283l-2 -15l-176 -268l-207 -242h-170z" />
<glyph unicode="&#x201a;" horiz-adv-x="573" d="M-76 -289l2 17l176 286l95 222h282l-2 -15l-176 -268l-207 -242h-170z" />
<glyph unicode="&#x201c;" horiz-adv-x="962" d="M94 868l2 15l176 268l207 242h170l-2 -17l-176 -286l-94 -222h-283zM483 868l2 15l177 268l206 242h170l-2 -17l-176 -286l-94 -222h-283z" />
<glyph unicode="&#x201d;" horiz-adv-x="962" d="M74 868l2 17l176 286l94 222h283l-2 -15l-176 -268l-207 -242h-170zM463 868l2 17l176 286l94 222h283l-2 -15l-176 -268l-207 -242h-170z" />
<glyph unicode="&#x201e;" horiz-adv-x="962" d="M-76 -289l2 17l176 286l95 222h282l-2 -15l-176 -268l-207 -242h-170zM313 -289l2 17l177 286l94 222h282l-2 -15l-176 -268l-207 -242h-170z" />
<glyph unicode="&#x2022;" horiz-adv-x="983" d="M213 541q0 57 21.5 108t59.5 89t89 59.5t109 21.5q57 0 108 -21.5t89 -59.5t59.5 -89t21.5 -108t-21.5 -108.5t-59.5 -89.5t-89 -59.5t-108 -21.5t-108.5 21.5t-89.5 59.5t-59.5 89.5t-21.5 108.5z" />
<glyph unicode="&#x2026;" horiz-adv-x="1863" d="M37 143q0 66 46 112t112 46t111.5 -46t45.5 -112t-46 -111.5t-111 -45.5q-66 0 -112 45.5t-46 111.5zM692 143q0 66 46 112t112 46t112 -46t46 -112t-46.5 -111.5t-111.5 -45.5q-66 0 -112 45.5t-46 111.5zM1348 143q0 66 46 112t111 46q66 0 112 -46t46 -112t-46 -111.5 t-112 -45.5t-111.5 45.5t-45.5 111.5z" />
<glyph unicode="&#x202f;" horiz-adv-x="387" />
<glyph unicode="&#x2039;" horiz-adv-x="839" d="M94 449l4 18l527 473l104 -109l-379 -389l189 -358l-131 -92z" />
<glyph unicode="&#x203a;" horiz-adv-x="839" d="M49 100l379 389l-188 359l131 92l313 -457l-4 -18l-526 -473z" />
<glyph unicode="&#x205f;" horiz-adv-x="484" />
<glyph unicode="&#x20ac;" horiz-adv-x="1249" d="M78 516l53 133h64l4 40t6 40h-90l57 133h70q45 127 121.5 230.5t176 177t213 113.5t232.5 40q96 0 181 -22.5t149 -65.5l-139 -235q-43 27 -98.5 45t-123.5 18q-59 0 -118.5 -20.5t-113.5 -58t-100.5 -94t-78.5 -128.5h532l-57 -133h-520l-13 -80h498l-53 -133h-445 q12 -131 88 -209t201 -78q150 0 262 66l76 -232q-80 -49 -176 -71.5t-191 -22.5q-125 0 -225 41t-170.5 114t-111.5 173t-48 219h-112z" />
<glyph unicode="&#x2122;" horiz-adv-x="1413" d="M152 1284v109h479v-109h-180v-424h-119v424h-180zM635 860l94 533h72l135 -314h8l133 314h70l94 -533h-121l-41 266h-10l-117 -270h-30l-117 270h-8l-43 -266h-119z" />
<glyph unicode="&#xe000;" horiz-adv-x="942" d="M0 0v942h942v-942h-942z" />
</font>
</defs>
</svg>
